ISO-10303-21;
HEADER;
/* Generated by software containing ST-Developer
 * from STEP Tools, Inc. (www.steptools.com) 
 */
/* OPTION: using custom renumber hook */

FILE_DESCRIPTION(
/* description */ ('STEP AP242 Edition 2',
'CAx-IF Rec.Pracs.---Representation and Presentation of Product Manufa
cturing Information (PMI)---4.0---2014-10-13',
'CAx-IF Rec.Pracs.---3D Tessellated Geometry---0.4---2014-09-14','2;1',
'CAx-IF Rec.Pracs.---User Defined Attributes---1.5---2016-08-15'),
/* implementation_level */ '2;1');

FILE_NAME(
/* name */ 'Part Studio 1',
/* time_stamp */ '2026-05-26T20:38:33Z',
/* author */ (''),
/* organization */ (''),
/* preprocessor_version */ 'ST-DEVELOPER v20',
/* originating_system */ 'ONSHAPE BY PTC INC, 1.215',
/* authorisation */ '  ');

FILE_SCHEMA (('AP242_MANAGED_MODEL_BASED_3D_ENGINEERING_MIM_LF { 1 0 10303 442 3 1 4 }'));
ENDSEC;

DATA;
#10=B_SPLINE_SURFACE_WITH_KNOTS('',1,3,((#1777,#1778,#1779,#1780,#1781,
#1782),(#1783,#1784,#1785,#1786,#1787,#1788)),.RULED_SURF.,.F.,.F.,.F.,
(2,2),(4,2,4),(0.,1.),(0.,0.5,1.),.UNSPECIFIED.);
#11=B_SPLINE_SURFACE_WITH_KNOTS('',1,3,((#1810,#1811,#1812,#1813,#1814,
#1815),(#1816,#1817,#1818,#1819,#1820,#1821)),.RULED_SURF.,.F.,.F.,.F.,
(2,2),(4,2,4),(0.,1.),(0.,0.5,1.),.UNSPECIFIED.);
#12=B_SPLINE_SURFACE_WITH_KNOTS('',1,3,((#1831,#1832,#1833,#1834,#1835,
#1836),(#1837,#1838,#1839,#1840,#1841,#1842)),.RULED_SURF.,.F.,.F.,.F.,
(2,2),(4,2,4),(0.,1.),(0.,0.5,1.),.UNSPECIFIED.);
#13=B_SPLINE_SURFACE_WITH_KNOTS('',1,3,((#1859,#1860,#1861,#1862,#1863,
#1864),(#1865,#1866,#1867,#1868,#1869,#1870)),.RULED_SURF.,.F.,.F.,.F.,
(2,2),(4,2,4),(0.,1.),(0.,0.5,1.),.UNSPECIFIED.);
#14=B_SPLINE_CURVE_WITH_KNOTS('',3,(#1706,#1707,#1708,#1709),
 .UNSPECIFIED.,.F.,.F.,(4,4),(0.,1.),.UNSPECIFIED.);
#15=B_SPLINE_CURVE_WITH_KNOTS('',3,(#1714,#1715,#1716,#1717),
 .UNSPECIFIED.,.F.,.F.,(4,4),(0.,1.),.UNSPECIFIED.);
#16=B_SPLINE_CURVE_WITH_KNOTS('',3,(#1719,#1720,#1721,#1722),
 .UNSPECIFIED.,.F.,.F.,(4,4),(0.,1.),.UNSPECIFIED.);
#17=B_SPLINE_CURVE_WITH_KNOTS('',3,(#1726,#1727,#1728,#1729),
 .UNSPECIFIED.,.F.,.F.,(4,4),(0.,1.),.UNSPECIFIED.);
#18=B_SPLINE_CURVE_WITH_KNOTS('',3,(#1789,#1790,#1791,#1792),
 .UNSPECIFIED.,.F.,.F.,(4,4),(0.,1.),.UNSPECIFIED.);
#19=B_SPLINE_CURVE_WITH_KNOTS('',3,(#1794,#1795,#1796,#1797),
 .UNSPECIFIED.,.F.,.F.,(4,4),(0.,1.),.UNSPECIFIED.);
#20=B_SPLINE_CURVE_WITH_KNOTS('',3,(#1799,#1800,#1801,#1802),
 .UNSPECIFIED.,.F.,.F.,(4,4),(0.,1.),.UNSPECIFIED.);
#21=B_SPLINE_CURVE_WITH_KNOTS('',3,(#1804,#1805,#1806,#1807),
 .UNSPECIFIED.,.F.,.F.,(4,4),(0.,1.),.UNSPECIFIED.);
#22=B_SPLINE_CURVE_WITH_KNOTS('',3,(#1822,#1823,#1824,#1825),
 .UNSPECIFIED.,.F.,.F.,(4,4),(0.,1.),.UNSPECIFIED.);
#23=B_SPLINE_CURVE_WITH_KNOTS('',3,(#1827,#1828,#1829,#1830),
 .UNSPECIFIED.,.F.,.F.,(4,4),(0.,1.),.UNSPECIFIED.);
#24=B_SPLINE_CURVE_WITH_KNOTS('',3,(#1843,#1844,#1845,#1846),
 .UNSPECIFIED.,.F.,.F.,(4,4),(0.,1.),.UNSPECIFIED.);
#25=B_SPLINE_CURVE_WITH_KNOTS('',3,(#1848,#1849,#1850,#1851),
 .UNSPECIFIED.,.F.,.F.,(4,4),(0.,1.),.UNSPECIFIED.);
#26=B_SPLINE_CURVE_WITH_KNOTS('',3,(#1853,#1854,#1855,#1856),
 .UNSPECIFIED.,.F.,.F.,(4,4),(0.,1.),.UNSPECIFIED.);
#27=B_SPLINE_CURVE_WITH_KNOTS('',3,(#1871,#1872,#1873,#1874),
 .UNSPECIFIED.,.F.,.F.,(4,4),(0.,1.),.UNSPECIFIED.);
#28=B_SPLINE_CURVE_WITH_KNOTS('',3,(#1876,#1877,#1878,#1879,#1880,#1881,
#1882,#1883,#1884,#1885,#1886),.UNSPECIFIED.,.T.,.F.,(1,1,1,1,1,1,1,1,1,
1,1,1,1,1,1),(-0.00295131084314108,-0.00196754056209405,-0.000983770281047025,
0.,0.000983770281047025,0.00196754056209405,0.00295131084314108,0.0039350811241881,
0.00491885140523513,0.00590262168628215,0.00688639196732918,0.0078701622483762,
0.00885393252942323,0.00983770281047025,0.0108214730915173),
 .UNSPECIFIED.);
#29=SHAPE_REPRESENTATION_RELATIONSHIP('','',#1172,#33);
#30=SHAPE_REPRESENTATION_RELATIONSHIP('','',#1173,#34);
#31=SHAPE_REPRESENTATION_RELATIONSHIP('','',#1174,#35);
#32=SHAPE_REPRESENTATION_RELATIONSHIP('','',#1175,#36);
#33=ADVANCED_BREP_SHAPE_REPRESENTATION('',(#1164),#2036);
#34=ADVANCED_BREP_SHAPE_REPRESENTATION('',(#1165),#2037);
#35=ADVANCED_BREP_SHAPE_REPRESENTATION('',(#1166),#2038);
#36=ADVANCED_BREP_SHAPE_REPRESENTATION('',(#1167),#2039);
#37=PLANE('',#1183);
#38=PLANE('',#1187);
#39=PLANE('',#1197);
#40=PLANE('',#1198);
#41=PLANE('',#1200);
#42=PLANE('',#1204);
#43=PLANE('',#1215);
#44=PLANE('',#1216);
#45=PLANE('',#1217);
#46=PLANE('',#1222);
#47=PLANE('',#1228);
#48=PLANE('',#1231);
#49=PLANE('',#1232);
#50=PLANE('',#1235);
#51=PLANE('',#1239);
#52=PLANE('',#1242);
#53=PLANE('',#1245);
#54=PLANE('',#1246);
#55=PLANE('',#1247);
#56=PLANE('',#1251);
#57=PLANE('',#1255);
#58=PLANE('',#1259);
#59=PLANE('',#1260);
#60=PLANE('',#1264);
#61=PLANE('',#1268);
#62=PLANE('',#1269);
#63=PLANE('',#1270);
#64=PLANE('',#1271);
#65=PLANE('',#1272);
#66=PLANE('',#1274);
#67=PLANE('',#1277);
#68=PLANE('',#1278);
#69=PLANE('',#1279);
#70=PLANE('',#1280);
#71=PLANE('',#1281);
#72=PLANE('',#1282);
#73=PLANE('',#1283);
#74=PLANE('',#1284);
#75=PLANE('',#1285);
#76=PLANE('',#1286);
#77=LINE('',#1616,#161);
#78=LINE('',#1620,#162);
#79=LINE('',#1624,#163);
#80=LINE('',#1628,#164);
#81=LINE('',#1630,#165);
#82=LINE('',#1632,#166);
#83=LINE('',#1636,#167);
#84=LINE('',#1640,#168);
#85=LINE('',#1642,#169);
#86=LINE('',#1644,#170);
#87=LINE('',#1662,#171);
#88=LINE('',#1665,#172);
#89=LINE('',#1667,#173);
#90=LINE('',#1669,#174);
#91=LINE('',#1673,#175);
#92=LINE('',#1677,#176);
#93=LINE('',#1679,#177);
#94=LINE('',#1681,#178);
#95=LINE('',#1712,#179);
#96=LINE('',#1724,#180);
#97=LINE('',#1734,#181);
#98=LINE('',#1738,#182);
#99=LINE('',#1751,#183);
#100=LINE('',#1753,#184);
#101=LINE('',#1755,#185);
#102=LINE('',#1757,#186);
#103=LINE('',#1763,#187);
#104=LINE('',#1765,#188);
#105=LINE('',#1809,#189);
#106=LINE('',#1858,#190);
#107=LINE('',#1891,#191);
#108=LINE('',#1896,#192);
#109=LINE('',#1900,#193);
#110=LINE('',#1904,#194);
#111=LINE('',#1906,#195);
#112=LINE('',#1908,#196);
#113=LINE('',#1910,#197);
#114=LINE('',#1915,#198);
#115=LINE('',#1917,#199);
#116=LINE('',#1919,#200);
#117=LINE('',#1921,#201);
#118=LINE('',#1925,#202);
#119=LINE('',#1929,#203);
#120=LINE('',#1930,#204);
#121=LINE('',#1932,#205);
#122=LINE('',#1937,#206);
#123=LINE('',#1939,#207);
#124=LINE('',#1941,#208);
#125=LINE('',#1943,#209);
#126=LINE('',#1947,#210);
#127=LINE('',#1951,#211);
#128=LINE('',#1956,#212);
#129=LINE('',#1960,#213);
#130=LINE('',#1964,#214);
#131=LINE('',#1966,#215);
#132=LINE('',#1968,#216);
#133=LINE('',#1970,#217);
#134=LINE('',#1971,#218);
#135=LINE('',#1972,#219);
#136=LINE('',#1975,#220);
#137=LINE('',#1977,#221);
#138=LINE('',#1979,#222);
#139=LINE('',#1980,#223);
#140=LINE('',#1981,#224);
#141=LINE('',#1983,#225);
#142=LINE('',#1985,#226);
#143=LINE('',#1987,#227);
#144=LINE('',#1989,#228);
#145=LINE('',#1991,#229);
#146=LINE('',#1993,#230);
#147=LINE('',#1995,#231);
#148=LINE('',#1996,#232);
#149=LINE('',#2006,#233);
#150=LINE('',#2008,#234);
#151=LINE('',#2010,#235);
#152=LINE('',#2011,#236);
#153=LINE('',#2013,#237);
#154=LINE('',#2014,#238);
#155=LINE('',#2016,#239);
#156=LINE('',#2017,#240);
#157=LINE('',#2020,#241);
#158=LINE('',#2021,#242);
#159=LINE('',#2023,#243);
#160=LINE('',#2024,#244);
#161=VECTOR('',#1299,1.);
#162=VECTOR('',#1302,1.);
#163=VECTOR('',#1307,1.);
#164=VECTOR('',#1312,1.);
#165=VECTOR('',#1313,1.);
#166=VECTOR('',#1314,1.);
#167=VECTOR('',#1319,1.);
#168=VECTOR('',#1324,1.);
#169=VECTOR('',#1325,1.);
#170=VECTOR('',#1326,1.);
#171=VECTOR('',#1353,1.);
#172=VECTOR('',#1354,1.);
#173=VECTOR('',#1355,1.);
#174=VECTOR('',#1356,1.);
#175=VECTOR('',#1361,1.);
#176=VECTOR('',#1366,1.);
#177=VECTOR('',#1367,1.);
#178=VECTOR('',#1368,1.);
#179=VECTOR('',#1403,1.);
#180=VECTOR('',#1404,1.);
#181=VECTOR('',#1409,1.);
#182=VECTOR('',#1412,1.);
#183=VECTOR('',#1429,1.);
#184=VECTOR('',#1430,1.);
#185=VECTOR('',#1431,1.);
#186=VECTOR('',#1434,1.);
#187=VECTOR('',#1441,1.);
#188=VECTOR('',#1442,1.);
#189=VECTOR('',#1463,1.);
#190=VECTOR('',#1466,1.);
#191=VECTOR('',#1475,1.);
#192=VECTOR('',#1478,1.);
#193=VECTOR('',#1481,1.);
#194=VECTOR('',#1484,1.);
#195=VECTOR('',#1485,1.);
#196=VECTOR('',#1486,1.);
#197=VECTOR('',#1489,1.);
#198=VECTOR('',#1492,1.);
#199=VECTOR('',#1493,1.);
#200=VECTOR('',#1494,1.);
#201=VECTOR('',#1495,1.);
#202=VECTOR('',#1498,1.);
#203=VECTOR('',#1503,1.);
#204=VECTOR('',#1504,1.);
#205=VECTOR('',#1507,1.);
#206=VECTOR('',#1510,1.);
#207=VECTOR('',#1511,1.);
#208=VECTOR('',#1512,1.);
#209=VECTOR('',#1513,1.);
#210=VECTOR('',#1516,1.);
#211=VECTOR('',#1521,1.);
#212=VECTOR('',#1524,1.);
#213=VECTOR('',#1527,1.);
#214=VECTOR('',#1530,1.);
#215=VECTOR('',#1531,1.);
#216=VECTOR('',#1532,1.);
#217=VECTOR('',#1535,1.);
#218=VECTOR('',#1536,1.);
#219=VECTOR('',#1537,1.);
#220=VECTOR('',#1538,1.);
#221=VECTOR('',#1539,1.);
#222=VECTOR('',#1540,1.);
#223=VECTOR('',#1541,1.);
#224=VECTOR('',#1542,1.);
#225=VECTOR('',#1545,1.);
#226=VECTOR('',#1546,1.);
#227=VECTOR('',#1547,1.);
#228=VECTOR('',#1550,1.);
#229=VECTOR('',#1551,1.);
#230=VECTOR('',#1552,1.);
#231=VECTOR('',#1555,1.);
#232=VECTOR('',#1556,1.);
#233=VECTOR('',#1571,1.);
#234=VECTOR('',#1574,1.);
#235=VECTOR('',#1577,1.);
#236=VECTOR('',#1578,1.);
#237=VECTOR('',#1581,1.);
#238=VECTOR('',#1582,1.);
#239=VECTOR('',#1585,1.);
#240=VECTOR('',#1586,1.);
#241=VECTOR('',#1591,1.);
#242=VECTOR('',#1592,1.);
#243=VECTOR('',#1595,1.);
#244=VECTOR('',#1596,1.);
#245=ORIENTED_EDGE('',*,*,#539,.T.);
#246=ORIENTED_EDGE('',*,*,#540,.F.);
#247=ORIENTED_EDGE('',*,*,#541,.F.);
#248=ORIENTED_EDGE('',*,*,#542,.T.);
#249=ORIENTED_EDGE('',*,*,#543,.T.);
#250=ORIENTED_EDGE('',*,*,#544,.F.);
#251=ORIENTED_EDGE('',*,*,#545,.F.);
#252=ORIENTED_EDGE('',*,*,#540,.T.);
#253=ORIENTED_EDGE('',*,*,#546,.T.);
#254=ORIENTED_EDGE('',*,*,#547,.F.);
#255=ORIENTED_EDGE('',*,*,#548,.F.);
#256=ORIENTED_EDGE('',*,*,#544,.T.);
#257=ORIENTED_EDGE('',*,*,#549,.T.);
#258=ORIENTED_EDGE('',*,*,#550,.F.);
#259=ORIENTED_EDGE('',*,*,#551,.F.);
#260=ORIENTED_EDGE('',*,*,#547,.T.);
#261=ORIENTED_EDGE('',*,*,#552,.F.);
#262=ORIENTED_EDGE('',*,*,#553,.F.);
#263=ORIENTED_EDGE('',*,*,#554,.T.);
#264=ORIENTED_EDGE('',*,*,#550,.T.);
#265=ORIENTED_EDGE('',*,*,#555,.T.);
#266=ORIENTED_EDGE('',*,*,#556,.F.);
#267=ORIENTED_EDGE('',*,*,#557,.T.);
#268=ORIENTED_EDGE('',*,*,#558,.F.);
#269=ORIENTED_EDGE('',*,*,#559,.T.);
#270=ORIENTED_EDGE('',*,*,#542,.F.);
#271=ORIENTED_EDGE('',*,*,#560,.F.);
#272=ORIENTED_EDGE('',*,*,#553,.T.);
#273=ORIENTED_EDGE('',*,*,#557,.F.);
#274=ORIENTED_EDGE('',*,*,#555,.F.);
#275=ORIENTED_EDGE('',*,*,#541,.T.);
#276=ORIENTED_EDGE('',*,*,#545,.T.);
#277=ORIENTED_EDGE('',*,*,#548,.T.);
#278=ORIENTED_EDGE('',*,*,#551,.T.);
#279=ORIENTED_EDGE('',*,*,#554,.F.);
#280=ORIENTED_EDGE('',*,*,#560,.T.);
#281=ORIENTED_EDGE('',*,*,#558,.T.);
#282=ORIENTED_EDGE('',*,*,#556,.T.);
#283=ORIENTED_EDGE('',*,*,#539,.F.);
#284=ORIENTED_EDGE('',*,*,#559,.F.);
#285=ORIENTED_EDGE('',*,*,#552,.T.);
#286=ORIENTED_EDGE('',*,*,#549,.F.);
#287=ORIENTED_EDGE('',*,*,#546,.F.);
#288=ORIENTED_EDGE('',*,*,#543,.F.);
#289=ORIENTED_EDGE('',*,*,#561,.T.);
#290=ORIENTED_EDGE('',*,*,#562,.F.);
#291=ORIENTED_EDGE('',*,*,#563,.F.);
#292=ORIENTED_EDGE('',*,*,#564,.T.);
#293=ORIENTED_EDGE('',*,*,#565,.T.);
#294=ORIENTED_EDGE('',*,*,#566,.F.);
#295=ORIENTED_EDGE('',*,*,#567,.F.);
#296=ORIENTED_EDGE('',*,*,#562,.T.);
#297=ORIENTED_EDGE('',*,*,#568,.T.);
#298=ORIENTED_EDGE('',*,*,#569,.F.);
#299=ORIENTED_EDGE('',*,*,#570,.F.);
#300=ORIENTED_EDGE('',*,*,#566,.T.);
#301=ORIENTED_EDGE('',*,*,#569,.T.);
#302=ORIENTED_EDGE('',*,*,#571,.F.);
#303=ORIENTED_EDGE('',*,*,#564,.F.);
#304=ORIENTED_EDGE('',*,*,#572,.F.);
#305=ORIENTED_EDGE('',*,*,#573,.T.);
#306=ORIENTED_EDGE('',*,*,#574,.T.);
#307=ORIENTED_EDGE('',*,*,#575,.F.);
#308=ORIENTED_EDGE('',*,*,#576,.T.);
#309=ORIENTED_EDGE('',*,*,#577,.F.);
#310=ORIENTED_EDGE('',*,*,#574,.F.);
#311=ORIENTED_EDGE('',*,*,#563,.T.);
#312=ORIENTED_EDGE('',*,*,#567,.T.);
#313=ORIENTED_EDGE('',*,*,#570,.T.);
#314=ORIENTED_EDGE('',*,*,#572,.T.);
#315=ORIENTED_EDGE('',*,*,#576,.F.);
#316=ORIENTED_EDGE('',*,*,#575,.T.);
#317=ORIENTED_EDGE('',*,*,#561,.F.);
#318=ORIENTED_EDGE('',*,*,#571,.T.);
#319=ORIENTED_EDGE('',*,*,#568,.F.);
#320=ORIENTED_EDGE('',*,*,#565,.F.);
#321=ORIENTED_EDGE('',*,*,#577,.T.);
#322=ORIENTED_EDGE('',*,*,#573,.F.);
#323=ORIENTED_EDGE('',*,*,#578,.T.);
#324=ORIENTED_EDGE('',*,*,#579,.F.);
#325=ORIENTED_EDGE('',*,*,#580,.F.);
#326=ORIENTED_EDGE('',*,*,#581,.F.);
#327=ORIENTED_EDGE('',*,*,#582,.F.);
#328=ORIENTED_EDGE('',*,*,#583,.F.);
#329=ORIENTED_EDGE('',*,*,#584,.F.);
#330=ORIENTED_EDGE('',*,*,#585,.F.);
#331=ORIENTED_EDGE('',*,*,#579,.T.);
#332=ORIENTED_EDGE('',*,*,#586,.F.);
#333=ORIENTED_EDGE('',*,*,#587,.T.);
#334=ORIENTED_EDGE('',*,*,#588,.F.);
#335=ORIENTED_EDGE('',*,*,#589,.F.);
#336=ORIENTED_EDGE('',*,*,#590,.F.);
#337=ORIENTED_EDGE('',*,*,#591,.T.);
#338=ORIENTED_EDGE('',*,*,#592,.F.);
#339=ORIENTED_EDGE('',*,*,#593,.F.);
#340=ORIENTED_EDGE('',*,*,#590,.T.);
#341=ORIENTED_EDGE('',*,*,#578,.F.);
#342=ORIENTED_EDGE('',*,*,#591,.F.);
#343=ORIENTED_EDGE('',*,*,#587,.F.);
#344=ORIENTED_EDGE('',*,*,#594,.F.);
#345=ORIENTED_EDGE('',*,*,#595,.T.);
#346=ORIENTED_EDGE('',*,*,#596,.T.);
#347=ORIENTED_EDGE('',*,*,#586,.T.);
#348=ORIENTED_EDGE('',*,*,#597,.F.);
#349=ORIENTED_EDGE('',*,*,#598,.F.);
#350=ORIENTED_EDGE('',*,*,#594,.T.);
#351=ORIENTED_EDGE('',*,*,#599,.T.);
#352=ORIENTED_EDGE('',*,*,#589,.T.);
#353=ORIENTED_EDGE('',*,*,#600,.F.);
#354=ORIENTED_EDGE('',*,*,#601,.F.);
#355=ORIENTED_EDGE('',*,*,#597,.T.);
#356=ORIENTED_EDGE('',*,*,#588,.T.);
#357=ORIENTED_EDGE('',*,*,#596,.F.);
#358=ORIENTED_EDGE('',*,*,#602,.F.);
#359=ORIENTED_EDGE('',*,*,#600,.T.);
#360=ORIENTED_EDGE('',*,*,#595,.F.);
#361=ORIENTED_EDGE('',*,*,#598,.T.);
#362=ORIENTED_EDGE('',*,*,#601,.T.);
#363=ORIENTED_EDGE('',*,*,#602,.T.);
#364=ORIENTED_EDGE('',*,*,#603,.F.);
#365=ORIENTED_EDGE('',*,*,#593,.T.);
#366=ORIENTED_EDGE('',*,*,#603,.T.);
#367=ORIENTED_EDGE('',*,*,#604,.F.);
#368=ORIENTED_EDGE('',*,*,#592,.T.);
#369=ORIENTED_EDGE('',*,*,#604,.T.);
#370=ORIENTED_EDGE('',*,*,#605,.T.);
#371=ORIENTED_EDGE('',*,*,#585,.T.);
#372=ORIENTED_EDGE('',*,*,#606,.F.);
#373=ORIENTED_EDGE('',*,*,#607,.F.);
#374=ORIENTED_EDGE('',*,*,#606,.T.);
#375=ORIENTED_EDGE('',*,*,#584,.T.);
#376=ORIENTED_EDGE('',*,*,#608,.F.);
#377=ORIENTED_EDGE('',*,*,#609,.F.);
#378=ORIENTED_EDGE('',*,*,#608,.T.);
#379=ORIENTED_EDGE('',*,*,#583,.T.);
#380=ORIENTED_EDGE('',*,*,#610,.F.);
#381=ORIENTED_EDGE('',*,*,#611,.F.);
#382=ORIENTED_EDGE('',*,*,#610,.T.);
#383=ORIENTED_EDGE('',*,*,#582,.T.);
#384=ORIENTED_EDGE('',*,*,#612,.F.);
#385=ORIENTED_EDGE('',*,*,#613,.F.);
#386=ORIENTED_EDGE('',*,*,#612,.T.);
#387=ORIENTED_EDGE('',*,*,#581,.T.);
#388=ORIENTED_EDGE('',*,*,#614,.F.);
#389=ORIENTED_EDGE('',*,*,#615,.F.);
#390=ORIENTED_EDGE('',*,*,#616,.F.);
#391=ORIENTED_EDGE('',*,*,#614,.T.);
#392=ORIENTED_EDGE('',*,*,#580,.T.);
#393=ORIENTED_EDGE('',*,*,#605,.F.);
#394=ORIENTED_EDGE('',*,*,#617,.F.);
#395=ORIENTED_EDGE('',*,*,#615,.T.);
#396=ORIENTED_EDGE('',*,*,#616,.T.);
#397=ORIENTED_EDGE('',*,*,#607,.T.);
#398=ORIENTED_EDGE('',*,*,#609,.T.);
#399=ORIENTED_EDGE('',*,*,#611,.T.);
#400=ORIENTED_EDGE('',*,*,#613,.T.);
#401=ORIENTED_EDGE('',*,*,#617,.T.);
#402=ORIENTED_EDGE('',*,*,#599,.F.);
#403=ORIENTED_EDGE('',*,*,#618,.F.);
#404=ORIENTED_EDGE('',*,*,#619,.T.);
#405=ORIENTED_EDGE('',*,*,#620,.T.);
#406=ORIENTED_EDGE('',*,*,#621,.T.);
#407=ORIENTED_EDGE('',*,*,#622,.F.);
#408=ORIENTED_EDGE('',*,*,#623,.T.);
#409=ORIENTED_EDGE('',*,*,#624,.T.);
#410=ORIENTED_EDGE('',*,*,#625,.T.);
#411=ORIENTED_EDGE('',*,*,#626,.F.);
#412=ORIENTED_EDGE('',*,*,#627,.F.);
#413=ORIENTED_EDGE('',*,*,#628,.T.);
#414=ORIENTED_EDGE('',*,*,#629,.T.);
#415=ORIENTED_EDGE('',*,*,#630,.T.);
#416=ORIENTED_EDGE('',*,*,#631,.F.);
#417=ORIENTED_EDGE('',*,*,#632,.F.);
#418=ORIENTED_EDGE('',*,*,#633,.T.);
#419=ORIENTED_EDGE('',*,*,#634,.T.);
#420=ORIENTED_EDGE('',*,*,#635,.T.);
#421=ORIENTED_EDGE('',*,*,#620,.F.);
#422=ORIENTED_EDGE('',*,*,#636,.T.);
#423=ORIENTED_EDGE('',*,*,#627,.T.);
#424=ORIENTED_EDGE('',*,*,#637,.T.);
#425=ORIENTED_EDGE('',*,*,#638,.T.);
#426=ORIENTED_EDGE('',*,*,#639,.T.);
#427=ORIENTED_EDGE('',*,*,#640,.T.);
#428=ORIENTED_EDGE('',*,*,#641,.F.);
#429=ORIENTED_EDGE('',*,*,#642,.F.);
#430=ORIENTED_EDGE('',*,*,#643,.F.);
#431=ORIENTED_EDGE('',*,*,#644,.T.);
#432=ORIENTED_EDGE('',*,*,#645,.T.);
#433=ORIENTED_EDGE('',*,*,#646,.T.);
#434=ORIENTED_EDGE('',*,*,#647,.F.);
#435=ORIENTED_EDGE('',*,*,#648,.T.);
#436=ORIENTED_EDGE('',*,*,#649,.F.);
#437=ORIENTED_EDGE('',*,*,#650,.T.);
#438=ORIENTED_EDGE('',*,*,#651,.F.);
#439=ORIENTED_EDGE('',*,*,#652,.T.);
#440=ORIENTED_EDGE('',*,*,#653,.T.);
#441=ORIENTED_EDGE('',*,*,#654,.T.);
#442=ORIENTED_EDGE('',*,*,#655,.T.);
#443=ORIENTED_EDGE('',*,*,#656,.F.);
#444=ORIENTED_EDGE('',*,*,#630,.F.);
#445=ORIENTED_EDGE('',*,*,#657,.F.);
#446=ORIENTED_EDGE('',*,*,#626,.T.);
#447=ORIENTED_EDGE('',*,*,#658,.T.);
#448=ORIENTED_EDGE('',*,*,#659,.F.);
#449=ORIENTED_EDGE('',*,*,#660,.F.);
#450=ORIENTED_EDGE('',*,*,#661,.T.);
#451=ORIENTED_EDGE('',*,*,#662,.T.);
#452=ORIENTED_EDGE('',*,*,#641,.T.);
#453=ORIENTED_EDGE('',*,*,#663,.T.);
#454=ORIENTED_EDGE('',*,*,#655,.F.);
#455=ORIENTED_EDGE('',*,*,#664,.T.);
#456=ORIENTED_EDGE('',*,*,#665,.F.);
#457=ORIENTED_EDGE('',*,*,#666,.F.);
#458=ORIENTED_EDGE('',*,*,#660,.T.);
#459=ORIENTED_EDGE('',*,*,#667,.T.);
#460=ORIENTED_EDGE('',*,*,#668,.F.);
#461=ORIENTED_EDGE('',*,*,#669,.F.);
#462=ORIENTED_EDGE('',*,*,#665,.T.);
#463=ORIENTED_EDGE('',*,*,#670,.F.);
#464=ORIENTED_EDGE('',*,*,#658,.F.);
#465=ORIENTED_EDGE('',*,*,#671,.T.);
#466=ORIENTED_EDGE('',*,*,#668,.T.);
#467=ORIENTED_EDGE('',*,*,#672,.F.);
#468=ORIENTED_EDGE('',*,*,#661,.F.);
#469=ORIENTED_EDGE('',*,*,#666,.T.);
#470=ORIENTED_EDGE('',*,*,#669,.T.);
#471=ORIENTED_EDGE('',*,*,#671,.F.);
#472=ORIENTED_EDGE('',*,*,#659,.T.);
#473=ORIENTED_EDGE('',*,*,#670,.T.);
#474=ORIENTED_EDGE('',*,*,#667,.F.);
#475=ORIENTED_EDGE('',*,*,#664,.F.);
#476=ORIENTED_EDGE('',*,*,#673,.F.);
#477=ORIENTED_EDGE('',*,*,#672,.T.);
#478=ORIENTED_EDGE('',*,*,#673,.T.);
#479=ORIENTED_EDGE('',*,*,#629,.F.);
#480=ORIENTED_EDGE('',*,*,#674,.T.);
#481=ORIENTED_EDGE('',*,*,#618,.T.);
#482=ORIENTED_EDGE('',*,*,#657,.T.);
#483=ORIENTED_EDGE('',*,*,#640,.F.);
#484=ORIENTED_EDGE('',*,*,#675,.T.);
#485=ORIENTED_EDGE('',*,*,#647,.T.);
#486=ORIENTED_EDGE('',*,*,#663,.F.);
#487=ORIENTED_EDGE('',*,*,#649,.T.);
#488=ORIENTED_EDGE('',*,*,#676,.T.);
#489=ORIENTED_EDGE('',*,*,#638,.F.);
#490=ORIENTED_EDGE('',*,*,#677,.T.);
#491=ORIENTED_EDGE('',*,*,#651,.T.);
#492=ORIENTED_EDGE('',*,*,#678,.T.);
#493=ORIENTED_EDGE('',*,*,#645,.F.);
#494=ORIENTED_EDGE('',*,*,#679,.T.);
#495=ORIENTED_EDGE('',*,*,#653,.F.);
#496=ORIENTED_EDGE('',*,*,#680,.T.);
#497=ORIENTED_EDGE('',*,*,#643,.T.);
#498=ORIENTED_EDGE('',*,*,#681,.F.);
#499=ORIENTED_EDGE('',*,*,#681,.T.);
#500=ORIENTED_EDGE('',*,*,#642,.T.);
#501=ORIENTED_EDGE('',*,*,#662,.F.);
#502=ORIENTED_EDGE('',*,*,#654,.F.);
#503=ORIENTED_EDGE('',*,*,#622,.T.);
#504=ORIENTED_EDGE('',*,*,#682,.T.);
#505=ORIENTED_EDGE('',*,*,#634,.F.);
#506=ORIENTED_EDGE('',*,*,#683,.T.);
#507=ORIENTED_EDGE('',*,*,#624,.F.);
#508=ORIENTED_EDGE('',*,*,#684,.T.);
#509=ORIENTED_EDGE('',*,*,#632,.T.);
#510=ORIENTED_EDGE('',*,*,#685,.T.);
#511=ORIENTED_EDGE('',*,*,#631,.T.);
#512=ORIENTED_EDGE('',*,*,#656,.T.);
#513=ORIENTED_EDGE('',*,*,#625,.F.);
#514=ORIENTED_EDGE('',*,*,#685,.F.);
#515=ORIENTED_EDGE('',*,*,#639,.F.);
#516=ORIENTED_EDGE('',*,*,#676,.F.);
#517=ORIENTED_EDGE('',*,*,#648,.F.);
#518=ORIENTED_EDGE('',*,*,#675,.F.);
#519=ORIENTED_EDGE('',*,*,#619,.F.);
#520=ORIENTED_EDGE('',*,*,#674,.F.);
#521=ORIENTED_EDGE('',*,*,#628,.F.);
#522=ORIENTED_EDGE('',*,*,#636,.F.);
#523=ORIENTED_EDGE('',*,*,#650,.F.);
#524=ORIENTED_EDGE('',*,*,#677,.F.);
#525=ORIENTED_EDGE('',*,*,#646,.F.);
#526=ORIENTED_EDGE('',*,*,#678,.F.);
#527=ORIENTED_EDGE('',*,*,#652,.F.);
#528=ORIENTED_EDGE('',*,*,#679,.F.);
#529=ORIENTED_EDGE('',*,*,#644,.F.);
#530=ORIENTED_EDGE('',*,*,#680,.F.);
#531=ORIENTED_EDGE('',*,*,#635,.F.);
#532=ORIENTED_EDGE('',*,*,#682,.F.);
#533=ORIENTED_EDGE('',*,*,#621,.F.);
#534=ORIENTED_EDGE('',*,*,#637,.F.);
#535=ORIENTED_EDGE('',*,*,#633,.F.);
#536=ORIENTED_EDGE('',*,*,#684,.F.);
#537=ORIENTED_EDGE('',*,*,#623,.F.);
#538=ORIENTED_EDGE('',*,*,#683,.F.);
#539=EDGE_CURVE('',#686,#687,#791,.T.);
#540=EDGE_CURVE('',#688,#687,#77,.T.);
#541=EDGE_CURVE('',#689,#688,#792,.T.);
#542=EDGE_CURVE('',#689,#686,#78,.T.);
#543=EDGE_CURVE('',#687,#690,#793,.T.);
#544=EDGE_CURVE('',#691,#690,#79,.T.);
#545=EDGE_CURVE('',#688,#691,#794,.T.);
#546=EDGE_CURVE('',#690,#692,#80,.T.);
#547=EDGE_CURVE('',#693,#692,#81,.T.);
#548=EDGE_CURVE('',#691,#693,#82,.T.);
#549=EDGE_CURVE('',#692,#694,#795,.T.);
#550=EDGE_CURVE('',#695,#694,#83,.T.);
#551=EDGE_CURVE('',#693,#695,#796,.T.);
#552=EDGE_CURVE('',#696,#694,#84,.T.);
#553=EDGE_CURVE('',#697,#696,#85,.T.);
#554=EDGE_CURVE('',#697,#695,#86,.T.);
#555=EDGE_CURVE('',#698,#698,#797,.T.);
#556=EDGE_CURVE('',#699,#699,#798,.T.);
#557=EDGE_CURVE('',#700,#700,#799,.T.);
#558=EDGE_CURVE('',#701,#701,#800,.T.);
#559=EDGE_CURVE('',#696,#686,#801,.T.);
#560=EDGE_CURVE('',#697,#689,#802,.T.);
#561=EDGE_CURVE('',#702,#703,#87,.T.);
#562=EDGE_CURVE('',#704,#703,#88,.T.);
#563=EDGE_CURVE('',#705,#704,#89,.T.);
#564=EDGE_CURVE('',#705,#702,#90,.T.);
#565=EDGE_CURVE('',#703,#706,#803,.T.);
#566=EDGE_CURVE('',#707,#706,#91,.T.);
#567=EDGE_CURVE('',#704,#707,#804,.T.);
#568=EDGE_CURVE('',#706,#708,#92,.T.);
#569=EDGE_CURVE('',#709,#708,#93,.T.);
#570=EDGE_CURVE('',#707,#709,#94,.T.);
#571=EDGE_CURVE('',#702,#708,#805,.T.);
#572=EDGE_CURVE('',#709,#705,#806,.T.);
#573=EDGE_CURVE('',#710,#710,#807,.T.);
#574=EDGE_CURVE('',#711,#711,#808,.T.);
#575=EDGE_CURVE('',#712,#712,#809,.T.);
#576=EDGE_CURVE('',#713,#713,#810,.T.);
#577=EDGE_CURVE('',#714,#714,#811,.T.);
#578=EDGE_CURVE('',#715,#715,#812,.T.);
#579=EDGE_CURVE('',#716,#716,#813,.T.);
#580=EDGE_CURVE('',#717,#718,#14,.T.);
#581=EDGE_CURVE('',#719,#717,#95,.T.);
#582=EDGE_CURVE('',#720,#719,#15,.T.);
#583=EDGE_CURVE('',#721,#720,#16,.T.);
#584=EDGE_CURVE('',#722,#721,#96,.T.);
#585=EDGE_CURVE('',#718,#722,#17,.T.);
#586=EDGE_CURVE('',#723,#724,#814,.T.);
#587=EDGE_CURVE('',#723,#725,#97,.T.);
#588=EDGE_CURVE('',#726,#725,#815,.T.);
#589=EDGE_CURVE('',#724,#726,#98,.T.);
#590=EDGE_CURVE('',#727,#727,#816,.T.);
#591=EDGE_CURVE('',#728,#728,#817,.T.);
#592=EDGE_CURVE('',#729,#729,#818,.T.);
#593=EDGE_CURVE('',#730,#730,#819,.T.);
#594=EDGE_CURVE('',#731,#723,#99,.T.);
#595=EDGE_CURVE('',#731,#732,#100,.T.);
#596=EDGE_CURVE('',#732,#725,#101,.T.);
#597=EDGE_CURVE('',#733,#724,#102,.T.);
#598=EDGE_CURVE('',#731,#733,#820,.T.);
#599=EDGE_CURVE('',#734,#734,#821,.T.);
#600=EDGE_CURVE('',#735,#726,#103,.T.);
#601=EDGE_CURVE('',#733,#735,#104,.T.);
#602=EDGE_CURVE('',#735,#732,#822,.T.);
#603=EDGE_CURVE('',#736,#736,#823,.T.);
#604=EDGE_CURVE('',#737,#737,#824,.T.);
#605=EDGE_CURVE('',#738,#718,#18,.F.);
#606=EDGE_CURVE('',#739,#722,#19,.F.);
#607=EDGE_CURVE('',#738,#739,#20,.T.);
#608=EDGE_CURVE('',#740,#721,#21,.T.);
#609=EDGE_CURVE('',#739,#740,#105,.T.);
#610=EDGE_CURVE('',#741,#720,#22,.T.);
#611=EDGE_CURVE('',#740,#741,#23,.T.);
#612=EDGE_CURVE('',#742,#719,#24,.F.);
#613=EDGE_CURVE('',#741,#742,#25,.T.);
#614=EDGE_CURVE('',#743,#717,#26,.T.);
#615=EDGE_CURVE('',#742,#743,#106,.F.);
#616=EDGE_CURVE('',#743,#738,#27,.T.);
#617=EDGE_CURVE('',#744,#744,#28,.T.);
#618=EDGE_CURVE('',#745,#746,#107,.T.);
#619=EDGE_CURVE('',#745,#747,#825,.T.);
#620=EDGE_CURVE('',#747,#748,#108,.T.);
#621=EDGE_CURVE('',#748,#749,#826,.T.);
#622=EDGE_CURVE('',#750,#749,#109,.T.);
#623=EDGE_CURVE('',#750,#751,#827,.T.);
#624=EDGE_CURVE('',#751,#752,#110,.T.);
#625=EDGE_CURVE('',#752,#753,#111,.T.);
#626=EDGE_CURVE('',#746,#753,#112,.T.);
#627=EDGE_CURVE('',#754,#755,#113,.T.);
#628=EDGE_CURVE('',#754,#756,#828,.F.);
#629=EDGE_CURVE('',#756,#757,#114,.T.);
#630=EDGE_CURVE('',#757,#758,#115,.T.);
#631=EDGE_CURVE('',#759,#758,#116,.T.);
#632=EDGE_CURVE('',#760,#759,#117,.T.);
#633=EDGE_CURVE('',#760,#761,#829,.F.);
#634=EDGE_CURVE('',#761,#762,#118,.T.);
#635=EDGE_CURVE('',#762,#755,#830,.F.);
#636=EDGE_CURVE('',#747,#754,#119,.T.);
#637=EDGE_CURVE('',#755,#748,#120,.T.);
#638=EDGE_CURVE('',#763,#764,#121,.T.);
#639=EDGE_CURVE('',#764,#765,#831,.T.);
#640=EDGE_CURVE('',#765,#766,#122,.T.);
#641=EDGE_CURVE('',#767,#766,#123,.T.);
#642=EDGE_CURVE('',#768,#767,#124,.T.);
#643=EDGE_CURVE('',#769,#768,#125,.T.);
#644=EDGE_CURVE('',#769,#770,#832,.T.);
#645=EDGE_CURVE('',#770,#771,#126,.T.);
#646=EDGE_CURVE('',#771,#763,#833,.T.);
#647=EDGE_CURVE('',#772,#773,#127,.T.);
#648=EDGE_CURVE('',#772,#774,#834,.F.);
#649=EDGE_CURVE('',#775,#774,#128,.T.);
#650=EDGE_CURVE('',#775,#776,#835,.F.);
#651=EDGE_CURVE('',#777,#776,#129,.T.);
#652=EDGE_CURVE('',#777,#778,#836,.F.);
#653=EDGE_CURVE('',#778,#779,#130,.T.);
#654=EDGE_CURVE('',#779,#780,#131,.T.);
#655=EDGE_CURVE('',#780,#773,#132,.T.);
#656=EDGE_CURVE('',#758,#753,#133,.T.);
#657=EDGE_CURVE('',#746,#757,#134,.T.);
#658=EDGE_CURVE('',#781,#782,#135,.T.);
#659=EDGE_CURVE('',#783,#782,#136,.T.);
#660=EDGE_CURVE('',#784,#783,#137,.T.);
#661=EDGE_CURVE('',#784,#781,#138,.T.);
#662=EDGE_CURVE('',#780,#767,#139,.T.);
#663=EDGE_CURVE('',#766,#773,#140,.T.);
#664=EDGE_CURVE('',#783,#785,#141,.T.);
#665=EDGE_CURVE('',#786,#785,#142,.T.);
#666=EDGE_CURVE('',#784,#786,#143,.T.);
#667=EDGE_CURVE('',#785,#787,#144,.T.);
#668=EDGE_CURVE('',#788,#787,#145,.T.);
#669=EDGE_CURVE('',#786,#788,#146,.T.);
#670=EDGE_CURVE('',#782,#787,#147,.T.);
#671=EDGE_CURVE('',#781,#788,#148,.T.);
#672=EDGE_CURVE('',#789,#789,#837,.T.);
#673=EDGE_CURVE('',#790,#790,#838,.T.);
#674=EDGE_CURVE('',#756,#745,#149,.F.);
#675=EDGE_CURVE('',#765,#772,#150,.T.);
#676=EDGE_CURVE('',#774,#764,#151,.F.);
#677=EDGE_CURVE('',#763,#775,#152,.F.);
#678=EDGE_CURVE('',#776,#771,#153,.T.);
#679=EDGE_CURVE('',#770,#777,#154,.F.);
#680=EDGE_CURVE('',#778,#769,#155,.T.);
#681=EDGE_CURVE('',#779,#768,#156,.T.);
#682=EDGE_CURVE('',#749,#762,#157,.F.);
#683=EDGE_CURVE('',#761,#750,#158,.T.);
#684=EDGE_CURVE('',#751,#760,#159,.F.);
#685=EDGE_CURVE('',#759,#752,#160,.T.);
#686=VERTEX_POINT('',#1614);
#687=VERTEX_POINT('',#1615);
#688=VERTEX_POINT('',#1617);
#689=VERTEX_POINT('',#1619);
#690=VERTEX_POINT('',#1623);
#691=VERTEX_POINT('',#1625);
#692=VERTEX_POINT('',#1629);
#693=VERTEX_POINT('',#1631);
#694=VERTEX_POINT('',#1635);
#695=VERTEX_POINT('',#1637);
#696=VERTEX_POINT('',#1641);
#697=VERTEX_POINT('',#1643);
#698=VERTEX_POINT('',#1647);
#699=VERTEX_POINT('',#1649);
#700=VERTEX_POINT('',#1652);
#701=VERTEX_POINT('',#1654);
#702=VERTEX_POINT('',#1663);
#703=VERTEX_POINT('',#1664);
#704=VERTEX_POINT('',#1666);
#705=VERTEX_POINT('',#1668);
#706=VERTEX_POINT('',#1672);
#707=VERTEX_POINT('',#1674);
#708=VERTEX_POINT('',#1678);
#709=VERTEX_POINT('',#1680);
#710=VERTEX_POINT('',#1686);
#711=VERTEX_POINT('',#1689);
#712=VERTEX_POINT('',#1691);
#713=VERTEX_POINT('',#1694);
#714=VERTEX_POINT('',#1696);
#715=VERTEX_POINT('',#1703);
#716=VERTEX_POINT('',#1705);
#717=VERTEX_POINT('',#1710);
#718=VERTEX_POINT('',#1711);
#719=VERTEX_POINT('',#1713);
#720=VERTEX_POINT('',#1718);
#721=VERTEX_POINT('',#1723);
#722=VERTEX_POINT('',#1725);
#723=VERTEX_POINT('',#1732);
#724=VERTEX_POINT('',#1733);
#725=VERTEX_POINT('',#1735);
#726=VERTEX_POINT('',#1737);
#727=VERTEX_POINT('',#1741);
#728=VERTEX_POINT('',#1743);
#729=VERTEX_POINT('',#1746);
#730=VERTEX_POINT('',#1748);
#731=VERTEX_POINT('',#1752);
#732=VERTEX_POINT('',#1754);
#733=VERTEX_POINT('',#1758);
#734=VERTEX_POINT('',#1762);
#735=VERTEX_POINT('',#1764);
#736=VERTEX_POINT('',#1771);
#737=VERTEX_POINT('',#1775);
#738=VERTEX_POINT('',#1793);
#739=VERTEX_POINT('',#1798);
#740=VERTEX_POINT('',#1808);
#741=VERTEX_POINT('',#1826);
#742=VERTEX_POINT('',#1847);
#743=VERTEX_POINT('',#1857);
#744=VERTEX_POINT('',#1887);
#745=VERTEX_POINT('',#1892);
#746=VERTEX_POINT('',#1893);
#747=VERTEX_POINT('',#1895);
#748=VERTEX_POINT('',#1897);
#749=VERTEX_POINT('',#1899);
#750=VERTEX_POINT('',#1901);
#751=VERTEX_POINT('',#1903);
#752=VERTEX_POINT('',#1905);
#753=VERTEX_POINT('',#1907);
#754=VERTEX_POINT('',#1911);
#755=VERTEX_POINT('',#1912);
#756=VERTEX_POINT('',#1914);
#757=VERTEX_POINT('',#1916);
#758=VERTEX_POINT('',#1918);
#759=VERTEX_POINT('',#1920);
#760=VERTEX_POINT('',#1922);
#761=VERTEX_POINT('',#1924);
#762=VERTEX_POINT('',#1926);
#763=VERTEX_POINT('',#1933);
#764=VERTEX_POINT('',#1934);
#765=VERTEX_POINT('',#1936);
#766=VERTEX_POINT('',#1938);
#767=VERTEX_POINT('',#1940);
#768=VERTEX_POINT('',#1942);
#769=VERTEX_POINT('',#1944);
#770=VERTEX_POINT('',#1946);
#771=VERTEX_POINT('',#1948);
#772=VERTEX_POINT('',#1952);
#773=VERTEX_POINT('',#1953);
#774=VERTEX_POINT('',#1955);
#775=VERTEX_POINT('',#1957);
#776=VERTEX_POINT('',#1959);
#777=VERTEX_POINT('',#1961);
#778=VERTEX_POINT('',#1963);
#779=VERTEX_POINT('',#1965);
#780=VERTEX_POINT('',#1967);
#781=VERTEX_POINT('',#1973);
#782=VERTEX_POINT('',#1974);
#783=VERTEX_POINT('',#1976);
#784=VERTEX_POINT('',#1978);
#785=VERTEX_POINT('',#1984);
#786=VERTEX_POINT('',#1986);
#787=VERTEX_POINT('',#1990);
#788=VERTEX_POINT('',#1992);
#789=VERTEX_POINT('',#1999);
#790=VERTEX_POINT('',#2003);
#791=CIRCLE('',#1178,0.0318);
#792=CIRCLE('',#1179,0.0318);
#793=CIRCLE('',#1181,0.0064);
#794=CIRCLE('',#1182,0.0064);
#795=CIRCLE('',#1185,0.0064);
#796=CIRCLE('',#1186,0.0064);
#797=CIRCLE('',#1189,0.003225);
#798=CIRCLE('',#1190,0.003225);
#799=CIRCLE('',#1192,0.003225);
#800=CIRCLE('',#1193,0.003225);
#801=CIRCLE('',#1195,0.0064);
#802=CIRCLE('',#1196,0.0064);
#803=CIRCLE('',#1202,0.0065105127975674);
#804=CIRCLE('',#1203,0.0065105127975674);
#805=CIRCLE('',#1206,0.0064);
#806=CIRCLE('',#1207,0.0064);
#807=CIRCLE('',#1208,0.0064);
#808=CIRCLE('',#1210,0.00322159027317534);
#809=CIRCLE('',#1211,0.00322159027317534);
#810=CIRCLE('',#1213,0.003225);
#811=CIRCLE('',#1214,0.003225);
#812=CIRCLE('',#1220,0.0064);
#813=CIRCLE('',#1221,0.0064);
#814=CIRCLE('',#1223,0.00255);
#815=CIRCLE('',#1224,0.00255);
#816=CIRCLE('',#1226,0.0318);
#817=CIRCLE('',#1227,0.0318);
#818=CIRCLE('',#1229,0.003225);
#819=CIRCLE('',#1230,0.003225);
#820=CIRCLE('',#1234,0.00255);
#821=CIRCLE('',#1236,0.00125);
#822=CIRCLE('',#1238,0.00255);
#823=CIRCLE('',#1241,0.003225);
#824=CIRCLE('',#1244,0.003225);
#825=CIRCLE('',#1252,0.000136298637831931);
#826=CIRCLE('',#1253,0.000136298637831931);
#827=CIRCLE('',#1254,0.000136298637831931);
#828=CIRCLE('',#1256,0.000136298637831931);
#829=CIRCLE('',#1257,0.000136298637831931);
#830=CIRCLE('',#1258,0.000136298637831931);
#831=CIRCLE('',#1261,0.000136298637831931);
#832=CIRCLE('',#1262,0.000136298637831931);
#833=CIRCLE('',#1263,0.000136298637831931);
#834=CIRCLE('',#1265,0.000136298637831931);
#835=CIRCLE('',#1266,0.000136298637831931);
#836=CIRCLE('',#1267,0.000136298637831931);
#837=CIRCLE('',#1273,0.003225);
#838=CIRCLE('',#1276,0.003225);
#839=EDGE_LOOP('',(#245,#246,#247,#248));
#840=EDGE_LOOP('',(#249,#250,#251,#252));
#841=EDGE_LOOP('',(#253,#254,#255,#256));
#842=EDGE_LOOP('',(#257,#258,#259,#260));
#843=EDGE_LOOP('',(#261,#262,#263,#264));
#844=EDGE_LOOP('',(#265));
#845=EDGE_LOOP('',(#266));
#846=EDGE_LOOP('',(#267));
#847=EDGE_LOOP('',(#268));
#848=EDGE_LOOP('',(#269,#270,#271,#272));
#849=EDGE_LOOP('',(#273));
#850=EDGE_LOOP('',(#274));
#851=EDGE_LOOP('',(#275,#276,#277,#278,#279,#280));
#852=EDGE_LOOP('',(#281));
#853=EDGE_LOOP('',(#282));
#854=EDGE_LOOP('',(#283,#284,#285,#286,#287,#288));
#855=EDGE_LOOP('',(#289,#290,#291,#292));
#856=EDGE_LOOP('',(#293,#294,#295,#296));
#857=EDGE_LOOP('',(#297,#298,#299,#300));
#858=EDGE_LOOP('',(#301,#302,#303,#304));
#859=EDGE_LOOP('',(#305));
#860=EDGE_LOOP('',(#306));
#861=EDGE_LOOP('',(#307));
#862=EDGE_LOOP('',(#308));
#863=EDGE_LOOP('',(#309));
#864=EDGE_LOOP('',(#310));
#865=EDGE_LOOP('',(#311,#312,#313,#314));
#866=EDGE_LOOP('',(#315));
#867=EDGE_LOOP('',(#316));
#868=EDGE_LOOP('',(#317,#318,#319,#320));
#869=EDGE_LOOP('',(#321));
#870=EDGE_LOOP('',(#322));
#871=EDGE_LOOP('',(#323));
#872=EDGE_LOOP('',(#324));
#873=EDGE_LOOP('',(#325,#326,#327,#328,#329,#330));
#874=EDGE_LOOP('',(#331));
#875=EDGE_LOOP('',(#332,#333,#334,#335));
#876=EDGE_LOOP('',(#336));
#877=EDGE_LOOP('',(#337));
#878=EDGE_LOOP('',(#338));
#879=EDGE_LOOP('',(#339));
#880=EDGE_LOOP('',(#340));
#881=EDGE_LOOP('',(#341));
#882=EDGE_LOOP('',(#342));
#883=EDGE_LOOP('',(#343,#344,#345,#346));
#884=EDGE_LOOP('',(#347,#348,#349,#350));
#885=EDGE_LOOP('',(#351));
#886=EDGE_LOOP('',(#352,#353,#354,#355));
#887=EDGE_LOOP('',(#356,#357,#358,#359));
#888=EDGE_LOOP('',(#360,#361,#362,#363));
#889=EDGE_LOOP('',(#364));
#890=EDGE_LOOP('',(#365));
#891=EDGE_LOOP('',(#366));
#892=EDGE_LOOP('',(#367));
#893=EDGE_LOOP('',(#368));
#894=EDGE_LOOP('',(#369));
#895=EDGE_LOOP('',(#370,#371,#372,#373));
#896=EDGE_LOOP('',(#374,#375,#376,#377));
#897=EDGE_LOOP('',(#378,#379,#380,#381));
#898=EDGE_LOOP('',(#382,#383,#384,#385));
#899=EDGE_LOOP('',(#386,#387,#388,#389));
#900=EDGE_LOOP('',(#390,#391,#392,#393));
#901=EDGE_LOOP('',(#394));
#902=EDGE_LOOP('',(#395,#396,#397,#398,#399,#400));
#903=EDGE_LOOP('',(#401));
#904=EDGE_LOOP('',(#402));
#905=EDGE_LOOP('',(#403,#404,#405,#406,#407,#408,#409,#410,#411));
#906=EDGE_LOOP('',(#412,#413,#414,#415,#416,#417,#418,#419,#420));
#907=EDGE_LOOP('',(#421,#422,#423,#424));
#908=EDGE_LOOP('',(#425,#426,#427,#428,#429,#430,#431,#432,#433));
#909=EDGE_LOOP('',(#434,#435,#436,#437,#438,#439,#440,#441,#442));
#910=EDGE_LOOP('',(#443,#444,#445,#446));
#911=EDGE_LOOP('',(#447,#448,#449,#450));
#912=EDGE_LOOP('',(#451,#452,#453,#454));
#913=EDGE_LOOP('',(#455,#456,#457,#458));
#914=EDGE_LOOP('',(#459,#460,#461,#462));
#915=EDGE_LOOP('',(#463,#464,#465,#466));
#916=EDGE_LOOP('',(#467));
#917=EDGE_LOOP('',(#468,#469,#470,#471));
#918=EDGE_LOOP('',(#472,#473,#474,#475));
#919=EDGE_LOOP('',(#476));
#920=EDGE_LOOP('',(#477));
#921=EDGE_LOOP('',(#478));
#922=EDGE_LOOP('',(#479,#480,#481,#482));
#923=EDGE_LOOP('',(#483,#484,#485,#486));
#924=EDGE_LOOP('',(#487,#488,#489,#490));
#925=EDGE_LOOP('',(#491,#492,#493,#494));
#926=EDGE_LOOP('',(#495,#496,#497,#498));
#927=EDGE_LOOP('',(#499,#500,#501,#502));
#928=EDGE_LOOP('',(#503,#504,#505,#506));
#929=EDGE_LOOP('',(#507,#508,#509,#510));
#930=EDGE_LOOP('',(#511,#512,#513,#514));
#931=EDGE_LOOP('',(#515,#516,#517,#518));
#932=EDGE_LOOP('',(#519,#520,#521,#522));
#933=EDGE_LOOP('',(#523,#524,#525,#526));
#934=EDGE_LOOP('',(#527,#528,#529,#530));
#935=EDGE_LOOP('',(#531,#532,#533,#534));
#936=EDGE_LOOP('',(#535,#536,#537,#538));
#937=FACE_BOUND('',#839,.T.);
#938=FACE_BOUND('',#840,.T.);
#939=FACE_BOUND('',#841,.T.);
#940=FACE_BOUND('',#842,.T.);
#941=FACE_BOUND('',#843,.T.);
#942=FACE_BOUND('',#844,.T.);
#943=FACE_BOUND('',#845,.T.);
#944=FACE_BOUND('',#846,.T.);
#945=FACE_BOUND('',#847,.T.);
#946=FACE_BOUND('',#848,.T.);
#947=FACE_BOUND('',#849,.T.);
#948=FACE_BOUND('',#850,.T.);
#949=FACE_BOUND('',#851,.T.);
#950=FACE_BOUND('',#852,.T.);
#951=FACE_BOUND('',#853,.T.);
#952=FACE_BOUND('',#854,.T.);
#953=FACE_BOUND('',#855,.T.);
#954=FACE_BOUND('',#856,.T.);
#955=FACE_BOUND('',#857,.T.);
#956=FACE_BOUND('',#858,.T.);
#957=FACE_BOUND('',#859,.T.);
#958=FACE_BOUND('',#860,.T.);
#959=FACE_BOUND('',#861,.T.);
#960=FACE_BOUND('',#862,.T.);
#961=FACE_BOUND('',#863,.T.);
#962=FACE_BOUND('',#864,.T.);
#963=FACE_BOUND('',#865,.T.);
#964=FACE_BOUND('',#866,.T.);
#965=FACE_BOUND('',#867,.T.);
#966=FACE_BOUND('',#868,.T.);
#967=FACE_BOUND('',#869,.T.);
#968=FACE_BOUND('',#870,.T.);
#969=FACE_BOUND('',#871,.T.);
#970=FACE_BOUND('',#872,.T.);
#971=FACE_BOUND('',#873,.T.);
#972=FACE_BOUND('',#874,.T.);
#973=FACE_BOUND('',#875,.T.);
#974=FACE_BOUND('',#876,.T.);
#975=FACE_BOUND('',#877,.T.);
#976=FACE_BOUND('',#878,.T.);
#977=FACE_BOUND('',#879,.T.);
#978=FACE_BOUND('',#880,.T.);
#979=FACE_BOUND('',#881,.T.);
#980=FACE_BOUND('',#882,.T.);
#981=FACE_BOUND('',#883,.T.);
#982=FACE_BOUND('',#884,.T.);
#983=FACE_BOUND('',#885,.T.);
#984=FACE_BOUND('',#886,.T.);
#985=FACE_BOUND('',#887,.T.);
#986=FACE_BOUND('',#888,.T.);
#987=FACE_BOUND('',#889,.T.);
#988=FACE_BOUND('',#890,.T.);
#989=FACE_BOUND('',#891,.T.);
#990=FACE_BOUND('',#892,.T.);
#991=FACE_BOUND('',#893,.T.);
#992=FACE_BOUND('',#894,.T.);
#993=FACE_BOUND('',#895,.T.);
#994=FACE_BOUND('',#896,.T.);
#995=FACE_BOUND('',#897,.T.);
#996=FACE_BOUND('',#898,.T.);
#997=FACE_BOUND('',#899,.T.);
#998=FACE_BOUND('',#900,.T.);
#999=FACE_BOUND('',#901,.T.);
#1000=FACE_BOUND('',#902,.T.);
#1001=FACE_BOUND('',#903,.T.);
#1002=FACE_BOUND('',#904,.T.);
#1003=FACE_BOUND('',#905,.T.);
#1004=FACE_BOUND('',#906,.T.);
#1005=FACE_BOUND('',#907,.T.);
#1006=FACE_BOUND('',#908,.T.);
#1007=FACE_BOUND('',#909,.T.);
#1008=FACE_BOUND('',#910,.T.);
#1009=FACE_BOUND('',#911,.T.);
#1010=FACE_BOUND('',#912,.T.);
#1011=FACE_BOUND('',#913,.T.);
#1012=FACE_BOUND('',#914,.T.);
#1013=FACE_BOUND('',#915,.T.);
#1014=FACE_BOUND('',#916,.T.);
#1015=FACE_BOUND('',#917,.T.);
#1016=FACE_BOUND('',#918,.T.);
#1017=FACE_BOUND('',#919,.T.);
#1018=FACE_BOUND('',#920,.T.);
#1019=FACE_BOUND('',#921,.T.);
#1020=FACE_BOUND('',#922,.T.);
#1021=FACE_BOUND('',#923,.T.);
#1022=FACE_BOUND('',#924,.T.);
#1023=FACE_BOUND('',#925,.T.);
#1024=FACE_BOUND('',#926,.T.);
#1025=FACE_BOUND('',#927,.T.);
#1026=FACE_BOUND('',#928,.T.);
#1027=FACE_BOUND('',#929,.T.);
#1028=FACE_BOUND('',#930,.T.);
#1029=FACE_BOUND('',#931,.T.);
#1030=FACE_BOUND('',#932,.T.);
#1031=FACE_BOUND('',#933,.T.);
#1032=FACE_BOUND('',#934,.T.);
#1033=FACE_BOUND('',#935,.T.);
#1034=FACE_BOUND('',#936,.T.);
#1035=CYLINDRICAL_SURFACE('',#1177,0.0318);
#1036=CYLINDRICAL_SURFACE('',#1180,0.0064);
#1037=CYLINDRICAL_SURFACE('',#1184,0.0064);
#1038=CYLINDRICAL_SURFACE('',#1188,0.003225);
#1039=CYLINDRICAL_SURFACE('',#1191,0.003225);
#1040=CYLINDRICAL_SURFACE('',#1194,0.0064);
#1041=CYLINDRICAL_SURFACE('',#1201,0.0065105127975674);
#1042=CYLINDRICAL_SURFACE('',#1205,0.0064);
#1043=CYLINDRICAL_SURFACE('',#1209,0.00322159027317534);
#1044=CYLINDRICAL_SURFACE('',#1212,0.003225);
#1045=CYLINDRICAL_SURFACE('',#1219,0.0064);
#1046=CYLINDRICAL_SURFACE('',#1225,0.0318);
#1047=CYLINDRICAL_SURFACE('',#1233,0.00255);
#1048=CYLINDRICAL_SURFACE('',#1237,0.00255);
#1049=CYLINDRICAL_SURFACE('',#1240,0.003225);
#1050=CYLINDRICAL_SURFACE('',#1243,0.003225);
#1051=CYLINDRICAL_SURFACE('',#1248,0.0038);
#1052=CYLINDRICAL_SURFACE('',#1249,0.00125);
#1053=CYLINDRICAL_SURFACE('',#1275,0.003225);
#1054=CYLINDRICAL_SURFACE('',#1287,0.000136298637831931);
#1055=CYLINDRICAL_SURFACE('',#1288,0.000136298637831931);
#1056=CYLINDRICAL_SURFACE('',#1289,0.000136298637831931);
#1057=CYLINDRICAL_SURFACE('',#1290,0.000136298637831931);
#1058=CYLINDRICAL_SURFACE('',#1291,0.000136298637831931);
#1059=CYLINDRICAL_SURFACE('',#1292,0.000136298637831931);
#1060=ADVANCED_FACE('',(#937),#1035,.T.);
#1061=ADVANCED_FACE('',(#938),#1036,.T.);
#1062=ADVANCED_FACE('',(#939),#37,.F.);
#1063=ADVANCED_FACE('',(#940),#1037,.T.);
#1064=ADVANCED_FACE('',(#941),#38,.T.);
#1065=ADVANCED_FACE('',(#942,#943),#1038,.F.);
#1066=ADVANCED_FACE('',(#944,#945),#1039,.F.);
#1067=ADVANCED_FACE('',(#946),#1040,.T.);
#1068=ADVANCED_FACE('',(#947,#948,#949),#39,.T.);
#1069=ADVANCED_FACE('',(#950,#951,#952),#40,.F.);
#1070=ADVANCED_FACE('',(#953),#41,.F.);
#1071=ADVANCED_FACE('',(#954),#1041,.T.);
#1072=ADVANCED_FACE('',(#955),#42,.F.);
#1073=ADVANCED_FACE('',(#956,#957),#1042,.T.);
#1074=ADVANCED_FACE('',(#958,#959),#1043,.F.);
#1075=ADVANCED_FACE('',(#960,#961),#1044,.F.);
#1076=ADVANCED_FACE('',(#962,#963,#964),#43,.T.);
#1077=ADVANCED_FACE('',(#965,#966),#44,.F.);
#1078=ADVANCED_FACE('',(#967,#968),#45,.T.);
#1079=ADVANCED_FACE('',(#969,#970,#971),#1045,.T.);
#1080=ADVANCED_FACE('',(#972,#973),#46,.T.);
#1081=ADVANCED_FACE('',(#974,#975),#1046,.T.);
#1082=ADVANCED_FACE('',(#976,#977,#978),#47,.T.);
#1083=ADVANCED_FACE('',(#979,#980),#48,.F.);
#1084=ADVANCED_FACE('',(#981),#49,.T.);
#1085=ADVANCED_FACE('',(#982),#1047,.F.);
#1086=ADVANCED_FACE('',(#983,#984),#50,.F.);
#1087=ADVANCED_FACE('',(#985),#1048,.F.);
#1088=ADVANCED_FACE('',(#986),#51,.T.);
#1089=ADVANCED_FACE('',(#987,#988),#1049,.F.);
#1090=ADVANCED_FACE('',(#989),#52,.T.);
#1091=ADVANCED_FACE('',(#990,#991),#1050,.F.);
#1092=ADVANCED_FACE('',(#992),#53,.T.);
#1093=ADVANCED_FACE('',(#993),#10,.F.);
#1094=ADVANCED_FACE('',(#994),#54,.F.);
#1095=ADVANCED_FACE('',(#995),#11,.F.);
#1096=ADVANCED_FACE('',(#996),#12,.F.);
#1097=ADVANCED_FACE('',(#997),#55,.F.);
#1098=ADVANCED_FACE('',(#998),#13,.F.);
#1099=ADVANCED_FACE('',(#999,#1000),#1051,.T.);
#1100=ADVANCED_FACE('',(#1001,#1002),#1052,.F.);
#1101=ADVANCED_FACE('',(#1003),#56,.T.);
#1102=ADVANCED_FACE('',(#1004),#57,.F.);
#1103=ADVANCED_FACE('',(#1005),#58,.T.);
#1104=ADVANCED_FACE('',(#1006),#59,.T.);
#1105=ADVANCED_FACE('',(#1007),#60,.F.);
#1106=ADVANCED_FACE('',(#1008,#1009,#1010),#61,.T.);
#1107=ADVANCED_FACE('',(#1011),#62,.F.);
#1108=ADVANCED_FACE('',(#1012),#63,.F.);
#1109=ADVANCED_FACE('',(#1013),#64,.T.);
#1110=ADVANCED_FACE('',(#1014,#1015),#65,.T.);
#1111=ADVANCED_FACE('',(#1016),#66,.F.);
#1112=ADVANCED_FACE('',(#1017,#1018),#1053,.F.);
#1113=ADVANCED_FACE('',(#1019),#67,.T.);
#1114=ADVANCED_FACE('',(#1020),#68,.F.);
#1115=ADVANCED_FACE('',(#1021),#69,.T.);
#1116=ADVANCED_FACE('',(#1022),#70,.T.);
#1117=ADVANCED_FACE('',(#1023),#71,.T.);
#1118=ADVANCED_FACE('',(#1024),#72,.F.);
#1119=ADVANCED_FACE('',(#1025),#73,.F.);
#1120=ADVANCED_FACE('',(#1026),#74,.F.);
#1121=ADVANCED_FACE('',(#1027),#75,.T.);
#1122=ADVANCED_FACE('',(#1028),#76,.T.);
#1123=ADVANCED_FACE('',(#1029),#1054,.T.);
#1124=ADVANCED_FACE('',(#1030),#1055,.T.);
#1125=ADVANCED_FACE('',(#1031),#1056,.T.);
#1126=ADVANCED_FACE('',(#1032),#1057,.T.);
#1127=ADVANCED_FACE('',(#1033),#1058,.T.);
#1128=ADVANCED_FACE('',(#1034),#1059,.T.);
#1129=CLOSED_SHELL('',(#1060,#1061,#1062,#1063,#1064,#1065,#1066,#1067,
#1068,#1069));
#1130=CLOSED_SHELL('',(#1070,#1071,#1072,#1073,#1074,#1075,#1076,#1077,
#1078));
#1131=CLOSED_SHELL('',(#1079,#1080,#1081,#1082,#1083,#1084,#1085,#1086,
#1087,#1088,#1089,#1090,#1091,#1092,#1093,#1094,#1095,#1096,#1097,#1098,
#1099,#1100));
#1132=CLOSED_SHELL('',(#1101,#1102,#1103,#1104,#1105,#1106,#1107,#1108,
#1109,#1110,#1111,#1112,#1113,#1114,#1115,#1116,#1117,#1118,#1119,#1120,
#1121,#1122,#1123,#1124,#1125,#1126,#1127,#1128));
#1133=STYLED_ITEM('',(#1137),#1164);
#1134=STYLED_ITEM('',(#1138),#1165);
#1135=STYLED_ITEM('',(#1139),#1166);
#1136=STYLED_ITEM('',(#1140),#1167);
#1137=PRESENTATION_STYLE_ASSIGNMENT((#1141));
#1138=PRESENTATION_STYLE_ASSIGNMENT((#1142));
#1139=PRESENTATION_STYLE_ASSIGNMENT((#1143));
#1140=PRESENTATION_STYLE_ASSIGNMENT((#1144));
#1141=SURFACE_STYLE_USAGE(.BOTH.,#1145);
#1142=SURFACE_STYLE_USAGE(.BOTH.,#1146);
#1143=SURFACE_STYLE_USAGE(.BOTH.,#1147);
#1144=SURFACE_STYLE_USAGE(.BOTH.,#1148);
#1145=SURFACE_SIDE_STYLE('',(#1149));
#1146=SURFACE_SIDE_STYLE('',(#1150));
#1147=SURFACE_SIDE_STYLE('',(#1151));
#1148=SURFACE_SIDE_STYLE('',(#1152));
#1149=SURFACE_STYLE_FILL_AREA(#1153);
#1150=SURFACE_STYLE_FILL_AREA(#1154);
#1151=SURFACE_STYLE_FILL_AREA(#1155);
#1152=SURFACE_STYLE_FILL_AREA(#1156);
#1153=FILL_AREA_STYLE('',(#1157));
#1154=FILL_AREA_STYLE('',(#1158));
#1155=FILL_AREA_STYLE('',(#1159));
#1156=FILL_AREA_STYLE('',(#1160));
#1157=FILL_AREA_STYLE_COLOUR('',#1161);
#1158=FILL_AREA_STYLE_COLOUR('',#1162);
#1159=FILL_AREA_STYLE_COLOUR('',#1163);
#1160=FILL_AREA_STYLE_COLOUR('',#1163);
#1161=COLOUR_RGB('',0.647058823529412,0.647058823529412,0.647058823529412);
#1162=COLOUR_RGB('',0.231372549019608,0.380392156862745,0.705882352941177);
#1163=COLOUR_RGB('',0.615686274509804,0.811764705882353,0.929411764705882);
#1164=MANIFOLD_SOLID_BREP('Circle Arm',#1129);
#1165=MANIFOLD_SOLID_BREP('Second Arm',#1130);
#1166=MANIFOLD_SOLID_BREP('Cleaning Wheel with step mount',#1131);
#1167=MANIFOLD_SOLID_BREP('Slider Flag',#1132);
#1168=SHAPE_DEFINITION_REPRESENTATION(#2056,#1172);
#1169=SHAPE_DEFINITION_REPRESENTATION(#2057,#1173);
#1170=SHAPE_DEFINITION_REPRESENTATION(#2058,#1174);
#1171=SHAPE_DEFINITION_REPRESENTATION(#2059,#1175);
#1172=SHAPE_REPRESENTATION('Circle Arm',(#1176),#2036);
#1173=SHAPE_REPRESENTATION('Second Arm',(#1199),#2037);
#1174=SHAPE_REPRESENTATION('Cleaning Wheel with step mount',(#1218),#2038);
#1175=SHAPE_REPRESENTATION('Slider Flag',(#1250),#2039);
#1176=AXIS2_PLACEMENT_3D('',#1611,#1293,#1294);
#1177=AXIS2_PLACEMENT_3D('',#1612,#1295,#1296);
#1178=AXIS2_PLACEMENT_3D('',#1613,#1297,#1298);
#1179=AXIS2_PLACEMENT_3D('',#1618,#1300,#1301);
#1180=AXIS2_PLACEMENT_3D('',#1621,#1303,#1304);
#1181=AXIS2_PLACEMENT_3D('',#1622,#1305,#1306);
#1182=AXIS2_PLACEMENT_3D('',#1626,#1308,#1309);
#1183=AXIS2_PLACEMENT_3D('',#1627,#1310,#1311);
#1184=AXIS2_PLACEMENT_3D('',#1633,#1315,#1316);
#1185=AXIS2_PLACEMENT_3D('',#1634,#1317,#1318);
#1186=AXIS2_PLACEMENT_3D('',#1638,#1320,#1321);
#1187=AXIS2_PLACEMENT_3D('',#1639,#1322,#1323);
#1188=AXIS2_PLACEMENT_3D('',#1645,#1327,#1328);
#1189=AXIS2_PLACEMENT_3D('',#1646,#1329,#1330);
#1190=AXIS2_PLACEMENT_3D('',#1648,#1331,#1332);
#1191=AXIS2_PLACEMENT_3D('',#1650,#1333,#1334);
#1192=AXIS2_PLACEMENT_3D('',#1651,#1335,#1336);
#1193=AXIS2_PLACEMENT_3D('',#1653,#1337,#1338);
#1194=AXIS2_PLACEMENT_3D('',#1655,#1339,#1340);
#1195=AXIS2_PLACEMENT_3D('',#1656,#1341,#1342);
#1196=AXIS2_PLACEMENT_3D('',#1657,#1343,#1344);
#1197=AXIS2_PLACEMENT_3D('',#1658,#1345,#1346);
#1198=AXIS2_PLACEMENT_3D('',#1659,#1347,#1348);
#1199=AXIS2_PLACEMENT_3D('',#1660,#1349,#1350);
#1200=AXIS2_PLACEMENT_3D('',#1661,#1351,#1352);
#1201=AXIS2_PLACEMENT_3D('',#1670,#1357,#1358);
#1202=AXIS2_PLACEMENT_3D('',#1671,#1359,#1360);
#1203=AXIS2_PLACEMENT_3D('',#1675,#1362,#1363);
#1204=AXIS2_PLACEMENT_3D('',#1676,#1364,#1365);
#1205=AXIS2_PLACEMENT_3D('',#1682,#1369,#1370);
#1206=AXIS2_PLACEMENT_3D('',#1683,#1371,#1372);
#1207=AXIS2_PLACEMENT_3D('',#1684,#1373,#1374);
#1208=AXIS2_PLACEMENT_3D('',#1685,#1375,#1376);
#1209=AXIS2_PLACEMENT_3D('',#1687,#1377,#1378);
#1210=AXIS2_PLACEMENT_3D('',#1688,#1379,#1380);
#1211=AXIS2_PLACEMENT_3D('',#1690,#1381,#1382);
#1212=AXIS2_PLACEMENT_3D('',#1692,#1383,#1384);
#1213=AXIS2_PLACEMENT_3D('',#1693,#1385,#1386);
#1214=AXIS2_PLACEMENT_3D('',#1695,#1387,#1388);
#1215=AXIS2_PLACEMENT_3D('',#1697,#1389,#1390);
#1216=AXIS2_PLACEMENT_3D('',#1698,#1391,#1392);
#1217=AXIS2_PLACEMENT_3D('',#1699,#1393,#1394);
#1218=AXIS2_PLACEMENT_3D('',#1700,#1395,#1396);
#1219=AXIS2_PLACEMENT_3D('',#1701,#1397,#1398);
#1220=AXIS2_PLACEMENT_3D('',#1702,#1399,#1400);
#1221=AXIS2_PLACEMENT_3D('',#1704,#1401,#1402);
#1222=AXIS2_PLACEMENT_3D('',#1730,#1405,#1406);
#1223=AXIS2_PLACEMENT_3D('',#1731,#1407,#1408);
#1224=AXIS2_PLACEMENT_3D('',#1736,#1410,#1411);
#1225=AXIS2_PLACEMENT_3D('',#1739,#1413,#1414);
#1226=AXIS2_PLACEMENT_3D('',#1740,#1415,#1416);
#1227=AXIS2_PLACEMENT_3D('',#1742,#1417,#1418);
#1228=AXIS2_PLACEMENT_3D('',#1744,#1419,#1420);
#1229=AXIS2_PLACEMENT_3D('',#1745,#1421,#1422);
#1230=AXIS2_PLACEMENT_3D('',#1747,#1423,#1424);
#1231=AXIS2_PLACEMENT_3D('',#1749,#1425,#1426);
#1232=AXIS2_PLACEMENT_3D('',#1750,#1427,#1428);
#1233=AXIS2_PLACEMENT_3D('',#1756,#1432,#1433);
#1234=AXIS2_PLACEMENT_3D('',#1759,#1435,#1436);
#1235=AXIS2_PLACEMENT_3D('',#1760,#1437,#1438);
#1236=AXIS2_PLACEMENT_3D('',#1761,#1439,#1440);
#1237=AXIS2_PLACEMENT_3D('',#1766,#1443,#1444);
#1238=AXIS2_PLACEMENT_3D('',#1767,#1445,#1446);
#1239=AXIS2_PLACEMENT_3D('',#1768,#1447,#1448);
#1240=AXIS2_PLACEMENT_3D('',#1769,#1449,#1450);
#1241=AXIS2_PLACEMENT_3D('',#1770,#1451,#1452);
#1242=AXIS2_PLACEMENT_3D('',#1772,#1453,#1454);
#1243=AXIS2_PLACEMENT_3D('',#1773,#1455,#1456);
#1244=AXIS2_PLACEMENT_3D('',#1774,#1457,#1458);
#1245=AXIS2_PLACEMENT_3D('',#1776,#1459,#1460);
#1246=AXIS2_PLACEMENT_3D('',#1803,#1461,#1462);
#1247=AXIS2_PLACEMENT_3D('',#1852,#1464,#1465);
#1248=AXIS2_PLACEMENT_3D('',#1875,#1467,#1468);
#1249=AXIS2_PLACEMENT_3D('',#1888,#1469,#1470);
#1250=AXIS2_PLACEMENT_3D('',#1889,#1471,#1472);
#1251=AXIS2_PLACEMENT_3D('',#1890,#1473,#1474);
#1252=AXIS2_PLACEMENT_3D('',#1894,#1476,#1477);
#1253=AXIS2_PLACEMENT_3D('',#1898,#1479,#1480);
#1254=AXIS2_PLACEMENT_3D('',#1902,#1482,#1483);
#1255=AXIS2_PLACEMENT_3D('',#1909,#1487,#1488);
#1256=AXIS2_PLACEMENT_3D('',#1913,#1490,#1491);
#1257=AXIS2_PLACEMENT_3D('',#1923,#1496,#1497);
#1258=AXIS2_PLACEMENT_3D('',#1927,#1499,#1500);
#1259=AXIS2_PLACEMENT_3D('',#1928,#1501,#1502);
#1260=AXIS2_PLACEMENT_3D('',#1931,#1505,#1506);
#1261=AXIS2_PLACEMENT_3D('',#1935,#1508,#1509);
#1262=AXIS2_PLACEMENT_3D('',#1945,#1514,#1515);
#1263=AXIS2_PLACEMENT_3D('',#1949,#1517,#1518);
#1264=AXIS2_PLACEMENT_3D('',#1950,#1519,#1520);
#1265=AXIS2_PLACEMENT_3D('',#1954,#1522,#1523);
#1266=AXIS2_PLACEMENT_3D('',#1958,#1525,#1526);
#1267=AXIS2_PLACEMENT_3D('',#1962,#1528,#1529);
#1268=AXIS2_PLACEMENT_3D('',#1969,#1533,#1534);
#1269=AXIS2_PLACEMENT_3D('',#1982,#1543,#1544);
#1270=AXIS2_PLACEMENT_3D('',#1988,#1548,#1549);
#1271=AXIS2_PLACEMENT_3D('',#1994,#1553,#1554);
#1272=AXIS2_PLACEMENT_3D('',#1997,#1557,#1558);
#1273=AXIS2_PLACEMENT_3D('',#1998,#1559,#1560);
#1274=AXIS2_PLACEMENT_3D('',#2000,#1561,#1562);
#1275=AXIS2_PLACEMENT_3D('',#2001,#1563,#1564);
#1276=AXIS2_PLACEMENT_3D('',#2002,#1565,#1566);
#1277=AXIS2_PLACEMENT_3D('',#2004,#1567,#1568);
#1278=AXIS2_PLACEMENT_3D('',#2005,#1569,#1570);
#1279=AXIS2_PLACEMENT_3D('',#2007,#1572,#1573);
#1280=AXIS2_PLACEMENT_3D('',#2009,#1575,#1576);
#1281=AXIS2_PLACEMENT_3D('',#2012,#1579,#1580);
#1282=AXIS2_PLACEMENT_3D('',#2015,#1583,#1584);
#1283=AXIS2_PLACEMENT_3D('',#2018,#1587,#1588);
#1284=AXIS2_PLACEMENT_3D('',#2019,#1589,#1590);
#1285=AXIS2_PLACEMENT_3D('',#2022,#1593,#1594);
#1286=AXIS2_PLACEMENT_3D('',#2025,#1597,#1598);
#1287=AXIS2_PLACEMENT_3D('',#2026,#1599,#1600);
#1288=AXIS2_PLACEMENT_3D('',#2027,#1601,#1602);
#1289=AXIS2_PLACEMENT_3D('',#2028,#1603,#1604);
#1290=AXIS2_PLACEMENT_3D('',#2029,#1605,#1606);
#1291=AXIS2_PLACEMENT_3D('',#2030,#1607,#1608);
#1292=AXIS2_PLACEMENT_3D('',#2031,#1609,#1610);
#1293=DIRECTION('',(0.,0.,1.));
#1294=DIRECTION('',(1.,0.,0.));
#1295=DIRECTION('',(0.,1.,0.));
#1296=DIRECTION('',(0.,0.,1.));
#1297=DIRECTION('',(0.,-1.,0.));
#1298=DIRECTION('',(0.,0.,-1.));
#1299=DIRECTION('',(0.,1.,0.));
#1300=DIRECTION('',(0.,-1.,0.));
#1301=DIRECTION('',(0.,0.,-1.));
#1302=DIRECTION('',(0.,1.,0.));
#1303=DIRECTION('',(0.,1.,0.));
#1304=DIRECTION('',(0.,0.,1.));
#1305=DIRECTION('',(0.,-1.,0.));
#1306=DIRECTION('',(0.,0.,-1.));
#1307=DIRECTION('',(0.,1.,0.));
#1308=DIRECTION('',(0.,-1.,0.));
#1309=DIRECTION('',(0.,0.,-1.));
#1310=DIRECTION('',(1.,0.,0.));
#1311=DIRECTION('',(0.,0.,-1.));
#1312=DIRECTION('',(0.,0.,-1.));
#1313=DIRECTION('',(0.,1.,0.));
#1314=DIRECTION('',(0.,0.,-1.));
#1315=DIRECTION('',(0.,1.,0.));
#1316=DIRECTION('',(0.,0.,1.));
#1317=DIRECTION('',(0.,-1.,0.));
#1318=DIRECTION('',(0.,0.,-1.));
#1319=DIRECTION('',(0.,1.,0.));
#1320=DIRECTION('',(0.,-1.,0.));
#1321=DIRECTION('',(0.,0.,-1.));
#1322=DIRECTION('',(1.,0.,0.));
#1323=DIRECTION('',(0.,0.,-1.));
#1324=DIRECTION('',(0.,0.,-1.));
#1325=DIRECTION('',(0.,1.,0.));
#1326=DIRECTION('',(0.,0.,-1.));
#1327=DIRECTION('',(0.,1.,0.));
#1328=DIRECTION('',(0.,0.,1.));
#1329=DIRECTION('',(0.,-1.,0.));
#1330=DIRECTION('',(0.,0.,-1.));
#1331=DIRECTION('',(0.,-1.,0.));
#1332=DIRECTION('',(0.,0.,-1.));
#1333=DIRECTION('',(0.,1.,0.));
#1334=DIRECTION('',(0.,0.,1.));
#1335=DIRECTION('',(0.,-1.,0.));
#1336=DIRECTION('',(0.,0.,-1.));
#1337=DIRECTION('',(0.,-1.,0.));
#1338=DIRECTION('',(0.,0.,-1.));
#1339=DIRECTION('',(0.,1.,0.));
#1340=DIRECTION('',(0.,0.,1.));
#1341=DIRECTION('',(0.,-1.,0.));
#1342=DIRECTION('',(0.,0.,-1.));
#1343=DIRECTION('',(0.,-1.,0.));
#1344=DIRECTION('',(0.,0.,-1.));
#1345=DIRECTION('',(0.,-1.,0.));
#1346=DIRECTION('',(1.,0.,0.));
#1347=DIRECTION('',(0.,-1.,0.));
#1348=DIRECTION('',(1.,0.,0.));
#1349=DIRECTION('',(0.,0.,1.));
#1350=DIRECTION('',(1.,0.,0.));
#1351=DIRECTION('',(-0.648881475612822,0.,0.760889499603278));
#1352=DIRECTION('',(0.760889499603278,0.,0.648881475612822));
#1353=DIRECTION('',(0.760889499603278,0.,0.648881475612822));
#1354=DIRECTION('',(0.,1.,0.));
#1355=DIRECTION('',(0.760889499603278,0.,0.648881475612822));
#1356=DIRECTION('',(0.,1.,0.));
#1357=DIRECTION('',(0.,1.,0.));
#1358=DIRECTION('',(0.,0.,1.));
#1359=DIRECTION('',(0.,-1.,0.));
#1360=DIRECTION('',(0.,0.,-1.));
#1361=DIRECTION('',(0.,1.,0.));
#1362=DIRECTION('',(0.,-1.,0.));
#1363=DIRECTION('',(0.,0.,-1.));
#1364=DIRECTION('',(0.650426636225636,0.,-0.759569082367235));
#1365=DIRECTION('',(-0.759569082367236,0.,-0.650426636225636));
#1366=DIRECTION('',(-0.759569082367236,0.,-0.650426636225636));
#1367=DIRECTION('',(0.,1.,0.));
#1368=DIRECTION('',(-0.759569082367236,0.,-0.650426636225636));
#1369=DIRECTION('',(0.,1.,0.));
#1370=DIRECTION('',(0.,0.,1.));
#1371=DIRECTION('',(0.,-1.,0.));
#1372=DIRECTION('',(0.,0.,-1.));
#1373=DIRECTION('',(0.,-1.,0.));
#1374=DIRECTION('',(0.,0.,-1.));
#1375=DIRECTION('',(0.,-1.,0.));
#1376=DIRECTION('',(0.,0.,-1.));
#1377=DIRECTION('',(0.,1.,0.));
#1378=DIRECTION('',(0.,0.,1.));
#1379=DIRECTION('',(0.,-1.,0.));
#1380=DIRECTION('',(0.,0.,-1.));
#1381=DIRECTION('',(0.,-1.,0.));
#1382=DIRECTION('',(0.,0.,-1.));
#1383=DIRECTION('',(0.,1.,0.));
#1384=DIRECTION('',(0.,0.,1.));
#1385=DIRECTION('',(0.,-1.,0.));
#1386=DIRECTION('',(0.,0.,-1.));
#1387=DIRECTION('',(0.,-1.,0.));
#1388=DIRECTION('',(0.,0.,-1.));
#1389=DIRECTION('',(0.,-1.,0.));
#1390=DIRECTION('',(1.,0.,0.));
#1391=DIRECTION('',(0.,-1.,0.));
#1392=DIRECTION('',(1.,0.,0.));
#1393=DIRECTION('',(0.,1.,0.));
#1394=DIRECTION('',(-1.,0.,0.));
#1395=DIRECTION('',(0.,0.,1.));
#1396=DIRECTION('',(1.,0.,0.));
#1397=DIRECTION('',(0.,-1.,0.));
#1398=DIRECTION('',(0.,0.,-1.));
#1399=DIRECTION('',(0.,1.,0.));
#1400=DIRECTION('',(0.,0.,1.));
#1401=DIRECTION('',(0.,1.,0.));
#1402=DIRECTION('',(0.,0.,1.));
#1403=DIRECTION('',(0.,1.,0.));
#1404=DIRECTION('',(0.,-1.,0.));
#1405=DIRECTION('',(0.,1.,0.));
#1406=DIRECTION('',(-1.,0.,0.));
#1407=DIRECTION('',(0.,1.,0.));
#1408=DIRECTION('',(0.,0.,1.));
#1409=DIRECTION('',(-1.09207990993632E-16,0.,-1.));
#1410=DIRECTION('',(0.,1.,0.));
#1411=DIRECTION('',(0.,0.,1.));
#1412=DIRECTION('',(1.09207990993632E-16,0.,-1.));
#1413=DIRECTION('',(0.,1.,0.));
#1414=DIRECTION('',(0.,0.,1.));
#1415=DIRECTION('',(0.,-1.,0.));
#1416=DIRECTION('',(0.,0.,-1.));
#1417=DIRECTION('',(0.,-1.,0.));
#1418=DIRECTION('',(0.,0.,-1.));
#1419=DIRECTION('',(0.,-1.,0.));
#1420=DIRECTION('',(1.,0.,0.));
#1421=DIRECTION('',(0.,-1.,0.));
#1422=DIRECTION('',(0.,0.,-1.));
#1423=DIRECTION('',(0.,-1.,0.));
#1424=DIRECTION('',(0.,0.,-1.));
#1425=DIRECTION('',(0.,-1.,0.));
#1426=DIRECTION('',(1.,0.,0.));
#1427=DIRECTION('',(1.,0.,-1.09207990993632E-16));
#1428=DIRECTION('',(-1.09207990993632E-16,0.,-1.));
#1429=DIRECTION('',(0.,1.,0.));
#1430=DIRECTION('',(-1.09207990993632E-16,0.,-1.));
#1431=DIRECTION('',(0.,1.,0.));
#1432=DIRECTION('',(0.,1.,0.));
#1433=DIRECTION('',(0.,0.,1.));
#1434=DIRECTION('',(0.,1.,0.));
#1435=DIRECTION('',(0.,1.,0.));
#1436=DIRECTION('',(0.,0.,1.));
#1437=DIRECTION('',(1.,0.,1.09207990993632E-16));
#1438=DIRECTION('',(1.09207990993632E-16,0.,-1.));
#1439=DIRECTION('',(1.,0.,1.09207990993632E-16));
#1440=DIRECTION('',(1.09207990993632E-16,0.,-1.));
#1441=DIRECTION('',(0.,1.,0.));
#1442=DIRECTION('',(1.09207990993632E-16,0.,-1.));
#1443=DIRECTION('',(0.,1.,0.));
#1444=DIRECTION('',(0.,0.,1.));
#1445=DIRECTION('',(0.,1.,0.));
#1446=DIRECTION('',(0.,0.,1.));
#1447=DIRECTION('',(0.,1.,0.));
#1448=DIRECTION('',(-1.,0.,0.));
#1449=DIRECTION('',(0.,-1.,0.));
#1450=DIRECTION('',(0.,0.,-1.));
#1451=DIRECTION('',(0.,-1.,0.));
#1452=DIRECTION('',(0.,0.,-1.));
#1453=DIRECTION('',(0.,-1.,0.));
#1454=DIRECTION('',(1.,0.,0.));
#1455=DIRECTION('',(0.,-1.,0.));
#1456=DIRECTION('',(0.,0.,-1.));
#1457=DIRECTION('',(0.,-1.,0.));
#1458=DIRECTION('',(0.,0.,-1.));
#1459=DIRECTION('',(0.,-1.,0.));
#1460=DIRECTION('',(1.,0.,0.));
#1461=DIRECTION('',(-0.426028409280778,0.,0.90470978467445));
#1462=DIRECTION('',(0.,-1.,0.));
#1463=DIRECTION('',(0.,-1.,0.));
#1464=DIRECTION('',(-0.41962004619144,0.,-0.907699849528628));
#1465=DIRECTION('',(0.,1.,0.));
#1466=DIRECTION('',(0.,-1.,0.));
#1467=DIRECTION('',(0.,-1.,0.));
#1468=DIRECTION('',(1.,0.,0.));
#1469=DIRECTION('',(1.,0.,0.));
#1470=DIRECTION('',(0.,0.,-1.));
#1471=DIRECTION('',(0.,0.,1.));
#1472=DIRECTION('',(1.,0.,0.));
#1473=DIRECTION('',(0.,-1.,0.));
#1474=DIRECTION('',(0.,0.,-1.));
#1475=DIRECTION('',(0.,0.,1.));
#1476=DIRECTION('',(0.,-1.,0.));
#1477=DIRECTION('',(0.,0.,-1.));
#1478=DIRECTION('',(1.,0.,0.));
#1479=DIRECTION('',(0.,-1.,0.));
#1480=DIRECTION('',(0.,0.,-1.));
#1481=DIRECTION('',(-0.73593101176183,0.,-0.677056530820883));
#1482=DIRECTION('',(0.,-1.,0.));
#1483=DIRECTION('',(0.,0.,-1.));
#1484=DIRECTION('',(-1.,0.,0.));
#1485=DIRECTION('',(0.,0.,1.));
#1486=DIRECTION('',(1.,0.,0.));
#1487=DIRECTION('',(0.,-1.,0.));
#1488=DIRECTION('',(0.,0.,-1.));
#1489=DIRECTION('',(1.,0.,0.));
#1490=DIRECTION('',(0.,-1.,0.));
#1491=DIRECTION('',(0.,0.,-1.));
#1492=DIRECTION('',(0.,0.,1.));
#1493=DIRECTION('',(1.,0.,0.));
#1494=DIRECTION('',(0.,0.,1.));
#1495=DIRECTION('',(-1.,0.,0.));
#1496=DIRECTION('',(0.,-1.,0.));
#1497=DIRECTION('',(0.,0.,-1.));
#1498=DIRECTION('',(-0.73593101176183,0.,-0.677056530820883));
#1499=DIRECTION('',(0.,-1.,0.));
#1500=DIRECTION('',(0.,0.,-1.));
#1501=DIRECTION('',(0.,0.,-1.));
#1502=DIRECTION('',(1.,0.,0.));
#1503=DIRECTION('',(0.,1.,0.));
#1504=DIRECTION('',(0.,-1.,0.));
#1505=DIRECTION('',(0.,-1.,0.));
#1506=DIRECTION('',(0.,0.,-1.));
#1507=DIRECTION('',(1.,0.,0.));
#1508=DIRECTION('',(0.,-1.,0.));
#1509=DIRECTION('',(0.,0.,-1.));
#1510=DIRECTION('',(0.,0.,1.));
#1511=DIRECTION('',(1.,0.,0.));
#1512=DIRECTION('',(0.,0.,1.));
#1513=DIRECTION('',(1.,0.,0.));
#1514=DIRECTION('',(0.,-1.,0.));
#1515=DIRECTION('',(0.,0.,-1.));
#1516=DIRECTION('',(0.735542281617756,0.,-0.67747882029813));
#1517=DIRECTION('',(0.,-1.,0.));
#1518=DIRECTION('',(0.,0.,-1.));
#1519=DIRECTION('',(0.,-1.,0.));
#1520=DIRECTION('',(0.,0.,-1.));
#1521=DIRECTION('',(0.,0.,1.));
#1522=DIRECTION('',(0.,-1.,0.));
#1523=DIRECTION('',(0.,0.,-1.));
#1524=DIRECTION('',(1.,0.,0.));
#1525=DIRECTION('',(0.,-1.,0.));
#1526=DIRECTION('',(0.,0.,-1.));
#1527=DIRECTION('',(0.735542281617756,0.,-0.67747882029813));
#1528=DIRECTION('',(0.,-1.,0.));
#1529=DIRECTION('',(0.,0.,-1.));
#1530=DIRECTION('',(1.,0.,0.));
#1531=DIRECTION('',(0.,0.,1.));
#1532=DIRECTION('',(1.,0.,0.));
#1533=DIRECTION('',(0.,0.,-1.));
#1534=DIRECTION('',(-1.,0.,0.));
#1535=DIRECTION('',(0.,-1.,0.));
#1536=DIRECTION('',(0.,1.,0.));
#1537=DIRECTION('',(0.,1.,0.));
#1538=DIRECTION('',(-1.,0.,0.));
#1539=DIRECTION('',(0.,1.,0.));
#1540=DIRECTION('',(-1.,0.,0.));
#1541=DIRECTION('',(0.,-1.,0.));
#1542=DIRECTION('',(0.,1.,0.));
#1543=DIRECTION('',(-1.,0.,0.));
#1544=DIRECTION('',(0.,0.,1.));
#1545=DIRECTION('',(0.,0.,1.));
#1546=DIRECTION('',(0.,1.,0.));
#1547=DIRECTION('',(0.,0.,1.));
#1548=DIRECTION('',(1.81172164592878E-16,0.,-1.));
#1549=DIRECTION('',(-1.,0.,-1.81172164592878E-16));
#1550=DIRECTION('',(-1.,0.,-1.81172164592878E-16));
#1551=DIRECTION('',(0.,1.,0.));
#1552=DIRECTION('',(-1.,0.,-1.81172164592878E-16));
#1553=DIRECTION('',(-1.,0.,0.));
#1554=DIRECTION('',(0.,0.,1.));
#1555=DIRECTION('',(0.,0.,1.));
#1556=DIRECTION('',(0.,0.,1.));
#1557=DIRECTION('',(0.,-1.,0.));
#1558=DIRECTION('',(1.,0.,0.));
#1559=DIRECTION('',(0.,-1.,0.));
#1560=DIRECTION('',(0.,0.,-1.));
#1561=DIRECTION('',(0.,-1.,0.));
#1562=DIRECTION('',(1.,0.,0.));
#1563=DIRECTION('',(0.,-1.,0.));
#1564=DIRECTION('',(0.,0.,-1.));
#1565=DIRECTION('',(0.,-1.,0.));
#1566=DIRECTION('',(0.,0.,-1.));
#1567=DIRECTION('',(0.,-1.,0.));
#1568=DIRECTION('',(1.,0.,0.));
#1569=DIRECTION('',(1.,0.,0.));
#1570=DIRECTION('',(0.,0.,-1.));
#1571=DIRECTION('',(0.,1.,0.));
#1572=DIRECTION('',(1.,0.,0.));
#1573=DIRECTION('',(0.,0.,-1.));
#1574=DIRECTION('',(0.,1.,0.));
#1575=DIRECTION('',(0.,0.,-1.));
#1576=DIRECTION('',(1.,0.,0.));
#1577=DIRECTION('',(0.,1.,0.));
#1578=DIRECTION('',(0.,-1.,0.));
#1579=DIRECTION('',(-0.67747882029813,0.,-0.735542281617756));
#1580=DIRECTION('',(-0.735542281617756,0.,0.67747882029813));
#1581=DIRECTION('',(0.,-1.,0.));
#1582=DIRECTION('',(0.,-1.,0.));
#1583=DIRECTION('',(0.,0.,-1.));
#1584=DIRECTION('',(-1.,0.,0.));
#1585=DIRECTION('',(0.,-1.,0.));
#1586=DIRECTION('',(0.,-1.,0.));
#1587=DIRECTION('',(1.,0.,0.));
#1588=DIRECTION('',(0.,0.,-1.));
#1589=DIRECTION('',(-0.677056530820883,0.,0.73593101176183));
#1590=DIRECTION('',(0.73593101176183,0.,0.677056530820883));
#1591=DIRECTION('',(0.,-1.,0.));
#1592=DIRECTION('',(0.,-1.,0.));
#1593=DIRECTION('',(0.,0.,1.));
#1594=DIRECTION('',(1.,0.,0.));
#1595=DIRECTION('',(0.,-1.,0.));
#1596=DIRECTION('',(0.,-1.,0.));
#1597=DIRECTION('',(1.,0.,0.));
#1598=DIRECTION('',(0.,0.,-1.));
#1599=DIRECTION('',(0.,1.,0.));
#1600=DIRECTION('',(0.,0.,1.));
#1601=DIRECTION('',(0.,-1.,0.));
#1602=DIRECTION('',(0.,0.,-1.));
#1603=DIRECTION('',(0.,-1.,0.));
#1604=DIRECTION('',(0.,0.,-1.));
#1605=DIRECTION('',(0.,1.,0.));
#1606=DIRECTION('',(0.,0.,1.));
#1607=DIRECTION('',(0.,1.,0.));
#1608=DIRECTION('',(0.,0.,1.));
#1609=DIRECTION('',(0.,1.,0.));
#1610=DIRECTION('',(0.,0.,1.));
#1611=CARTESIAN_POINT('',(0.,0.,0.));
#1612=CARTESIAN_POINT('',(0.,-0.01397,1.94718841064429E-18));
#1613=CARTESIAN_POINT('',(0.,-0.00889,1.94718841064429E-18));
#1614=CARTESIAN_POINT('',(0.00089241527412911,-0.00889,0.0317874754420433));
#1615=CARTESIAN_POINT('',(-0.00089241527412911,-0.00889,0.0317874754420433));
#1616=CARTESIAN_POINT('',(-0.00089241527412911,-0.01397,0.0317874754420433));
#1617=CARTESIAN_POINT('',(-0.00089241527412911,-0.01397,0.0317874754420433));
#1618=CARTESIAN_POINT('',(0.,-0.01397,1.94718841064429E-18));
#1619=CARTESIAN_POINT('',(0.00089241527412911,-0.01397,0.0317874754420433));
#1620=CARTESIAN_POINT('',(0.00089241527412911,-0.01397,0.0317874754420433));
#1621=CARTESIAN_POINT('',(0.,-0.01397,0.02545));
#1622=CARTESIAN_POINT('',(0.,-0.00889,0.02545));
#1623=CARTESIAN_POINT('',(-0.0064,-0.00889,0.02545));
#1624=CARTESIAN_POINT('',(-0.0064,-0.01397,0.02545));
#1625=CARTESIAN_POINT('',(-0.0064,-0.01397,0.02545));
#1626=CARTESIAN_POINT('',(0.,-0.01397,0.02545));
#1627=CARTESIAN_POINT('',(-0.0064,-0.01397,0.012725));
#1628=CARTESIAN_POINT('',(-0.0064,-0.00889,0.012725));
#1629=CARTESIAN_POINT('',(-0.0064,-0.00889,1.35476552155676E-18));
#1630=CARTESIAN_POINT('',(-0.0064,-0.01397,1.35476552155676E-18));
#1631=CARTESIAN_POINT('',(-0.0064,-0.01397,1.35476552155676E-18));
#1632=CARTESIAN_POINT('',(-0.0064,-0.01397,0.012725));
#1633=CARTESIAN_POINT('',(0.,-0.01397,3.25567025763712E-19));
#1634=CARTESIAN_POINT('',(0.,-0.00889,3.25567025763712E-19));
#1635=CARTESIAN_POINT('',(0.0064,-0.00889,0.));
#1636=CARTESIAN_POINT('',(0.0064,-0.01397,0.));
#1637=CARTESIAN_POINT('',(0.0064,-0.01397,0.));
#1638=CARTESIAN_POINT('',(0.,-0.01397,3.25567025763712E-19));
#1639=CARTESIAN_POINT('',(0.0064,-0.01397,0.012725));
#1640=CARTESIAN_POINT('',(0.0064,-0.00889,0.012725));
#1641=CARTESIAN_POINT('',(0.0064,-0.00889,0.02545));
#1642=CARTESIAN_POINT('',(0.0064,-0.01397,0.02545));
#1643=CARTESIAN_POINT('',(0.0064,-0.01397,0.02545));
#1644=CARTESIAN_POINT('',(0.0064,-0.01397,0.012725));
#1645=CARTESIAN_POINT('',(0.,-0.01397,2.14160109000894E-18));
#1646=CARTESIAN_POINT('',(0.,-0.01397,2.14160109000894E-18));
#1647=CARTESIAN_POINT('',(0.,-0.01397,-0.003225));
#1648=CARTESIAN_POINT('',(0.,-0.00889,2.14160109000894E-18));
#1649=CARTESIAN_POINT('',(0.,-0.00889,-0.003225));
#1650=CARTESIAN_POINT('',(0.,-0.01397,0.02535));
#1651=CARTESIAN_POINT('',(0.,-0.01397,0.02535));
#1652=CARTESIAN_POINT('',(0.,-0.01397,0.022125));
#1653=CARTESIAN_POINT('',(0.,-0.00889,0.02535));
#1654=CARTESIAN_POINT('',(0.,-0.00889,0.022125));
#1655=CARTESIAN_POINT('',(0.,-0.01397,0.02545));
#1656=CARTESIAN_POINT('',(0.,-0.00889,0.02545));
#1657=CARTESIAN_POINT('',(0.,-0.01397,0.02545));
#1658=CARTESIAN_POINT('',(0.,-0.01397,2.49999999999973E-5));
#1659=CARTESIAN_POINT('',(0.,-0.00889,2.49999999999973E-5));
#1660=CARTESIAN_POINT('',(0.,0.,0.));
#1661=CARTESIAN_POINT('',(-0.0288335866713321,-0.01905,-0.00779553963120939));
#1662=CARTESIAN_POINT('',(-0.0288335866713321,-0.01397,-0.00779553963120939));
#1663=CARTESIAN_POINT('',(-0.0618917244937458,-0.01397,-0.035987298437717));
#1664=CARTESIAN_POINT('',(0.00422455115108171,-0.01397,0.0203962191752982));
#1665=CARTESIAN_POINT('',(0.00422455115108171,-0.01905,0.0203962191752982));
#1666=CARTESIAN_POINT('',(0.00422455115108171,-0.01905,0.0203962191752982));
#1667=CARTESIAN_POINT('',(-0.0288335866713321,-0.01905,-0.00779553963120939));
#1668=CARTESIAN_POINT('',(-0.0618917244937458,-0.01905,-0.035987298437717));
#1669=CARTESIAN_POINT('',(-0.0618917244937458,-0.01905,-0.035987298437717));
#1670=CARTESIAN_POINT('',(3.46944695195361E-18,-0.01905,0.02535));
#1671=CARTESIAN_POINT('',(3.46944695195361E-18,-0.01397,0.02535));
#1672=CARTESIAN_POINT('',(-0.00504651253395098,-0.01397,0.0294633305400812));
#1673=CARTESIAN_POINT('',(-0.00504651253395098,-0.01905,0.0294633305400812));
#1674=CARTESIAN_POINT('',(-0.00504651253395098,-0.01905,0.0294633305400812));
#1675=CARTESIAN_POINT('',(3.46944695195361E-18,-0.01905,0.02535));
#1676=CARTESIAN_POINT('',(-0.0379428366714961,-0.01905,0.00129387768888307));
#1677=CARTESIAN_POINT('',(-0.0379428366714961,-0.01397,0.00129387768888307));
#1678=CARTESIAN_POINT('',(-0.0708391608090412,-0.01397,-0.026875575162315));
#1679=CARTESIAN_POINT('',(-0.0708391608090412,-0.01905,-0.026875575162315));
#1680=CARTESIAN_POINT('',(-0.0708391608090412,-0.01905,-0.026875575162315));
#1681=CARTESIAN_POINT('',(-0.0379428366714961,-0.01905,0.00129387768888307));
#1682=CARTESIAN_POINT('',(-0.0666764303371971,-0.01905,-0.0317368172894653));
#1683=CARTESIAN_POINT('',(-0.0666764303371971,-0.01397,-0.0317368172894653));
#1684=CARTESIAN_POINT('',(-0.0666764303371971,-0.01905,-0.0317368172894653));
#1685=CARTESIAN_POINT('',(-0.0666764303371971,-0.00381,-0.0317368172894653));
#1686=CARTESIAN_POINT('',(-0.0666764303371971,-0.00381,-0.0381368172894653));
#1687=CARTESIAN_POINT('',(0.,-0.01905,0.02535));
#1688=CARTESIAN_POINT('',(0.,-0.01905,0.02535));
#1689=CARTESIAN_POINT('',(0.,-0.01905,0.0221284097268247));
#1690=CARTESIAN_POINT('',(0.,-0.01397,0.02535));
#1691=CARTESIAN_POINT('',(0.,-0.01397,0.0221284097268247));
#1692=CARTESIAN_POINT('',(-0.0666764303371971,-0.01905,-0.0317368172894653));
#1693=CARTESIAN_POINT('',(-0.0666764303371971,-0.01905,-0.0317368172894653));
#1694=CARTESIAN_POINT('',(-0.0666764303371971,-0.01905,-0.0349618172894653));
#1695=CARTESIAN_POINT('',(-0.0666764303371971,-0.00381,-0.0317368172894653));
#1696=CARTESIAN_POINT('',(-0.0666764303371971,-0.00381,-0.0349618172894653));
#1697=CARTESIAN_POINT('',(-0.0332829587698148,-0.01905,-0.00313815224594896));
#1698=CARTESIAN_POINT('',(-0.0332829587698148,-0.01397,-0.00313815224594896));
#1699=CARTESIAN_POINT('',(-0.0332829587698148,-0.00381,-0.00313815224594896));
#1700=CARTESIAN_POINT('',(0.,0.,0.));
#1701=CARTESIAN_POINT('',(0.,0.00762,3.91886975727153E-19));
#1702=CARTESIAN_POINT('',(0.,0.,3.91886975727153E-19));
#1703=CARTESIAN_POINT('',(0.,0.,0.0064));
#1704=CARTESIAN_POINT('',(0.,0.00762,3.91886975727153E-19));
#1705=CARTESIAN_POINT('',(0.,0.00762,0.0064));
#1706=CARTESIAN_POINT('',(0.00580927903698322,0.00535794399198316,-0.00268556829562522));
#1707=CARTESIAN_POINT('',(0.00620008517333618,0.00589564954268843,-0.00184019716909756));
#1708=CARTESIAN_POINT('',(0.00640325300478379,0.0064333550933937,-0.000908698373777098));
#1709=CARTESIAN_POINT('',(0.00639995999379071,0.00697106064409897,2.26291378193211E-5));
#1710=CARTESIAN_POINT('',(0.00580927903698322,0.00535794399198316,-0.00268556829562522));
#1711=CARTESIAN_POINT('',(0.00639995999379071,0.00697106064409898,2.26291378193212E-5));
#1712=CARTESIAN_POINT('',(0.00580927903698322,0.00374482733986734,-0.00268556829562522));
#1713=CARTESIAN_POINT('',(0.00580927903698322,0.00213171068775153,-0.00268556829562522));
#1714=CARTESIAN_POINT('',(0.00639995999379071,0.000518594035635715,2.26291378193231E-5));
#1715=CARTESIAN_POINT('',(0.00640325300478379,0.00105629958634099,-0.000908698373777096));
#1716=CARTESIAN_POINT('',(0.00620008517333618,0.00159400513704626,-0.00184019716909756));
#1717=CARTESIAN_POINT('',(0.00580927903698322,0.00213171068775153,-0.00268556829562522));
#1718=CARTESIAN_POINT('',(0.00639995999379071,0.000518594035635716,2.26291378193231E-5));
#1719=CARTESIAN_POINT('',(0.00579014262191648,0.00213171068775153,0.00272658181939698));
#1720=CARTESIAN_POINT('',(0.00618691708042664,0.00159400513704626,0.00188399543993684));
#1721=CARTESIAN_POINT('',(0.00639666698279762,0.00105629958634099,0.000953956649415742));
#1722=CARTESIAN_POINT('',(0.00639995999379071,0.000518594035635715,2.26291378193225E-5));
#1723=CARTESIAN_POINT('',(0.00579014262191648,0.00213171068775153,0.00272658181939698));
#1724=CARTESIAN_POINT('',(0.00579014262191648,0.00374482733986734,0.00272658181939698));
#1725=CARTESIAN_POINT('',(0.00579014262191648,0.00535794399198316,0.00272658181939698));
#1726=CARTESIAN_POINT('',(0.00639995999379071,0.00697106064409897,2.26291378193214E-5));
#1727=CARTESIAN_POINT('',(0.00639666698279762,0.0064333550933937,0.00095395664941574));
#1728=CARTESIAN_POINT('',(0.00618691708042664,0.00589564954268843,0.00188399543993684));
#1729=CARTESIAN_POINT('',(0.00579014262191648,0.00535794399198316,0.00272658181939698));
#1730=CARTESIAN_POINT('',(0.,0.00762,0.));
#1731=CARTESIAN_POINT('',(-4.33680868994202E-19,0.00762,4.33680868994202E-19));
#1732=CARTESIAN_POINT('',(-0.0016,0.00762,0.00198557296516648));
#1733=CARTESIAN_POINT('',(0.0016,0.00762,0.00198557296516648));
#1734=CARTESIAN_POINT('',(-0.0016,0.00762,0.));
#1735=CARTESIAN_POINT('',(-0.0016,0.00762,-0.00198557296516648));
#1736=CARTESIAN_POINT('',(-1.0842021724855E-19,0.00762,8.67361737988404E-19));
#1737=CARTESIAN_POINT('',(0.0016,0.00762,-0.00198557296516648));
#1738=CARTESIAN_POINT('',(0.0016,0.00762,0.));
#1739=CARTESIAN_POINT('',(0.,-0.00889,1.94718841064429E-18));
#1740=CARTESIAN_POINT('',(0.,-0.00889,1.94718841064429E-18));
#1741=CARTESIAN_POINT('',(0.,-0.00889,-0.0318));
#1742=CARTESIAN_POINT('',(0.,0.,1.94718841064429E-18));
#1743=CARTESIAN_POINT('',(0.,0.,-0.0318));
#1744=CARTESIAN_POINT('',(-0.022225,-0.00889,-0.00435887052118779));
#1745=CARTESIAN_POINT('',(0.,-0.00889,0.02535));
#1746=CARTESIAN_POINT('',(0.,-0.00889,0.022125));
#1747=CARTESIAN_POINT('',(0.,-0.00889,2.14160109000894E-18));
#1748=CARTESIAN_POINT('',(0.,-0.00889,-0.003225));
#1749=CARTESIAN_POINT('',(-0.022225,0.,-0.00435887052118779));
#1750=CARTESIAN_POINT('',(-0.0016,0.00162,0.));
#1751=CARTESIAN_POINT('',(-0.0016,0.00162,0.00198557296516648));
#1752=CARTESIAN_POINT('',(-0.0016,0.00162,0.00198557296516648));
#1753=CARTESIAN_POINT('',(-0.0016,0.00162,0.));
#1754=CARTESIAN_POINT('',(-0.0016,0.00162,-0.00198557296516648));
#1755=CARTESIAN_POINT('',(-0.0016,0.00162,-0.00198557296516648));
#1756=CARTESIAN_POINT('',(-4.33680868994202E-19,0.00162,4.33680868994202E-19));
#1757=CARTESIAN_POINT('',(0.0016,0.00162,0.00198557296516648));
#1758=CARTESIAN_POINT('',(0.0016,0.00162,0.00198557296516648));
#1759=CARTESIAN_POINT('',(-4.33680868994202E-19,0.00162,4.33680868994202E-19));
#1760=CARTESIAN_POINT('',(0.0016,0.00162,0.));
#1761=CARTESIAN_POINT('',(0.0016,0.00374482733986734,2.26291849707945E-5));
#1762=CARTESIAN_POINT('',(0.0016,0.00374482733986734,-0.00122737081502921));
#1763=CARTESIAN_POINT('',(0.0016,0.00162,-0.00198557296516648));
#1764=CARTESIAN_POINT('',(0.0016,0.00162,-0.00198557296516648));
#1765=CARTESIAN_POINT('',(0.0016,0.00162,0.));
#1766=CARTESIAN_POINT('',(-1.0842021724855E-19,0.00162,8.67361737988404E-19));
#1767=CARTESIAN_POINT('',(-1.0842021724855E-19,0.00162,8.67361737988404E-19));
#1768=CARTESIAN_POINT('',(0.,0.00162,0.));
#1769=CARTESIAN_POINT('',(0.,-0.00381,2.14160109000894E-18));
#1770=CARTESIAN_POINT('',(0.,-0.00381,2.14160109000894E-18));
#1771=CARTESIAN_POINT('',(0.,-0.00381,-0.003225));
#1772=CARTESIAN_POINT('',(0.,-0.00381,0.));
#1773=CARTESIAN_POINT('',(0.,-0.00381,0.02535));
#1774=CARTESIAN_POINT('',(0.,-0.00381,0.02535));
#1775=CARTESIAN_POINT('',(0.,-0.00381,0.022125));
#1776=CARTESIAN_POINT('',(0.,-0.00381,0.));
#1777=CARTESIAN_POINT('',(0.00639995999379071,0.00697106064409898,2.26291378193214E-5));
#1778=CARTESIAN_POINT('',(0.00639831346690952,0.00670220437691398,0.000488298941610782));
#1779=CARTESIAN_POINT('',(0.00634564337668985,0.0064333550933937,0.000953758659366538));
#1780=CARTESIAN_POINT('',(0.00614074769061548,0.00589564954268843,0.00186227367608662));
#1781=CARTESIAN_POINT('',(0.00598853242780461,0.00562680025916815,0.00230528315795404));
#1782=CARTESIAN_POINT('',(0.00579014262191648,0.00535794399198316,0.00272658181939698));
#1783=CARTESIAN_POINT('',(0.00379997624631324,0.00697106064409898,1.34360505802222E-5));
#1784=CARTESIAN_POINT('',(0.00379899862497288,0.00670220547567281,0.000289926366619205));
#1785=CARTESIAN_POINT('',(0.0037677257549096,0.0064333550933937,0.000566294203998882));
#1786=CARTESIAN_POINT('',(0.00364606894130294,0.00589564954268843,0.00110572499517643));
#1787=CARTESIAN_POINT('',(0.00355569064760998,0.00562679916040933,0.00136876289732945));
#1788=CARTESIAN_POINT('',(0.00343789718176291,0.00535794399198316,0.00161890795526696));
#1789=CARTESIAN_POINT('',(0.00639995999379071,0.00697106064409898,2.26291378193214E-5));
#1790=CARTESIAN_POINT('',(0.00553329874463155,0.00697106064409898,1.95647754062883E-5));
#1791=CARTESIAN_POINT('',(0.00466663749547239,0.00697106064409898,1.65004129932553E-5));
#1792=CARTESIAN_POINT('',(0.00379997624631324,0.00697106064409898,1.34360505802222E-5));
#1793=CARTESIAN_POINT('',(0.00379997624631324,0.00697106064409898,1.34360505802221E-5));
#1794=CARTESIAN_POINT('',(0.00579014262191648,0.00535794399198316,0.00272658181939698));
#1795=CARTESIAN_POINT('',(0.00500606080853196,0.00535794399198316,0.00235735719802031));
#1796=CARTESIAN_POINT('',(0.00422197899514743,0.00535794399198316,0.00198813257664363));
#1797=CARTESIAN_POINT('',(0.00343789718176291,0.00535794399198316,0.00161890795526696));
#1798=CARTESIAN_POINT('',(0.00343789718176291,0.00535794399198316,0.00161890795526696));
#1799=CARTESIAN_POINT('',(0.00379997624631323,0.00697106064409897,1.34360505802222E-5));
#1800=CARTESIAN_POINT('',(0.00379802102103609,0.0064333550933937,0.000566411760590596));
#1801=CARTESIAN_POINT('',(0.00367348201650332,0.00589564954268843,0.0011186222924625));
#1802=CARTESIAN_POINT('',(0.00343789718176291,0.00535794399198316,0.00161890795526696));
#1803=CARTESIAN_POINT('',(0.00579014262191648,0.00374482733986734,0.00272658181939698));
#1804=CARTESIAN_POINT('',(0.00343789718176291,0.00213171068775153,0.00161890795526696));
#1805=CARTESIAN_POINT('',(0.00422197899514743,0.00213171068775153,0.00198813257664363));
#1806=CARTESIAN_POINT('',(0.00500606080853196,0.00213171068775153,0.00235735719802031));
#1807=CARTESIAN_POINT('',(0.00579014262191648,0.00213171068775153,0.00272658181939698));
#1808=CARTESIAN_POINT('',(0.00343789718176291,0.00213171068775153,0.00161890795526696));
#1809=CARTESIAN_POINT('',(0.00343789718176291,0.00374482733986734,0.00161890795526696));
#1810=CARTESIAN_POINT('',(0.00579014262191648,0.00213171068775153,0.00272658181939698));
#1811=CARTESIAN_POINT('',(0.00598853242780461,0.00186285442056654,0.00230528315795404));
#1812=CARTESIAN_POINT('',(0.00614074769061547,0.00159400513704626,0.00186227367608662));
#1813=CARTESIAN_POINT('',(0.00634564337668985,0.00105629958634099,0.00095375865936654));
#1814=CARTESIAN_POINT('',(0.00639831346690952,0.00078745030282071,0.000488298941610781));
#1815=CARTESIAN_POINT('',(0.00639995999379071,0.000518594035635716,2.26291378193225E-5));
#1816=CARTESIAN_POINT('',(0.00343789718176291,0.00213171068775153,0.00161890795526696));
#1817=CARTESIAN_POINT('',(0.00355569064760998,0.00186285551932537,0.00136876289732945));
#1818=CARTESIAN_POINT('',(0.00364606894130294,0.00159400513704626,0.00110572499517643));
#1819=CARTESIAN_POINT('',(0.0037677257549096,0.00105629958634099,0.000566294203998883));
#1820=CARTESIAN_POINT('',(0.00379899862497288,0.000787449204061881,0.000289926366619207));
#1821=CARTESIAN_POINT('',(0.00379997624631324,0.000518594035635716,1.34360505802229E-5));
#1822=CARTESIAN_POINT('',(0.00379997624631324,0.000518594035635716,1.34360505802229E-5));
#1823=CARTESIAN_POINT('',(0.00466663749547239,0.000518594035635716,1.65004129932561E-5));
#1824=CARTESIAN_POINT('',(0.00553329874463155,0.000518594035635716,1.95647754062893E-5));
#1825=CARTESIAN_POINT('',(0.00639995999379071,0.000518594035635716,2.26291378193225E-5));
#1826=CARTESIAN_POINT('',(0.00379997624631324,0.000518594035635716,1.34360505802233E-5));
#1827=CARTESIAN_POINT('',(0.00343789718176291,0.00213171068775153,0.00161890795526696));
#1828=CARTESIAN_POINT('',(0.00367348201650332,0.00159400513704626,0.0011186222924625));
#1829=CARTESIAN_POINT('',(0.00379802102103609,0.00105629958634099,0.000566411760590597));
#1830=CARTESIAN_POINT('',(0.00379997624631323,0.000518594035635715,1.34360505802229E-5));
#1831=CARTESIAN_POINT('',(0.00639995999379071,0.000518594035635716,2.26291378193231E-5));
#1832=CARTESIAN_POINT('',(0.00640160652067189,0.000787450302820709,-0.000443040665972136));
#1833=CARTESIAN_POINT('',(0.00635222927436141,0.00105629958634099,-0.00090886120524001));
#1834=CARTESIAN_POINT('',(0.00615376333114932,0.00159400513704626,-0.00181880243804723));
#1835=CARTESIAN_POINT('',(0.00600468464303477,0.00186285442056654,-0.00226287724256451));
#1836=CARTESIAN_POINT('',(0.00580927903698322,0.00213171068775153,-0.00268556829562522));
#1837=CARTESIAN_POINT('',(0.00379997624631324,0.000518594035635716,1.34360505802233E-5));
#1838=CARTESIAN_POINT('',(0.00380095386765359,0.00078744920406188,-0.000263054265458762));
#1839=CARTESIAN_POINT('',(0.00377163613165209,0.00105629958634099,-0.000539636340611256));
#1840=CARTESIAN_POINT('',(0.0036537969778699,0.00159400513704626,-0.00107991394759054));
#1841=CARTESIAN_POINT('',(0.00356528103264414,0.00186285551932536,-0.0013435843884456));
#1842=CARTESIAN_POINT('',(0.00344925942820879,0.00213171068775153,-0.00159455617552747));
#1843=CARTESIAN_POINT('',(0.00580927903698322,0.00213171068775153,-0.00268556829562522));
#1844=CARTESIAN_POINT('',(0.00502260583405841,0.00213171068775153,-0.00232189758892597));
#1845=CARTESIAN_POINT('',(0.0042359326311336,0.00213171068775153,-0.00195822688222672));
#1846=CARTESIAN_POINT('',(0.00344925942820879,0.00213171068775153,-0.00159455617552747));
#1847=CARTESIAN_POINT('',(0.00344925942820879,0.00213171068775153,-0.00159455617552747));
#1848=CARTESIAN_POINT('',(0.00379997624631323,0.000518594035635715,1.34360505802233E-5));
#1849=CARTESIAN_POINT('',(0.00380193147159037,0.00105629958634099,-0.000539539659430151));
#1850=CARTESIAN_POINT('',(0.00368130057166836,0.00159400513704626,-0.00109261706915167));
#1851=CARTESIAN_POINT('',(0.00344925942820878,0.00213171068775153,-0.00159455617552747));
#1852=CARTESIAN_POINT('',(0.00580927903698322,0.00374482733986734,-0.00268556829562522));
#1853=CARTESIAN_POINT('',(0.00344925942820879,0.00535794399198316,-0.00159455617552747));
#1854=CARTESIAN_POINT('',(0.0042359326311336,0.00535794399198316,-0.00195822688222672));
#1855=CARTESIAN_POINT('',(0.00502260583405841,0.00535794399198316,-0.00232189758892597));
#1856=CARTESIAN_POINT('',(0.00580927903698322,0.00535794399198316,-0.00268556829562522));
#1857=CARTESIAN_POINT('',(0.00344925942820879,0.00535794399198316,-0.00159455617552747));
#1858=CARTESIAN_POINT('',(0.00344925942820879,0.00374482733986734,-0.00159455617552747));
#1859=CARTESIAN_POINT('',(0.00580927903698322,0.00535794399198316,-0.00268556829562522));
#1860=CARTESIAN_POINT('',(0.00600468464303477,0.00562680025916816,-0.00226287724256451));
#1861=CARTESIAN_POINT('',(0.00615376333114932,0.00589564954268843,-0.00181880243804723));
#1862=CARTESIAN_POINT('',(0.00635222927436141,0.0064333550933937,-0.000908861205240011));
#1863=CARTESIAN_POINT('',(0.00640160652067189,0.00670220437691398,-0.000443040665972138));
#1864=CARTESIAN_POINT('',(0.00639995999379071,0.00697106064409898,2.26291378193212E-5));
#1865=CARTESIAN_POINT('',(0.00344925942820879,0.00535794399198316,-0.00159455617552747));
#1866=CARTESIAN_POINT('',(0.00356528103264414,0.00562679916040933,-0.0013435843884456));
#1867=CARTESIAN_POINT('',(0.0036537969778699,0.00589564954268843,-0.00107991394759054));
#1868=CARTESIAN_POINT('',(0.00377163613165209,0.0064333550933937,-0.000539636340611257));
#1869=CARTESIAN_POINT('',(0.00380095386765359,0.00670220547567281,-0.000263054265458762));
#1870=CARTESIAN_POINT('',(0.00379997624631324,0.00697106064409898,1.34360505802221E-5));
#1871=CARTESIAN_POINT('',(0.00344925942820878,0.00535794399198316,-0.00159455617552747));
#1872=CARTESIAN_POINT('',(0.00368130057166836,0.00589564954268843,-0.00109261706915167));
#1873=CARTESIAN_POINT('',(0.00380193147159037,0.0064333550933937,-0.000539539659430152));
#1874=CARTESIAN_POINT('',(0.00379997624631323,0.00697106064409897,1.34360505802221E-5));
#1875=CARTESIAN_POINT('',(-8.67361737988404E-19,0.00374482733986734,3.91886975727153E-19));
#1876=CARTESIAN_POINT('',(0.00370322389213113,0.00276488682572655,-0.000956727462927901));
#1877=CARTESIAN_POINT('',(0.00354287663405583,0.00374483150769517,-0.00136279598961535));
#1878=CARTESIAN_POINT('',(0.00370322572525109,0.00472475118269686,-0.000956313468785918));
#1879=CARTESIAN_POINT('',(0.00385131973818369,0.00513022617688417,2.23222424109662E-5));
#1880=CARTESIAN_POINT('',(0.00369108932219846,0.00472330814340462,0.0010030885530237));
#1881=CARTESIAN_POINT('',(0.0035253047225582,0.00374573672212516,0.00140746716420969));
#1882=CARTESIAN_POINT('',(0.0036910562709483,0.00276600400430952,0.00100281717616192));
#1883=CARTESIAN_POINT('',(0.00385131960566567,0.00235951892227857,2.39461275837065E-5));
#1884=CARTESIAN_POINT('',(0.00370322389213113,0.00276488682572655,-0.000956727462927901));
#1885=CARTESIAN_POINT('',(0.00354287663405583,0.00374483150769517,-0.00136279598961535));
#1886=CARTESIAN_POINT('',(0.00370322572525109,0.00472475118269686,-0.000956313468785918));
#1887=CARTESIAN_POINT('',(0.00359632602560092,0.00374482733986734,-0.0012273708150292));
#1888=CARTESIAN_POINT('',(0.,0.00374482733986734,2.26291849707945E-5));
#1889=CARTESIAN_POINT('',(0.,0.,0.));
#1890=CARTESIAN_POINT('',(-0.061595,-0.0060325,-0.05085));
#1891=CARTESIAN_POINT('',(-0.064135,-0.0060325,-0.05085));
#1892=CARTESIAN_POINT('',(-0.064135,-0.0060325,-0.0507137013621681));
#1893=CARTESIAN_POINT('',(-0.064135,-0.0060325,-0.0445));
#1894=CARTESIAN_POINT('',(-0.0639987013621681,-0.0060325,-0.0507137013621681));
#1895=CARTESIAN_POINT('',(-0.0639987013621681,-0.0060325,-0.05085));
#1896=CARTESIAN_POINT('',(-0.061595,-0.0060325,-0.05085));
#1897=CARTESIAN_POINT('',(-0.0616481598792007,-0.0060325,-0.05085));
#1898=CARTESIAN_POINT('',(-0.0616481598792007,-0.0060325,-0.0507137013621681));
#1899=CARTESIAN_POINT('',(-0.0615558779963146,-0.0060325,-0.0508140077566095));
#1900=CARTESIAN_POINT('',(-0.060325,-0.0060325,-0.0496816));
#1901=CARTESIAN_POINT('',(-0.0593121793829058,-0.0060325,-0.0487498050322734));
#1902=CARTESIAN_POINT('',(-0.0594044612657919,-0.0060325,-0.0486494986378319));
#1903=CARTESIAN_POINT('',(-0.0594044612657919,-0.0060325,-0.0485132));
#1904=CARTESIAN_POINT('',(-0.060325,-0.0060325,-0.0485132));
#1905=CARTESIAN_POINT('',(-0.061595,-0.0060325,-0.0485132));
#1906=CARTESIAN_POINT('',(-0.061595,-0.0060325,-0.0465066));
#1907=CARTESIAN_POINT('',(-0.061595,-0.0060325,-0.0445));
#1908=CARTESIAN_POINT('',(-0.061595,-0.0060325,-0.0445));
#1909=CARTESIAN_POINT('',(-0.061595,-0.0028575,-0.05085));
#1910=CARTESIAN_POINT('',(-0.061595,-0.0028575,-0.05085));
#1911=CARTESIAN_POINT('',(-0.0639987013621681,-0.0028575,-0.05085));
#1912=CARTESIAN_POINT('',(-0.0616481598792007,-0.0028575,-0.05085));
#1913=CARTESIAN_POINT('',(-0.0639987013621681,-0.0028575,-0.0507137013621681));
#1914=CARTESIAN_POINT('',(-0.064135,-0.0028575,-0.0507137013621681));
#1915=CARTESIAN_POINT('',(-0.064135,-0.0028575,-0.05085));
#1916=CARTESIAN_POINT('',(-0.064135,-0.0028575,-0.0445));
#1917=CARTESIAN_POINT('',(-0.061595,-0.0028575,-0.0445));
#1918=CARTESIAN_POINT('',(-0.061595,-0.0028575,-0.0445));
#1919=CARTESIAN_POINT('',(-0.061595,-0.0028575,-0.05085));
#1920=CARTESIAN_POINT('',(-0.061595,-0.0028575,-0.0485132));
#1921=CARTESIAN_POINT('',(-0.061595,-0.0028575,-0.0485132));
#1922=CARTESIAN_POINT('',(-0.0594044612657919,-0.0028575,-0.0485132));
#1923=CARTESIAN_POINT('',(-0.0594044612657919,-0.0028575,-0.0486494986378319));
#1924=CARTESIAN_POINT('',(-0.0593121793829058,-0.0028575,-0.0487498050322734));
#1925=CARTESIAN_POINT('',(-0.061595,-0.0028575,-0.05085));
#1926=CARTESIAN_POINT('',(-0.0615558779963146,-0.0028575,-0.0508140077566095));
#1927=CARTESIAN_POINT('',(-0.0616481598792007,-0.0028575,-0.0507137013621681));
#1928=CARTESIAN_POINT('',(-0.066675,-0.004445,-0.05085));
#1929=CARTESIAN_POINT('',(-0.0639987013621681,-0.0028575,-0.05085));
#1930=CARTESIAN_POINT('',(-0.0616481598792007,-0.0060325,-0.05085));
#1931=CARTESIAN_POINT('',(-0.071755,-0.0060325,-0.05085));
#1932=CARTESIAN_POINT('',(-0.071755,-0.0060325,-0.05085));
#1933=CARTESIAN_POINT('',(-0.0717017950499711,-0.0060325,-0.05085));
#1934=CARTESIAN_POINT('',(-0.0693512986378319,-0.0060325,-0.05085));
#1935=CARTESIAN_POINT('',(-0.0693512986378319,-0.0060325,-0.0507137013621681));
#1936=CARTESIAN_POINT('',(-0.069215,-0.0060325,-0.0507137013621681));
#1937=CARTESIAN_POINT('',(-0.069215,-0.0060325,-0.05085));
#1938=CARTESIAN_POINT('',(-0.069215,-0.0060325,-0.0445));
#1939=CARTESIAN_POINT('',(-0.071755,-0.0060325,-0.0445));
#1940=CARTESIAN_POINT('',(-0.071755,-0.0060325,-0.0445));
#1941=CARTESIAN_POINT('',(-0.071755,-0.0060325,-0.0465052533745766));
#1942=CARTESIAN_POINT('',(-0.071755,-0.0060325,-0.0485105067491531));
#1943=CARTESIAN_POINT('',(-0.073025,-0.0060325,-0.0485105067491531));
#1944=CARTESIAN_POINT('',(-0.0739458347688565,-0.0060325,-0.0485105067491531));
#1945=CARTESIAN_POINT('',(-0.0739458347688565,-0.0060325,-0.0486468053869851));
#1946=CARTESIAN_POINT('',(-0.0740381742092231,-0.0060325,-0.0487470587980374));
#1947=CARTESIAN_POINT('',(-0.073025,-0.0060325,-0.0496802533745766));
#1948=CARTESIAN_POINT('',(-0.0717941344903377,-0.0060325,-0.0508139547732204));
#1949=CARTESIAN_POINT('',(-0.0717017950499711,-0.0060325,-0.0507137013621681));
#1950=CARTESIAN_POINT('',(-0.071755,-0.0028575,-0.05085));
#1951=CARTESIAN_POINT('',(-0.069215,-0.0028575,-0.05085));
#1952=CARTESIAN_POINT('',(-0.069215,-0.0028575,-0.0507137013621681));
#1953=CARTESIAN_POINT('',(-0.069215,-0.0028575,-0.0445));
#1954=CARTESIAN_POINT('',(-0.0693512986378319,-0.0028575,-0.0507137013621681));
#1955=CARTESIAN_POINT('',(-0.0693512986378319,-0.0028575,-0.05085));
#1956=CARTESIAN_POINT('',(-0.071755,-0.0028575,-0.05085));
#1957=CARTESIAN_POINT('',(-0.0717017950499711,-0.0028575,-0.05085));
#1958=CARTESIAN_POINT('',(-0.0717017950499711,-0.0028575,-0.0507137013621681));
#1959=CARTESIAN_POINT('',(-0.0717941344903377,-0.0028575,-0.0508139547732204));
#1960=CARTESIAN_POINT('',(-0.071755,-0.0028575,-0.05085));
#1961=CARTESIAN_POINT('',(-0.0740381742092231,-0.0028575,-0.0487470587980374));
#1962=CARTESIAN_POINT('',(-0.0739458347688565,-0.0028575,-0.0486468053869851));
#1963=CARTESIAN_POINT('',(-0.0739458347688565,-0.0028575,-0.0485105067491531));
#1964=CARTESIAN_POINT('',(-0.071755,-0.0028575,-0.0485105067491531));
#1965=CARTESIAN_POINT('',(-0.071755,-0.0028575,-0.0485105067491531));
#1966=CARTESIAN_POINT('',(-0.071755,-0.0028575,-0.05085));
#1967=CARTESIAN_POINT('',(-0.071755,-0.0028575,-0.0445));
#1968=CARTESIAN_POINT('',(-0.071755,-0.0028575,-0.0445));
#1969=CARTESIAN_POINT('',(-0.066675,-0.00889,-0.0445));
#1970=CARTESIAN_POINT('',(-0.061595,0.132639392123382,-0.0445));
#1971=CARTESIAN_POINT('',(-0.064135,-0.004445,-0.0445));
#1972=CARTESIAN_POINT('',(-0.07625,-0.00889,-0.0445));
#1973=CARTESIAN_POINT('',(-0.07625,-0.00889,-0.0445));
#1974=CARTESIAN_POINT('',(-0.07625,0.,-0.0445));
#1975=CARTESIAN_POINT('',(-0.066675,0.,-0.0445));
#1976=CARTESIAN_POINT('',(-0.0571,0.,-0.0445));
#1977=CARTESIAN_POINT('',(-0.0571,-0.00889,-0.0445));
#1978=CARTESIAN_POINT('',(-0.0571,-0.00889,-0.0445));
#1979=CARTESIAN_POINT('',(-0.066675,-0.00889,-0.0445));
#1980=CARTESIAN_POINT('',(-0.071755,0.132639392123382,-0.0445));
#1981=CARTESIAN_POINT('',(-0.069215,-0.004445,-0.0445));
#1982=CARTESIAN_POINT('',(-0.0571,-0.00889,-0.03175));
#1983=CARTESIAN_POINT('',(-0.0571,0.,-0.03175));
#1984=CARTESIAN_POINT('',(-0.0571,0.,-0.019));
#1985=CARTESIAN_POINT('',(-0.0571,-0.00889,-0.019));
#1986=CARTESIAN_POINT('',(-0.0571,-0.00889,-0.019));
#1987=CARTESIAN_POINT('',(-0.0571,-0.00889,-0.03175));
#1988=CARTESIAN_POINT('',(-0.066675,-0.00889,-0.019));
#1989=CARTESIAN_POINT('',(-0.066675,0.,-0.019));
#1990=CARTESIAN_POINT('',(-0.07625,0.,-0.019));
#1991=CARTESIAN_POINT('',(-0.07625,-0.00889,-0.019));
#1992=CARTESIAN_POINT('',(-0.07625,-0.00889,-0.019));
#1993=CARTESIAN_POINT('',(-0.066675,-0.00889,-0.019));
#1994=CARTESIAN_POINT('',(-0.07625,-0.00889,-0.03175));
#1995=CARTESIAN_POINT('',(-0.07625,0.,-0.03175));
#1996=CARTESIAN_POINT('',(-0.07625,-0.00889,-0.03175));
#1997=CARTESIAN_POINT('',(-0.022225,-0.00889,-0.00435887052118779));
#1998=CARTESIAN_POINT('',(-0.066675,-0.00889,-0.03175));
#1999=CARTESIAN_POINT('',(-0.066675,-0.00889,-0.034975));
#2000=CARTESIAN_POINT('',(-0.022225,0.,-0.00435887052118779));
#2001=CARTESIAN_POINT('',(-0.066675,-0.00381,-0.03175));
#2002=CARTESIAN_POINT('',(-0.066675,-0.00381,-0.03175));
#2003=CARTESIAN_POINT('',(-0.066675,-0.00381,-0.034975));
#2004=CARTESIAN_POINT('',(-0.066675,-0.00381,-0.03175));
#2005=CARTESIAN_POINT('',(-0.064135,-0.004445,-0.05085));
#2006=CARTESIAN_POINT('',(-0.064135,-0.0060325,-0.0507137013621681));
#2007=CARTESIAN_POINT('',(-0.069215,-0.004445,-0.05085));
#2008=CARTESIAN_POINT('',(-0.069215,-0.004445,-0.0507137013621681));
#2009=CARTESIAN_POINT('',(-0.066675,-0.004445,-0.05085));
#2010=CARTESIAN_POINT('',(-0.0693512986378319,-0.004445,-0.05085));
#2011=CARTESIAN_POINT('',(-0.0717017950499711,-0.004445,-0.05085));
#2012=CARTESIAN_POINT('',(-0.073025,0.132639392123382,-0.0496802533745766));
#2013=CARTESIAN_POINT('',(-0.0717941344903377,0.132639392123382,-0.0508139547732204));
#2014=CARTESIAN_POINT('',(-0.0740381742092231,-0.0028575,-0.0487470587980374));
#2015=CARTESIAN_POINT('',(-0.073025,0.132639392123382,-0.0485105067491531));
#2016=CARTESIAN_POINT('',(-0.0739458347688565,-0.0060325,-0.0485105067491531));
#2017=CARTESIAN_POINT('',(-0.071755,0.132639392123382,-0.0485105067491531));
#2018=CARTESIAN_POINT('',(-0.071755,0.132639392123382,-0.0465052533745766));
#2019=CARTESIAN_POINT('',(-0.060325,0.132639392123382,-0.0496816));
#2020=CARTESIAN_POINT('',(-0.0615558779963146,-0.0028575,-0.0508140077566095));
#2021=CARTESIAN_POINT('',(-0.0593121793829058,-0.0060325,-0.0487498050322734));
#2022=CARTESIAN_POINT('',(-0.060325,0.132639392123382,-0.0485132));
#2023=CARTESIAN_POINT('',(-0.0594044612657919,-0.0028575,-0.0485132));
#2024=CARTESIAN_POINT('',(-0.061595,0.132639392123382,-0.0485132));
#2025=CARTESIAN_POINT('',(-0.061595,0.132639392123382,-0.0465066));
#2026=CARTESIAN_POINT('',(-0.0693512986378319,-0.004445,-0.0507137013621681));
#2027=CARTESIAN_POINT('',(-0.0639987013621681,-0.004445,-0.0507137013621681));
#2028=CARTESIAN_POINT('',(-0.0717017950499711,0.132639392123382,-0.0507137013621681));
#2029=CARTESIAN_POINT('',(-0.0739458347688565,0.132639392123382,-0.0486468053869851));
#2030=CARTESIAN_POINT('',(-0.0616481598792007,-0.004445,-0.0507137013621681));
#2031=CARTESIAN_POINT('',(-0.0594044612657919,0.132639392123382,-0.0486494986378319));
#2032=MECHANICAL_DESIGN_GEOMETRIC_PRESENTATION_REPRESENTATION('',(#1133),
#2036);
#2033=MECHANICAL_DESIGN_GEOMETRIC_PRESENTATION_REPRESENTATION('',(#1134),
#2037);
#2034=MECHANICAL_DESIGN_GEOMETRIC_PRESENTATION_REPRESENTATION('',(#1135),
#2038);
#2035=MECHANICAL_DESIGN_GEOMETRIC_PRESENTATION_REPRESENTATION('',(#1136),
#2039);
#2036=(
GEOMETRIC_REPRESENTATION_CONTEXT(3)
GLOBAL_UNCERTAINTY_ASSIGNED_CONTEXT((#2040))
GLOBAL_UNIT_ASSIGNED_CONTEXT((#2052,#2048,#2044))
REPRESENTATION_CONTEXT('Circle Arm','TOP_LEVEL_ASSEMBLY_PART')
);
#2037=(
GEOMETRIC_REPRESENTATION_CONTEXT(3)
GLOBAL_UNCERTAINTY_ASSIGNED_CONTEXT((#2041))
GLOBAL_UNIT_ASSIGNED_CONTEXT((#2053,#2049,#2045))
REPRESENTATION_CONTEXT('Second Arm','TOP_LEVEL_ASSEMBLY_PART')
);
#2038=(
GEOMETRIC_REPRESENTATION_CONTEXT(3)
GLOBAL_UNCERTAINTY_ASSIGNED_CONTEXT((#2042))
GLOBAL_UNIT_ASSIGNED_CONTEXT((#2054,#2050,#2046))
REPRESENTATION_CONTEXT('Cleaning Wheel with step mount',
'TOP_LEVEL_ASSEMBLY_PART')
);
#2039=(
GEOMETRIC_REPRESENTATION_CONTEXT(3)
GLOBAL_UNCERTAINTY_ASSIGNED_CONTEXT((#2043))
GLOBAL_UNIT_ASSIGNED_CONTEXT((#2055,#2051,#2047))
REPRESENTATION_CONTEXT('Slider Flag','TOP_LEVEL_ASSEMBLY_PART')
);
#2040=UNCERTAINTY_MEASURE_WITH_UNIT(LENGTH_MEASURE(1.E-8),#2052,
'DISTANCE_ACCURACY_VALUE','Maximum Tolerance applied to model');
#2041=UNCERTAINTY_MEASURE_WITH_UNIT(LENGTH_MEASURE(1.E-8),#2053,
'DISTANCE_ACCURACY_VALUE','Maximum Tolerance applied to model');
#2042=UNCERTAINTY_MEASURE_WITH_UNIT(LENGTH_MEASURE(2.E-5),#2054,
'DISTANCE_ACCURACY_VALUE','Maximum Tolerance applied to model');
#2043=UNCERTAINTY_MEASURE_WITH_UNIT(LENGTH_MEASURE(1.E-8),#2055,
'DISTANCE_ACCURACY_VALUE','Maximum Tolerance applied to model');
#2044=(
NAMED_UNIT(*)
SI_UNIT($,.STERADIAN.)
SOLID_ANGLE_UNIT()
);
#2045=(
NAMED_UNIT(*)
SI_UNIT($,.STERADIAN.)
SOLID_ANGLE_UNIT()
);
#2046=(
NAMED_UNIT(*)
SI_UNIT($,.STERADIAN.)
SOLID_ANGLE_UNIT()
);
#2047=(
NAMED_UNIT(*)
SI_UNIT($,.STERADIAN.)
SOLID_ANGLE_UNIT()
);
#2048=(
NAMED_UNIT(*)
PLANE_ANGLE_UNIT()
SI_UNIT($,.RADIAN.)
);
#2049=(
NAMED_UNIT(*)
PLANE_ANGLE_UNIT()
SI_UNIT($,.RADIAN.)
);
#2050=(
NAMED_UNIT(*)
PLANE_ANGLE_UNIT()
SI_UNIT($,.RADIAN.)
);
#2051=(
NAMED_UNIT(*)
PLANE_ANGLE_UNIT()
SI_UNIT($,.RADIAN.)
);
#2052=(
LENGTH_UNIT()
NAMED_UNIT(*)
SI_UNIT($,.METRE.)
);
#2053=(
LENGTH_UNIT()
NAMED_UNIT(*)
SI_UNIT($,.METRE.)
);
#2054=(
LENGTH_UNIT()
NAMED_UNIT(*)
SI_UNIT($,.METRE.)
);
#2055=(
LENGTH_UNIT()
NAMED_UNIT(*)
SI_UNIT($,.METRE.)
);
#2056=PRODUCT_DEFINITION_SHAPE('','',#2060);
#2057=PRODUCT_DEFINITION_SHAPE('','',#2061);
#2058=PRODUCT_DEFINITION_SHAPE('','',#2062);
#2059=PRODUCT_DEFINITION_SHAPE('','',#2063);
#2060=PRODUCT_DEFINITION('','',#2068,#2064);
#2061=PRODUCT_DEFINITION('','',#2069,#2065);
#2062=PRODUCT_DEFINITION('','',#2070,#2066);
#2063=PRODUCT_DEFINITION('','',#2071,#2067);
#2064=PRODUCT_DEFINITION_CONTEXT('',#2092,'design');
#2065=PRODUCT_DEFINITION_CONTEXT('',#2093,'design');
#2066=PRODUCT_DEFINITION_CONTEXT('',#2094,'design');
#2067=PRODUCT_DEFINITION_CONTEXT('',#2095,'design');
#2068=PRODUCT_DEFINITION_FORMATION_WITH_SPECIFIED_SOURCE('','',#2076,
 .NOT_KNOWN.);
#2069=PRODUCT_DEFINITION_FORMATION_WITH_SPECIFIED_SOURCE('','',#2077,
 .NOT_KNOWN.);
#2070=PRODUCT_DEFINITION_FORMATION_WITH_SPECIFIED_SOURCE('','',#2078,
 .NOT_KNOWN.);
#2071=PRODUCT_DEFINITION_FORMATION_WITH_SPECIFIED_SOURCE('','',#2079,
 .NOT_KNOWN.);
#2072=PRODUCT_RELATED_PRODUCT_CATEGORY('','',(#2076));
#2073=PRODUCT_RELATED_PRODUCT_CATEGORY('','',(#2077));
#2074=PRODUCT_RELATED_PRODUCT_CATEGORY('','',(#2078));
#2075=PRODUCT_RELATED_PRODUCT_CATEGORY('','',(#2079));
#2076=PRODUCT('Circle Arm','Circle Arm','Circle Arm',(#2084));
#2077=PRODUCT('Second Arm','Second Arm','Second Arm',(#2085));
#2078=PRODUCT('Cleaning Wheel with step mount',
'Cleaning Wheel with step mount','Cleaning Wheel with step mount',(#2086));
#2079=PRODUCT('Slider Flag','Slider Flag','Slider Flag',(#2087));
#2080=PRODUCT_CATEGORY('','');
#2081=PRODUCT_CATEGORY('','');
#2082=PRODUCT_CATEGORY('','');
#2083=PRODUCT_CATEGORY('','');
#2084=PRODUCT_CONTEXT('',#2092,'mechanical');
#2085=PRODUCT_CONTEXT('',#2093,'mechanical');
#2086=PRODUCT_CONTEXT('',#2094,'mechanical');
#2087=PRODUCT_CONTEXT('',#2095,'mechanical');
#2088=APPLICATION_PROTOCOL_DEFINITION('international standard',
'ap242_managed_model_based_3d_engineering',2020,#2092);
#2089=APPLICATION_PROTOCOL_DEFINITION('international standard',
'ap242_managed_model_based_3d_engineering',2020,#2093);
#2090=APPLICATION_PROTOCOL_DEFINITION('international standard',
'ap242_managed_model_based_3d_engineering',2020,#2094);
#2091=APPLICATION_PROTOCOL_DEFINITION('international standard',
'ap242_managed_model_based_3d_engineering',2020,#2095);
#2092=APPLICATION_CONTEXT('managed model based 3d engineering');
#2093=APPLICATION_CONTEXT('managed model based 3d engineering');
#2094=APPLICATION_CONTEXT('managed model based 3d engineering');
#2095=APPLICATION_CONTEXT('managed model based 3d engineering');
ENDSEC;
END-ISO-10303-21;
