ISO-10303-21;
HEADER;
/* Generated by software containing ST-Developer
 * from STEP Tools, Inc. (www.steptools.com) 
 */
/* OPTION: using custom renumber hook */

FILE_DESCRIPTION(
/* description */ ('STEP AP242 Edition 2',
'CAx-IF Rec.Pracs.---Representation and Presentation of Product Manufa
cturing Information (PMI)---4.0---2014-10-13',
'CAx-IF Rec.Pracs.---3D Tessellated Geometry---0.4---2014-09-14','2;1',
'CAx-IF Rec.Pracs.---User Defined Attributes---1.5---2016-08-15'),
/* implementation_level */ '2;1');

FILE_NAME(
/* name */ 'Part Studio 1',
/* time_stamp */ '2026-07-07T22:22:53Z',
/* author */ (''),
/* organization */ (''),
/* preprocessor_version */ 'ST-DEVELOPER v20',
/* originating_system */ 'ONSHAPE BY PTC INC, 1.217',
/* authorisation */ '  ');

FILE_SCHEMA (('AP242_MANAGED_MODEL_BASED_3D_ENGINEERING_MIM_LF { 1 0 10303 442 3 1 4 }'));
ENDSEC;

DATA;
#10=ELLIPSE('',#1286,0.01016,0.00508);
#11=ELLIPSE('',#1288,0.01016,0.00508);
#12=ELLIPSE('',#1289,0.01016,0.00508);
#13=ELLIPSE('',#1291,0.01016,0.00508);
#14=SHAPE_REPRESENTATION_RELATIONSHIP('','',#1192,#20);
#15=SHAPE_REPRESENTATION_RELATIONSHIP('','',#1193,#21);
#16=SHAPE_REPRESENTATION_RELATIONSHIP('','',#1194,#22);
#17=SHAPE_REPRESENTATION_RELATIONSHIP('','',#1195,#23);
#18=SHAPE_REPRESENTATION_RELATIONSHIP('','',#1196,#24);
#19=SHAPE_REPRESENTATION_RELATIONSHIP('','',#1197,#25);
#20=ADVANCED_BREP_SHAPE_REPRESENTATION('',(#1180),#1958);
#21=ADVANCED_BREP_SHAPE_REPRESENTATION('',(#1181),#1959);
#22=ADVANCED_BREP_SHAPE_REPRESENTATION('',(#1182),#1960);
#23=ADVANCED_BREP_SHAPE_REPRESENTATION('',(#1183),#1961);
#24=ADVANCED_BREP_SHAPE_REPRESENTATION('',(#1184),#1962);
#25=ADVANCED_BREP_SHAPE_REPRESENTATION('',(#1185),#1963);
#26=CYLINDRICAL_SURFACE('',#1207,0.0016);
#27=CYLINDRICAL_SURFACE('',#1209,0.00155);
#28=CYLINDRICAL_SURFACE('',#1225,0.0016);
#29=CYLINDRICAL_SURFACE('',#1226,0.0016);
#30=CYLINDRICAL_SURFACE('',#1238,0.0016);
#31=CYLINDRICAL_SURFACE('',#1239,0.0016);
#32=CYLINDRICAL_SURFACE('',#1252,0.00165);
#33=CYLINDRICAL_SURFACE('',#1255,0.00165);
#34=CYLINDRICAL_SURFACE('',#1258,0.0035);
#35=CYLINDRICAL_SURFACE('',#1269,0.0016);
#36=CYLINDRICAL_SURFACE('',#1271,0.0017);
#37=CYLINDRICAL_SURFACE('',#1278,0.0254);
#38=CYLINDRICAL_SURFACE('',#1285,0.00508);
#39=CYLINDRICAL_SURFACE('',#1293,0.0025);
#40=CYLINDRICAL_SURFACE('',#1296,0.0025);
#41=CYLINDRICAL_SURFACE('',#1306,0.001575);
#42=CIRCLE('',#1201,0.0016);
#43=CIRCLE('',#1204,0.0016);
#44=CIRCLE('',#1210,0.00155);
#45=CIRCLE('',#1211,0.00155);
#46=CIRCLE('',#1216,0.0016);
#47=CIRCLE('',#1217,0.0016);
#48=CIRCLE('',#1219,0.0016);
#49=CIRCLE('',#1220,0.0016);
#50=CIRCLE('',#1229,0.0016);
#51=CIRCLE('',#1230,0.0016);
#52=CIRCLE('',#1232,0.0016);
#53=CIRCLE('',#1233,0.0016);
#54=CIRCLE('',#1244,0.00165);
#55=CIRCLE('',#1245,0.00165);
#56=CIRCLE('',#1246,0.0035);
#57=CIRCLE('',#1248,0.0016);
#58=CIRCLE('',#1251,0.0016);
#59=CIRCLE('',#1253,0.00165);
#60=CIRCLE('',#1256,0.00165);
#61=CIRCLE('',#1259,0.0035);
#62=CIRCLE('',#1272,0.0017);
#63=CIRCLE('',#1273,0.0017);
#64=CIRCLE('',#1275,0.00508);
#65=CIRCLE('',#1276,0.0025);
#66=CIRCLE('',#1277,0.0025);
#67=CIRCLE('',#1279,0.0254);
#68=CIRCLE('',#1280,0.0254);
#69=CIRCLE('',#1282,0.001575);
#70=CIRCLE('',#1284,0.00508);
#71=CIRCLE('',#1287,0.00508);
#72=CIRCLE('',#1290,0.00508);
#73=CIRCLE('',#1294,0.0025);
#74=CIRCLE('',#1297,0.0025);
#75=CIRCLE('',#1307,0.001575);
#76=ORIENTED_EDGE('',*,*,#360,.T.);
#77=ORIENTED_EDGE('',*,*,#361,.F.);
#78=ORIENTED_EDGE('',*,*,#362,.F.);
#79=ORIENTED_EDGE('',*,*,#363,.T.);
#80=ORIENTED_EDGE('',*,*,#364,.F.);
#81=ORIENTED_EDGE('',*,*,#365,.T.);
#82=ORIENTED_EDGE('',*,*,#366,.F.);
#83=ORIENTED_EDGE('',*,*,#367,.F.);
#84=ORIENTED_EDGE('',*,*,#361,.T.);
#85=ORIENTED_EDGE('',*,*,#368,.T.);
#86=ORIENTED_EDGE('',*,*,#369,.F.);
#87=ORIENTED_EDGE('',*,*,#370,.F.);
#88=ORIENTED_EDGE('',*,*,#366,.T.);
#89=ORIENTED_EDGE('',*,*,#371,.T.);
#90=ORIENTED_EDGE('',*,*,#372,.F.);
#91=ORIENTED_EDGE('',*,*,#363,.F.);
#92=ORIENTED_EDGE('',*,*,#373,.T.);
#93=ORIENTED_EDGE('',*,*,#369,.T.);
#94=ORIENTED_EDGE('',*,*,#362,.T.);
#95=ORIENTED_EDGE('',*,*,#367,.T.);
#96=ORIENTED_EDGE('',*,*,#370,.T.);
#97=ORIENTED_EDGE('',*,*,#373,.F.);
#98=ORIENTED_EDGE('',*,*,#360,.F.);
#99=ORIENTED_EDGE('',*,*,#372,.T.);
#100=ORIENTED_EDGE('',*,*,#368,.F.);
#101=ORIENTED_EDGE('',*,*,#365,.F.);
#102=ORIENTED_EDGE('',*,*,#371,.F.);
#103=ORIENTED_EDGE('',*,*,#364,.T.);
#104=ORIENTED_EDGE('',*,*,#374,.F.);
#105=ORIENTED_EDGE('',*,*,#375,.T.);
#106=ORIENTED_EDGE('',*,*,#374,.T.);
#107=ORIENTED_EDGE('',*,*,#375,.F.);
#108=ORIENTED_EDGE('',*,*,#376,.T.);
#109=ORIENTED_EDGE('',*,*,#377,.F.);
#110=ORIENTED_EDGE('',*,*,#378,.T.);
#111=ORIENTED_EDGE('',*,*,#379,.T.);
#112=ORIENTED_EDGE('',*,*,#380,.F.);
#113=ORIENTED_EDGE('',*,*,#381,.F.);
#114=ORIENTED_EDGE('',*,*,#382,.T.);
#115=ORIENTED_EDGE('',*,*,#383,.T.);
#116=ORIENTED_EDGE('',*,*,#384,.F.);
#117=ORIENTED_EDGE('',*,*,#385,.F.);
#118=ORIENTED_EDGE('',*,*,#386,.F.);
#119=ORIENTED_EDGE('',*,*,#387,.T.);
#120=ORIENTED_EDGE('',*,*,#382,.F.);
#121=ORIENTED_EDGE('',*,*,#388,.F.);
#122=ORIENTED_EDGE('',*,*,#377,.T.);
#123=ORIENTED_EDGE('',*,*,#389,.T.);
#124=ORIENTED_EDGE('',*,*,#385,.T.);
#125=ORIENTED_EDGE('',*,*,#390,.F.);
#126=ORIENTED_EDGE('',*,*,#378,.F.);
#127=ORIENTED_EDGE('',*,*,#388,.T.);
#128=ORIENTED_EDGE('',*,*,#384,.T.);
#129=ORIENTED_EDGE('',*,*,#391,.F.);
#130=ORIENTED_EDGE('',*,*,#379,.F.);
#131=ORIENTED_EDGE('',*,*,#390,.T.);
#132=ORIENTED_EDGE('',*,*,#383,.F.);
#133=ORIENTED_EDGE('',*,*,#389,.F.);
#134=ORIENTED_EDGE('',*,*,#380,.T.);
#135=ORIENTED_EDGE('',*,*,#391,.T.);
#136=ORIENTED_EDGE('',*,*,#376,.F.);
#137=ORIENTED_EDGE('',*,*,#386,.T.);
#138=ORIENTED_EDGE('',*,*,#381,.T.);
#139=ORIENTED_EDGE('',*,*,#387,.F.);
#140=ORIENTED_EDGE('',*,*,#392,.T.);
#141=ORIENTED_EDGE('',*,*,#393,.F.);
#142=ORIENTED_EDGE('',*,*,#394,.T.);
#143=ORIENTED_EDGE('',*,*,#395,.T.);
#144=ORIENTED_EDGE('',*,*,#396,.F.);
#145=ORIENTED_EDGE('',*,*,#397,.F.);
#146=ORIENTED_EDGE('',*,*,#398,.T.);
#147=ORIENTED_EDGE('',*,*,#399,.T.);
#148=ORIENTED_EDGE('',*,*,#400,.F.);
#149=ORIENTED_EDGE('',*,*,#401,.F.);
#150=ORIENTED_EDGE('',*,*,#402,.F.);
#151=ORIENTED_EDGE('',*,*,#403,.T.);
#152=ORIENTED_EDGE('',*,*,#398,.F.);
#153=ORIENTED_EDGE('',*,*,#404,.F.);
#154=ORIENTED_EDGE('',*,*,#393,.T.);
#155=ORIENTED_EDGE('',*,*,#405,.T.);
#156=ORIENTED_EDGE('',*,*,#401,.T.);
#157=ORIENTED_EDGE('',*,*,#406,.F.);
#158=ORIENTED_EDGE('',*,*,#394,.F.);
#159=ORIENTED_EDGE('',*,*,#404,.T.);
#160=ORIENTED_EDGE('',*,*,#400,.T.);
#161=ORIENTED_EDGE('',*,*,#407,.F.);
#162=ORIENTED_EDGE('',*,*,#395,.F.);
#163=ORIENTED_EDGE('',*,*,#406,.T.);
#164=ORIENTED_EDGE('',*,*,#399,.F.);
#165=ORIENTED_EDGE('',*,*,#405,.F.);
#166=ORIENTED_EDGE('',*,*,#396,.T.);
#167=ORIENTED_EDGE('',*,*,#407,.T.);
#168=ORIENTED_EDGE('',*,*,#392,.F.);
#169=ORIENTED_EDGE('',*,*,#402,.T.);
#170=ORIENTED_EDGE('',*,*,#397,.T.);
#171=ORIENTED_EDGE('',*,*,#403,.F.);
#172=ORIENTED_EDGE('',*,*,#408,.F.);
#173=ORIENTED_EDGE('',*,*,#409,.F.);
#174=ORIENTED_EDGE('',*,*,#410,.F.);
#175=ORIENTED_EDGE('',*,*,#411,.T.);
#176=ORIENTED_EDGE('',*,*,#412,.F.);
#177=ORIENTED_EDGE('',*,*,#413,.T.);
#178=ORIENTED_EDGE('',*,*,#414,.T.);
#179=ORIENTED_EDGE('',*,*,#415,.F.);
#180=ORIENTED_EDGE('',*,*,#416,.T.);
#181=ORIENTED_EDGE('',*,*,#417,.F.);
#182=ORIENTED_EDGE('',*,*,#418,.T.);
#183=ORIENTED_EDGE('',*,*,#419,.T.);
#184=ORIENTED_EDGE('',*,*,#420,.F.);
#185=ORIENTED_EDGE('',*,*,#421,.T.);
#186=ORIENTED_EDGE('',*,*,#422,.F.);
#187=ORIENTED_EDGE('',*,*,#423,.F.);
#188=ORIENTED_EDGE('',*,*,#424,.F.);
#189=ORIENTED_EDGE('',*,*,#421,.F.);
#190=ORIENTED_EDGE('',*,*,#425,.F.);
#191=ORIENTED_EDGE('',*,*,#426,.F.);
#192=ORIENTED_EDGE('',*,*,#427,.F.);
#193=ORIENTED_EDGE('',*,*,#428,.T.);
#194=ORIENTED_EDGE('',*,*,#411,.F.);
#195=ORIENTED_EDGE('',*,*,#429,.F.);
#196=ORIENTED_EDGE('',*,*,#414,.F.);
#197=ORIENTED_EDGE('',*,*,#430,.F.);
#198=ORIENTED_EDGE('',*,*,#431,.F.);
#199=ORIENTED_EDGE('',*,*,#432,.T.);
#200=ORIENTED_EDGE('',*,*,#433,.F.);
#201=ORIENTED_EDGE('',*,*,#434,.T.);
#202=ORIENTED_EDGE('',*,*,#435,.T.);
#203=ORIENTED_EDGE('',*,*,#436,.F.);
#204=ORIENTED_EDGE('',*,*,#437,.F.);
#205=ORIENTED_EDGE('',*,*,#438,.T.);
#206=ORIENTED_EDGE('',*,*,#433,.T.);
#207=ORIENTED_EDGE('',*,*,#439,.T.);
#208=ORIENTED_EDGE('',*,*,#437,.T.);
#209=ORIENTED_EDGE('',*,*,#440,.F.);
#210=ORIENTED_EDGE('',*,*,#441,.T.);
#211=ORIENTED_EDGE('',*,*,#442,.T.);
#212=ORIENTED_EDGE('',*,*,#412,.T.);
#213=ORIENTED_EDGE('',*,*,#443,.T.);
#214=ORIENTED_EDGE('',*,*,#409,.T.);
#215=ORIENTED_EDGE('',*,*,#444,.F.);
#216=ORIENTED_EDGE('',*,*,#445,.T.);
#217=ORIENTED_EDGE('',*,*,#446,.T.);
#218=ORIENTED_EDGE('',*,*,#447,.T.);
#219=ORIENTED_EDGE('',*,*,#423,.T.);
#220=ORIENTED_EDGE('',*,*,#448,.F.);
#221=ORIENTED_EDGE('',*,*,#449,.F.);
#222=ORIENTED_EDGE('',*,*,#416,.F.);
#223=ORIENTED_EDGE('',*,*,#450,.F.);
#224=ORIENTED_EDGE('',*,*,#451,.T.);
#225=ORIENTED_EDGE('',*,*,#452,.T.);
#226=ORIENTED_EDGE('',*,*,#419,.F.);
#227=ORIENTED_EDGE('',*,*,#453,.F.);
#228=ORIENTED_EDGE('',*,*,#454,.T.);
#229=ORIENTED_EDGE('',*,*,#450,.T.);
#230=ORIENTED_EDGE('',*,*,#418,.F.);
#231=ORIENTED_EDGE('',*,*,#455,.F.);
#232=ORIENTED_EDGE('',*,*,#456,.T.);
#233=ORIENTED_EDGE('',*,*,#453,.T.);
#234=ORIENTED_EDGE('',*,*,#417,.T.);
#235=ORIENTED_EDGE('',*,*,#452,.F.);
#236=ORIENTED_EDGE('',*,*,#457,.F.);
#237=ORIENTED_EDGE('',*,*,#455,.T.);
#238=ORIENTED_EDGE('',*,*,#422,.T.);
#239=ORIENTED_EDGE('',*,*,#435,.F.);
#240=ORIENTED_EDGE('',*,*,#458,.F.);
#241=ORIENTED_EDGE('',*,*,#448,.T.);
#242=ORIENTED_EDGE('',*,*,#451,.F.);
#243=ORIENTED_EDGE('',*,*,#454,.F.);
#244=ORIENTED_EDGE('',*,*,#456,.F.);
#245=ORIENTED_EDGE('',*,*,#457,.T.);
#246=ORIENTED_EDGE('',*,*,#434,.F.);
#247=ORIENTED_EDGE('',*,*,#438,.F.);
#248=ORIENTED_EDGE('',*,*,#449,.T.);
#249=ORIENTED_EDGE('',*,*,#458,.T.);
#250=ORIENTED_EDGE('',*,*,#447,.F.);
#251=ORIENTED_EDGE('',*,*,#459,.T.);
#252=ORIENTED_EDGE('',*,*,#425,.T.);
#253=ORIENTED_EDGE('',*,*,#420,.T.);
#254=ORIENTED_EDGE('',*,*,#429,.T.);
#255=ORIENTED_EDGE('',*,*,#410,.T.);
#256=ORIENTED_EDGE('',*,*,#443,.F.);
#257=ORIENTED_EDGE('',*,*,#415,.T.);
#258=ORIENTED_EDGE('',*,*,#436,.T.);
#259=ORIENTED_EDGE('',*,*,#432,.F.);
#260=ORIENTED_EDGE('',*,*,#460,.F.);
#261=ORIENTED_EDGE('',*,*,#440,.T.);
#262=ORIENTED_EDGE('',*,*,#413,.F.);
#263=ORIENTED_EDGE('',*,*,#442,.F.);
#264=ORIENTED_EDGE('',*,*,#461,.T.);
#265=ORIENTED_EDGE('',*,*,#430,.T.);
#266=ORIENTED_EDGE('',*,*,#441,.F.);
#267=ORIENTED_EDGE('',*,*,#460,.T.);
#268=ORIENTED_EDGE('',*,*,#431,.T.);
#269=ORIENTED_EDGE('',*,*,#461,.F.);
#270=ORIENTED_EDGE('',*,*,#459,.F.);
#271=ORIENTED_EDGE('',*,*,#446,.F.);
#272=ORIENTED_EDGE('',*,*,#462,.T.);
#273=ORIENTED_EDGE('',*,*,#426,.T.);
#274=ORIENTED_EDGE('',*,*,#408,.T.);
#275=ORIENTED_EDGE('',*,*,#428,.F.);
#276=ORIENTED_EDGE('',*,*,#463,.F.);
#277=ORIENTED_EDGE('',*,*,#444,.T.);
#278=ORIENTED_EDGE('',*,*,#462,.F.);
#279=ORIENTED_EDGE('',*,*,#445,.F.);
#280=ORIENTED_EDGE('',*,*,#463,.T.);
#281=ORIENTED_EDGE('',*,*,#427,.T.);
#282=ORIENTED_EDGE('',*,*,#424,.T.);
#283=ORIENTED_EDGE('',*,*,#439,.F.);
#284=ORIENTED_EDGE('',*,*,#464,.T.);
#285=ORIENTED_EDGE('',*,*,#465,.T.);
#286=ORIENTED_EDGE('',*,*,#466,.T.);
#287=ORIENTED_EDGE('',*,*,#467,.F.);
#288=ORIENTED_EDGE('',*,*,#468,.T.);
#289=ORIENTED_EDGE('',*,*,#469,.F.);
#290=ORIENTED_EDGE('',*,*,#470,.F.);
#291=ORIENTED_EDGE('',*,*,#471,.F.);
#292=ORIENTED_EDGE('',*,*,#472,.T.);
#293=ORIENTED_EDGE('',*,*,#473,.F.);
#294=ORIENTED_EDGE('',*,*,#471,.T.);
#295=ORIENTED_EDGE('',*,*,#474,.F.);
#296=ORIENTED_EDGE('',*,*,#472,.F.);
#297=ORIENTED_EDGE('',*,*,#475,.T.);
#298=ORIENTED_EDGE('',*,*,#476,.T.);
#299=ORIENTED_EDGE('',*,*,#477,.T.);
#300=ORIENTED_EDGE('',*,*,#478,.T.);
#301=ORIENTED_EDGE('',*,*,#479,.T.);
#302=ORIENTED_EDGE('',*,*,#480,.T.);
#303=ORIENTED_EDGE('',*,*,#466,.F.);
#304=ORIENTED_EDGE('',*,*,#474,.T.);
#305=ORIENTED_EDGE('',*,*,#464,.F.);
#306=ORIENTED_EDGE('',*,*,#468,.F.);
#307=ORIENTED_EDGE('',*,*,#481,.F.);
#308=ORIENTED_EDGE('',*,*,#482,.T.);
#309=ORIENTED_EDGE('',*,*,#483,.T.);
#310=ORIENTED_EDGE('',*,*,#467,.T.);
#311=ORIENTED_EDGE('',*,*,#484,.F.);
#312=ORIENTED_EDGE('',*,*,#485,.F.);
#313=ORIENTED_EDGE('',*,*,#481,.T.);
#314=ORIENTED_EDGE('',*,*,#470,.T.);
#315=ORIENTED_EDGE('',*,*,#486,.F.);
#316=ORIENTED_EDGE('',*,*,#487,.F.);
#317=ORIENTED_EDGE('',*,*,#484,.T.);
#318=ORIENTED_EDGE('',*,*,#469,.T.);
#319=ORIENTED_EDGE('',*,*,#483,.F.);
#320=ORIENTED_EDGE('',*,*,#488,.F.);
#321=ORIENTED_EDGE('',*,*,#486,.T.);
#322=ORIENTED_EDGE('',*,*,#482,.F.);
#323=ORIENTED_EDGE('',*,*,#485,.T.);
#324=ORIENTED_EDGE('',*,*,#487,.T.);
#325=ORIENTED_EDGE('',*,*,#488,.T.);
#326=ORIENTED_EDGE('',*,*,#489,.F.);
#327=ORIENTED_EDGE('',*,*,#490,.F.);
#328=ORIENTED_EDGE('',*,*,#491,.T.);
#329=ORIENTED_EDGE('',*,*,#477,.F.);
#330=ORIENTED_EDGE('',*,*,#492,.F.);
#331=ORIENTED_EDGE('',*,*,#493,.F.);
#332=ORIENTED_EDGE('',*,*,#489,.T.);
#333=ORIENTED_EDGE('',*,*,#476,.F.);
#334=ORIENTED_EDGE('',*,*,#494,.F.);
#335=ORIENTED_EDGE('',*,*,#495,.F.);
#336=ORIENTED_EDGE('',*,*,#492,.T.);
#337=ORIENTED_EDGE('',*,*,#475,.F.);
#338=ORIENTED_EDGE('',*,*,#496,.F.);
#339=ORIENTED_EDGE('',*,*,#497,.F.);
#340=ORIENTED_EDGE('',*,*,#494,.T.);
#341=ORIENTED_EDGE('',*,*,#480,.F.);
#342=ORIENTED_EDGE('',*,*,#498,.F.);
#343=ORIENTED_EDGE('',*,*,#499,.F.);
#344=ORIENTED_EDGE('',*,*,#496,.T.);
#345=ORIENTED_EDGE('',*,*,#479,.F.);
#346=ORIENTED_EDGE('',*,*,#491,.F.);
#347=ORIENTED_EDGE('',*,*,#500,.F.);
#348=ORIENTED_EDGE('',*,*,#498,.T.);
#349=ORIENTED_EDGE('',*,*,#478,.F.);
#350=ORIENTED_EDGE('',*,*,#465,.F.);
#351=ORIENTED_EDGE('',*,*,#490,.T.);
#352=ORIENTED_EDGE('',*,*,#493,.T.);
#353=ORIENTED_EDGE('',*,*,#495,.T.);
#354=ORIENTED_EDGE('',*,*,#497,.T.);
#355=ORIENTED_EDGE('',*,*,#499,.T.);
#356=ORIENTED_EDGE('',*,*,#500,.T.);
#357=ORIENTED_EDGE('',*,*,#501,.F.);
#358=ORIENTED_EDGE('',*,*,#473,.T.);
#359=ORIENTED_EDGE('',*,*,#501,.T.);
#360=EDGE_CURVE('',#502,#503,#604,.T.);
#361=EDGE_CURVE('',#504,#503,#605,.T.);
#362=EDGE_CURVE('',#505,#504,#606,.T.);
#363=EDGE_CURVE('',#505,#502,#607,.T.);
#364=EDGE_CURVE('',#506,#506,#42,.F.);
#365=EDGE_CURVE('',#503,#507,#608,.T.);
#366=EDGE_CURVE('',#508,#507,#609,.T.);
#367=EDGE_CURVE('',#504,#508,#610,.T.);
#368=EDGE_CURVE('',#507,#509,#611,.T.);
#369=EDGE_CURVE('',#510,#509,#612,.T.);
#370=EDGE_CURVE('',#508,#510,#613,.T.);
#371=EDGE_CURVE('',#511,#511,#43,.F.);
#372=EDGE_CURVE('',#502,#509,#614,.T.);
#373=EDGE_CURVE('',#505,#510,#615,.T.);
#374=EDGE_CURVE('',#512,#512,#44,.T.);
#375=EDGE_CURVE('',#513,#513,#45,.T.);
#376=EDGE_CURVE('',#514,#514,#46,.F.);
#377=EDGE_CURVE('',#515,#516,#616,.T.);
#378=EDGE_CURVE('',#515,#517,#617,.T.);
#379=EDGE_CURVE('',#517,#518,#618,.T.);
#380=EDGE_CURVE('',#516,#518,#619,.T.);
#381=EDGE_CURVE('',#519,#519,#47,.T.);
#382=EDGE_CURVE('',#520,#521,#620,.T.);
#383=EDGE_CURVE('',#521,#522,#621,.T.);
#384=EDGE_CURVE('',#523,#522,#622,.T.);
#385=EDGE_CURVE('',#520,#523,#623,.T.);
#386=EDGE_CURVE('',#524,#524,#48,.F.);
#387=EDGE_CURVE('',#525,#525,#49,.T.);
#388=EDGE_CURVE('',#515,#520,#624,.T.);
#389=EDGE_CURVE('',#516,#521,#625,.T.);
#390=EDGE_CURVE('',#517,#523,#626,.T.);
#391=EDGE_CURVE('',#518,#522,#627,.T.);
#392=EDGE_CURVE('',#526,#526,#50,.T.);
#393=EDGE_CURVE('',#527,#528,#628,.T.);
#394=EDGE_CURVE('',#527,#529,#629,.T.);
#395=EDGE_CURVE('',#529,#530,#630,.T.);
#396=EDGE_CURVE('',#528,#530,#631,.T.);
#397=EDGE_CURVE('',#531,#531,#51,.T.);
#398=EDGE_CURVE('',#532,#533,#632,.T.);
#399=EDGE_CURVE('',#533,#534,#633,.T.);
#400=EDGE_CURVE('',#535,#534,#634,.T.);
#401=EDGE_CURVE('',#532,#535,#635,.T.);
#402=EDGE_CURVE('',#536,#536,#52,.F.);
#403=EDGE_CURVE('',#537,#537,#53,.T.);
#404=EDGE_CURVE('',#527,#532,#636,.T.);
#405=EDGE_CURVE('',#528,#533,#637,.T.);
#406=EDGE_CURVE('',#529,#535,#638,.T.);
#407=EDGE_CURVE('',#530,#534,#639,.T.);
#408=EDGE_CURVE('',#538,#539,#640,.T.);
#409=EDGE_CURVE('',#540,#538,#641,.T.);
#410=EDGE_CURVE('',#541,#540,#642,.T.);
#411=EDGE_CURVE('',#541,#539,#643,.T.);
#412=EDGE_CURVE('',#542,#543,#644,.T.);
#413=EDGE_CURVE('',#542,#544,#645,.T.);
#414=EDGE_CURVE('',#544,#545,#646,.T.);
#415=EDGE_CURVE('',#543,#545,#647,.T.);
#416=EDGE_CURVE('',#546,#547,#54,.T.);
#417=EDGE_CURVE('',#548,#547,#648,.T.);
#418=EDGE_CURVE('',#548,#549,#55,.T.);
#419=EDGE_CURVE('',#549,#546,#649,.T.);
#420=EDGE_CURVE('',#550,#551,#650,.T.);
#421=EDGE_CURVE('',#550,#552,#651,.T.);
#422=EDGE_CURVE('',#553,#552,#56,.T.);
#423=EDGE_CURVE('',#551,#553,#652,.T.);
#424=EDGE_CURVE('',#554,#554,#57,.T.);
#425=EDGE_CURVE('',#555,#550,#653,.T.);
#426=EDGE_CURVE('',#556,#555,#654,.T.);
#427=EDGE_CURVE('',#557,#556,#655,.T.);
#428=EDGE_CURVE('',#557,#539,#656,.T.);
#429=EDGE_CURVE('',#545,#541,#657,.T.);
#430=EDGE_CURVE('',#558,#544,#658,.T.);
#431=EDGE_CURVE('',#559,#558,#659,.T.);
#432=EDGE_CURVE('',#559,#560,#660,.T.);
#433=EDGE_CURVE('',#561,#560,#661,.T.);
#434=EDGE_CURVE('',#561,#562,#662,.T.);
#435=EDGE_CURVE('',#562,#552,#663,.T.);
#436=EDGE_CURVE('',#563,#560,#664,.T.);
#437=EDGE_CURVE('',#564,#563,#665,.T.);
#438=EDGE_CURVE('',#564,#561,#666,.T.);
#439=EDGE_CURVE('',#565,#565,#58,.T.);
#440=EDGE_CURVE('',#566,#563,#667,.T.);
#441=EDGE_CURVE('',#566,#567,#668,.T.);
#442=EDGE_CURVE('',#567,#542,#669,.T.);
#443=EDGE_CURVE('',#543,#540,#670,.T.);
#444=EDGE_CURVE('',#568,#538,#671,.T.);
#445=EDGE_CURVE('',#568,#569,#672,.T.);
#446=EDGE_CURVE('',#569,#570,#673,.T.);
#447=EDGE_CURVE('',#570,#551,#674,.T.);
#448=EDGE_CURVE('',#571,#553,#675,.T.);
#449=EDGE_CURVE('',#564,#571,#676,.T.);
#450=EDGE_CURVE('',#572,#546,#677,.T.);
#451=EDGE_CURVE('',#572,#573,#59,.T.);
#452=EDGE_CURVE('',#573,#547,#678,.T.);
#453=EDGE_CURVE('',#574,#549,#679,.T.);
#454=EDGE_CURVE('',#574,#572,#680,.T.);
#455=EDGE_CURVE('',#575,#548,#681,.T.);
#456=EDGE_CURVE('',#575,#574,#60,.T.);
#457=EDGE_CURVE('',#575,#573,#682,.T.);
#458=EDGE_CURVE('',#571,#562,#61,.T.);
#459=EDGE_CURVE('',#570,#555,#683,.T.);
#460=EDGE_CURVE('',#566,#559,#684,.T.);
#461=EDGE_CURVE('',#567,#558,#685,.T.);
#462=EDGE_CURVE('',#569,#556,#686,.T.);
#463=EDGE_CURVE('',#568,#557,#687,.T.);
#464=EDGE_CURVE('',#576,#576,#62,.T.);
#465=EDGE_CURVE('',#577,#577,#63,.T.);
#466=EDGE_CURVE('',#578,#578,#64,.T.);
#467=EDGE_CURVE('',#579,#580,#65,.T.);
#468=EDGE_CURVE('',#579,#581,#688,.T.);
#469=EDGE_CURVE('',#582,#581,#66,.T.);
#470=EDGE_CURVE('',#580,#582,#689,.T.);
#471=EDGE_CURVE('',#583,#583,#67,.T.);
#472=EDGE_CURVE('',#584,#584,#68,.T.);
#473=EDGE_CURVE('',#585,#585,#69,.T.);
#474=EDGE_CURVE('',#586,#586,#70,.T.);
#475=EDGE_CURVE('',#587,#588,#10,.T.);
#476=EDGE_CURVE('',#588,#589,#71,.T.);
#477=EDGE_CURVE('',#589,#590,#11,.T.);
#478=EDGE_CURVE('',#590,#591,#12,.T.);
#479=EDGE_CURVE('',#591,#592,#72,.T.);
#480=EDGE_CURVE('',#592,#587,#13,.T.);
#481=EDGE_CURVE('',#593,#579,#690,.T.);
#482=EDGE_CURVE('',#593,#594,#691,.T.);
#483=EDGE_CURVE('',#594,#581,#692,.T.);
#484=EDGE_CURVE('',#595,#580,#693,.T.);
#485=EDGE_CURVE('',#593,#595,#73,.T.);
#486=EDGE_CURVE('',#596,#582,#694,.T.);
#487=EDGE_CURVE('',#595,#596,#695,.T.);
#488=EDGE_CURVE('',#596,#594,#74,.T.);
#489=EDGE_CURVE('',#597,#589,#696,.T.);
#490=EDGE_CURVE('',#598,#597,#697,.T.);
#491=EDGE_CURVE('',#598,#590,#698,.T.);
#492=EDGE_CURVE('',#599,#588,#699,.T.);
#493=EDGE_CURVE('',#597,#599,#700,.T.);
#494=EDGE_CURVE('',#600,#587,#701,.T.);
#495=EDGE_CURVE('',#599,#600,#702,.T.);
#496=EDGE_CURVE('',#601,#592,#703,.T.);
#497=EDGE_CURVE('',#600,#601,#704,.T.);
#498=EDGE_CURVE('',#602,#591,#705,.T.);
#499=EDGE_CURVE('',#601,#602,#706,.T.);
#500=EDGE_CURVE('',#602,#598,#707,.T.);
#501=EDGE_CURVE('',#603,#603,#75,.T.);
#502=VERTEX_POINT('',#1638);
#503=VERTEX_POINT('',#1639);
#504=VERTEX_POINT('',#1641);
#505=VERTEX_POINT('',#1643);
#506=VERTEX_POINT('',#1647);
#507=VERTEX_POINT('',#1649);
#508=VERTEX_POINT('',#1651);
#509=VERTEX_POINT('',#1655);
#510=VERTEX_POINT('',#1657);
#511=VERTEX_POINT('',#1661);
#512=VERTEX_POINT('',#1670);
#513=VERTEX_POINT('',#1672);
#514=VERTEX_POINT('',#1678);
#515=VERTEX_POINT('',#1680);
#516=VERTEX_POINT('',#1681);
#517=VERTEX_POINT('',#1683);
#518=VERTEX_POINT('',#1685);
#519=VERTEX_POINT('',#1688);
#520=VERTEX_POINT('',#1691);
#521=VERTEX_POINT('',#1692);
#522=VERTEX_POINT('',#1694);
#523=VERTEX_POINT('',#1696);
#524=VERTEX_POINT('',#1699);
#525=VERTEX_POINT('',#1701);
#526=VERTEX_POINT('',#1715);
#527=VERTEX_POINT('',#1717);
#528=VERTEX_POINT('',#1718);
#529=VERTEX_POINT('',#1720);
#530=VERTEX_POINT('',#1722);
#531=VERTEX_POINT('',#1725);
#532=VERTEX_POINT('',#1728);
#533=VERTEX_POINT('',#1729);
#534=VERTEX_POINT('',#1731);
#535=VERTEX_POINT('',#1733);
#536=VERTEX_POINT('',#1736);
#537=VERTEX_POINT('',#1738);
#538=VERTEX_POINT('',#1752);
#539=VERTEX_POINT('',#1753);
#540=VERTEX_POINT('',#1755);
#541=VERTEX_POINT('',#1757);
#542=VERTEX_POINT('',#1761);
#543=VERTEX_POINT('',#1762);
#544=VERTEX_POINT('',#1764);
#545=VERTEX_POINT('',#1766);
#546=VERTEX_POINT('',#1770);
#547=VERTEX_POINT('',#1771);
#548=VERTEX_POINT('',#1773);
#549=VERTEX_POINT('',#1775);
#550=VERTEX_POINT('',#1778);
#551=VERTEX_POINT('',#1779);
#552=VERTEX_POINT('',#1781);
#553=VERTEX_POINT('',#1783);
#554=VERTEX_POINT('',#1787);
#555=VERTEX_POINT('',#1789);
#556=VERTEX_POINT('',#1791);
#557=VERTEX_POINT('',#1793);
#558=VERTEX_POINT('',#1797);
#559=VERTEX_POINT('',#1799);
#560=VERTEX_POINT('',#1801);
#561=VERTEX_POINT('',#1803);
#562=VERTEX_POINT('',#1805);
#563=VERTEX_POINT('',#1809);
#564=VERTEX_POINT('',#1811);
#565=VERTEX_POINT('',#1815);
#566=VERTEX_POINT('',#1817);
#567=VERTEX_POINT('',#1819);
#568=VERTEX_POINT('',#1823);
#569=VERTEX_POINT('',#1825);
#570=VERTEX_POINT('',#1827);
#571=VERTEX_POINT('',#1830);
#572=VERTEX_POINT('',#1834);
#573=VERTEX_POINT('',#1836);
#574=VERTEX_POINT('',#1840);
#575=VERTEX_POINT('',#1844);
#576=VERTEX_POINT('',#1868);
#577=VERTEX_POINT('',#1870);
#578=VERTEX_POINT('',#1873);
#579=VERTEX_POINT('',#1875);
#580=VERTEX_POINT('',#1876);
#581=VERTEX_POINT('',#1878);
#582=VERTEX_POINT('',#1880);
#583=VERTEX_POINT('',#1884);
#584=VERTEX_POINT('',#1886);
#585=VERTEX_POINT('',#1889);
#586=VERTEX_POINT('',#1892);
#587=VERTEX_POINT('',#1895);
#588=VERTEX_POINT('',#1896);
#589=VERTEX_POINT('',#1898);
#590=VERTEX_POINT('',#1900);
#591=VERTEX_POINT('',#1902);
#592=VERTEX_POINT('',#1904);
#593=VERTEX_POINT('',#1908);
#594=VERTEX_POINT('',#1910);
#595=VERTEX_POINT('',#1914);
#596=VERTEX_POINT('',#1918);
#597=VERTEX_POINT('',#1925);
#598=VERTEX_POINT('',#1927);
#599=VERTEX_POINT('',#1931);
#600=VERTEX_POINT('',#1935);
#601=VERTEX_POINT('',#1939);
#602=VERTEX_POINT('',#1943);
#603=VERTEX_POINT('',#1950);
#604=LINE('',#1637,#708);
#605=LINE('',#1640,#709);
#606=LINE('',#1642,#710);
#607=LINE('',#1644,#711);
#608=LINE('',#1648,#712);
#609=LINE('',#1650,#713);
#610=LINE('',#1652,#714);
#611=LINE('',#1654,#715);
#612=LINE('',#1656,#716);
#613=LINE('',#1658,#717);
#614=LINE('',#1662,#718);
#615=LINE('',#1663,#719);
#616=LINE('',#1679,#720);
#617=LINE('',#1682,#721);
#618=LINE('',#1684,#722);
#619=LINE('',#1686,#723);
#620=LINE('',#1690,#724);
#621=LINE('',#1693,#725);
#622=LINE('',#1695,#726);
#623=LINE('',#1697,#727);
#624=LINE('',#1703,#728);
#625=LINE('',#1704,#729);
#626=LINE('',#1706,#730);
#627=LINE('',#1708,#731);
#628=LINE('',#1716,#732);
#629=LINE('',#1719,#733);
#630=LINE('',#1721,#734);
#631=LINE('',#1723,#735);
#632=LINE('',#1727,#736);
#633=LINE('',#1730,#737);
#634=LINE('',#1732,#738);
#635=LINE('',#1734,#739);
#636=LINE('',#1740,#740);
#637=LINE('',#1741,#741);
#638=LINE('',#1743,#742);
#639=LINE('',#1745,#743);
#640=LINE('',#1751,#744);
#641=LINE('',#1754,#745);
#642=LINE('',#1756,#746);
#643=LINE('',#1758,#747);
#644=LINE('',#1760,#748);
#645=LINE('',#1763,#749);
#646=LINE('',#1765,#750);
#647=LINE('',#1767,#751);
#648=LINE('',#1772,#752);
#649=LINE('',#1776,#753);
#650=LINE('',#1777,#754);
#651=LINE('',#1780,#755);
#652=LINE('',#1784,#756);
#653=LINE('',#1788,#757);
#654=LINE('',#1790,#758);
#655=LINE('',#1792,#759);
#656=LINE('',#1794,#760);
#657=LINE('',#1795,#761);
#658=LINE('',#1796,#762);
#659=LINE('',#1798,#763);
#660=LINE('',#1800,#764);
#661=LINE('',#1802,#765);
#662=LINE('',#1804,#766);
#663=LINE('',#1806,#767);
#664=LINE('',#1808,#768);
#665=LINE('',#1810,#769);
#666=LINE('',#1812,#770);
#667=LINE('',#1816,#771);
#668=LINE('',#1818,#772);
#669=LINE('',#1820,#773);
#670=LINE('',#1821,#774);
#671=LINE('',#1822,#775);
#672=LINE('',#1824,#776);
#673=LINE('',#1826,#777);
#674=LINE('',#1828,#778);
#675=LINE('',#1829,#779);
#676=LINE('',#1831,#780);
#677=LINE('',#1833,#781);
#678=LINE('',#1837,#782);
#679=LINE('',#1839,#783);
#680=LINE('',#1841,#784);
#681=LINE('',#1843,#785);
#682=LINE('',#1847,#786);
#683=LINE('',#1852,#787);
#684=LINE('',#1855,#788);
#685=LINE('',#1857,#789);
#686=LINE('',#1860,#790);
#687=LINE('',#1862,#791);
#688=LINE('',#1877,#792);
#689=LINE('',#1881,#793);
#690=LINE('',#1907,#794);
#691=LINE('',#1909,#795);
#692=LINE('',#1911,#796);
#693=LINE('',#1913,#797);
#694=LINE('',#1917,#798);
#695=LINE('',#1919,#799);
#696=LINE('',#1924,#800);
#697=LINE('',#1926,#801);
#698=LINE('',#1928,#802);
#699=LINE('',#1930,#803);
#700=LINE('',#1932,#804);
#701=LINE('',#1934,#805);
#702=LINE('',#1936,#806);
#703=LINE('',#1938,#807);
#704=LINE('',#1940,#808);
#705=LINE('',#1942,#809);
#706=LINE('',#1944,#810);
#707=LINE('',#1946,#811);
#708=VECTOR('',#1313,1.);
#709=VECTOR('',#1314,1.);
#710=VECTOR('',#1315,1.);
#711=VECTOR('',#1316,1.);
#712=VECTOR('',#1321,1.);
#713=VECTOR('',#1322,1.);
#714=VECTOR('',#1323,1.);
#715=VECTOR('',#1326,1.);
#716=VECTOR('',#1327,1.);
#717=VECTOR('',#1328,1.);
#718=VECTOR('',#1333,1.);
#719=VECTOR('',#1334,1.);
#720=VECTOR('',#1359,1.);
#721=VECTOR('',#1360,1.);
#722=VECTOR('',#1361,1.);
#723=VECTOR('',#1362,1.);
#724=VECTOR('',#1367,1.);
#725=VECTOR('',#1368,1.);
#726=VECTOR('',#1369,1.);
#727=VECTOR('',#1370,1.);
#728=VECTOR('',#1377,1.);
#729=VECTOR('',#1378,1.);
#730=VECTOR('',#1381,1.);
#731=VECTOR('',#1384,1.);
#732=VECTOR('',#1397,1.);
#733=VECTOR('',#1398,1.);
#734=VECTOR('',#1399,1.);
#735=VECTOR('',#1400,1.);
#736=VECTOR('',#1405,1.);
#737=VECTOR('',#1406,1.);
#738=VECTOR('',#1407,1.);
#739=VECTOR('',#1408,1.);
#740=VECTOR('',#1415,1.);
#741=VECTOR('',#1416,1.);
#742=VECTOR('',#1419,1.);
#743=VECTOR('',#1422,1.);
#744=VECTOR('',#1433,1.);
#745=VECTOR('',#1434,1.);
#746=VECTOR('',#1435,1.);
#747=VECTOR('',#1436,1.);
#748=VECTOR('',#1439,1.);
#749=VECTOR('',#1440,1.);
#750=VECTOR('',#1441,1.);
#751=VECTOR('',#1442,1.);
#752=VECTOR('',#1447,1.);
#753=VECTOR('',#1450,1.);
#754=VECTOR('',#1451,1.);
#755=VECTOR('',#1452,1.);
#756=VECTOR('',#1455,1.);
#757=VECTOR('',#1460,1.);
#758=VECTOR('',#1461,1.);
#759=VECTOR('',#1462,1.);
#760=VECTOR('',#1463,1.);
#761=VECTOR('',#1464,1.);
#762=VECTOR('',#1465,1.);
#763=VECTOR('',#1466,1.);
#764=VECTOR('',#1467,1.);
#765=VECTOR('',#1468,1.);
#766=VECTOR('',#1469,1.);
#767=VECTOR('',#1470,1.);
#768=VECTOR('',#1473,1.);
#769=VECTOR('',#1474,1.);
#770=VECTOR('',#1475,1.);
#771=VECTOR('',#1480,1.);
#772=VECTOR('',#1481,1.);
#773=VECTOR('',#1482,1.);
#774=VECTOR('',#1483,1.);
#775=VECTOR('',#1484,1.);
#776=VECTOR('',#1485,1.);
#777=VECTOR('',#1486,1.);
#778=VECTOR('',#1487,1.);
#779=VECTOR('',#1488,1.);
#780=VECTOR('',#1489,1.);
#781=VECTOR('',#1492,1.);
#782=VECTOR('',#1495,1.);
#783=VECTOR('',#1498,1.);
#784=VECTOR('',#1499,1.);
#785=VECTOR('',#1502,1.);
#786=VECTOR('',#1507,1.);
#787=VECTOR('',#1516,1.);
#788=VECTOR('',#1521,1.);
#789=VECTOR('',#1524,1.);
#790=VECTOR('',#1529,1.);
#791=VECTOR('',#1532,1.);
#792=VECTOR('',#1551,1.);
#793=VECTOR('',#1554,1.);
#794=VECTOR('',#1585,1.);
#795=VECTOR('',#1586,1.);
#796=VECTOR('',#1587,1.);
#797=VECTOR('',#1590,1.);
#798=VECTOR('',#1595,1.);
#799=VECTOR('',#1596,1.);
#800=VECTOR('',#1605,1.);
#801=VECTOR('',#1606,1.);
#802=VECTOR('',#1607,1.);
#803=VECTOR('',#1610,1.);
#804=VECTOR('',#1611,1.);
#805=VECTOR('',#1614,1.);
#806=VECTOR('',#1615,1.);
#807=VECTOR('',#1618,1.);
#808=VECTOR('',#1619,1.);
#809=VECTOR('',#1622,1.);
#810=VECTOR('',#1623,1.);
#811=VECTOR('',#1626,1.);
#812=EDGE_LOOP('',(#76,#77,#78,#79));
#813=EDGE_LOOP('',(#80));
#814=EDGE_LOOP('',(#81,#82,#83,#84));
#815=EDGE_LOOP('',(#85,#86,#87,#88));
#816=EDGE_LOOP('',(#89));
#817=EDGE_LOOP('',(#90,#91,#92,#93));
#818=EDGE_LOOP('',(#94,#95,#96,#97));
#819=EDGE_LOOP('',(#98,#99,#100,#101));
#820=EDGE_LOOP('',(#102));
#821=EDGE_LOOP('',(#103));
#822=EDGE_LOOP('',(#104));
#823=EDGE_LOOP('',(#105));
#824=EDGE_LOOP('',(#106));
#825=EDGE_LOOP('',(#107));
#826=EDGE_LOOP('',(#108));
#827=EDGE_LOOP('',(#109,#110,#111,#112));
#828=EDGE_LOOP('',(#113));
#829=EDGE_LOOP('',(#114,#115,#116,#117));
#830=EDGE_LOOP('',(#118));
#831=EDGE_LOOP('',(#119));
#832=EDGE_LOOP('',(#120,#121,#122,#123));
#833=EDGE_LOOP('',(#124,#125,#126,#127));
#834=EDGE_LOOP('',(#128,#129,#130,#131));
#835=EDGE_LOOP('',(#132,#133,#134,#135));
#836=EDGE_LOOP('',(#136));
#837=EDGE_LOOP('',(#137));
#838=EDGE_LOOP('',(#138));
#839=EDGE_LOOP('',(#139));
#840=EDGE_LOOP('',(#140));
#841=EDGE_LOOP('',(#141,#142,#143,#144));
#842=EDGE_LOOP('',(#145));
#843=EDGE_LOOP('',(#146,#147,#148,#149));
#844=EDGE_LOOP('',(#150));
#845=EDGE_LOOP('',(#151));
#846=EDGE_LOOP('',(#152,#153,#154,#155));
#847=EDGE_LOOP('',(#156,#157,#158,#159));
#848=EDGE_LOOP('',(#160,#161,#162,#163));
#849=EDGE_LOOP('',(#164,#165,#166,#167));
#850=EDGE_LOOP('',(#168));
#851=EDGE_LOOP('',(#169));
#852=EDGE_LOOP('',(#170));
#853=EDGE_LOOP('',(#171));
#854=EDGE_LOOP('',(#172,#173,#174,#175));
#855=EDGE_LOOP('',(#176,#177,#178,#179));
#856=EDGE_LOOP('',(#180,#181,#182,#183));
#857=EDGE_LOOP('',(#184,#185,#186,#187));
#858=EDGE_LOOP('',(#188));
#859=EDGE_LOOP('',(#189,#190,#191,#192,#193,#194,#195,#196,#197,#198,#199,
#200,#201,#202));
#860=EDGE_LOOP('',(#203,#204,#205,#206));
#861=EDGE_LOOP('',(#207));
#862=EDGE_LOOP('',(#208,#209,#210,#211,#212,#213,#214,#215,#216,#217,#218,
#219,#220,#221));
#863=EDGE_LOOP('',(#222,#223,#224,#225));
#864=EDGE_LOOP('',(#226,#227,#228,#229));
#865=EDGE_LOOP('',(#230,#231,#232,#233));
#866=EDGE_LOOP('',(#234,#235,#236,#237));
#867=EDGE_LOOP('',(#238,#239,#240,#241));
#868=EDGE_LOOP('',(#242,#243,#244,#245));
#869=EDGE_LOOP('',(#246,#247,#248,#249));
#870=EDGE_LOOP('',(#250,#251,#252,#253));
#871=EDGE_LOOP('',(#254,#255,#256,#257));
#872=EDGE_LOOP('',(#258,#259,#260,#261));
#873=EDGE_LOOP('',(#262,#263,#264,#265));
#874=EDGE_LOOP('',(#266,#267,#268,#269));
#875=EDGE_LOOP('',(#270,#271,#272,#273));
#876=EDGE_LOOP('',(#274,#275,#276,#277));
#877=EDGE_LOOP('',(#278,#279,#280,#281));
#878=EDGE_LOOP('',(#282));
#879=EDGE_LOOP('',(#283));
#880=EDGE_LOOP('',(#284));
#881=EDGE_LOOP('',(#285));
#882=EDGE_LOOP('',(#286));
#883=EDGE_LOOP('',(#287,#288,#289,#290));
#884=EDGE_LOOP('',(#291));
#885=EDGE_LOOP('',(#292));
#886=EDGE_LOOP('',(#293));
#887=EDGE_LOOP('',(#294));
#888=EDGE_LOOP('',(#295));
#889=EDGE_LOOP('',(#296));
#890=EDGE_LOOP('',(#297,#298,#299,#300,#301,#302));
#891=EDGE_LOOP('',(#303));
#892=EDGE_LOOP('',(#304));
#893=EDGE_LOOP('',(#305));
#894=EDGE_LOOP('',(#306,#307,#308,#309));
#895=EDGE_LOOP('',(#310,#311,#312,#313));
#896=EDGE_LOOP('',(#314,#315,#316,#317));
#897=EDGE_LOOP('',(#318,#319,#320,#321));
#898=EDGE_LOOP('',(#322,#323,#324,#325));
#899=EDGE_LOOP('',(#326,#327,#328,#329));
#900=EDGE_LOOP('',(#330,#331,#332,#333));
#901=EDGE_LOOP('',(#334,#335,#336,#337));
#902=EDGE_LOOP('',(#338,#339,#340,#341));
#903=EDGE_LOOP('',(#342,#343,#344,#345));
#904=EDGE_LOOP('',(#346,#347,#348,#349));
#905=EDGE_LOOP('',(#350));
#906=EDGE_LOOP('',(#351,#352,#353,#354,#355,#356));
#907=EDGE_LOOP('',(#357));
#908=EDGE_LOOP('',(#358));
#909=EDGE_LOOP('',(#359));
#910=FACE_BOUND('',#812,.T.);
#911=FACE_BOUND('',#813,.T.);
#912=FACE_BOUND('',#814,.T.);
#913=FACE_BOUND('',#815,.T.);
#914=FACE_BOUND('',#816,.T.);
#915=FACE_BOUND('',#817,.T.);
#916=FACE_BOUND('',#818,.T.);
#917=FACE_BOUND('',#819,.T.);
#918=FACE_BOUND('',#820,.T.);
#919=FACE_BOUND('',#821,.T.);
#920=FACE_BOUND('',#822,.T.);
#921=FACE_BOUND('',#823,.T.);
#922=FACE_BOUND('',#824,.T.);
#923=FACE_BOUND('',#825,.T.);
#924=FACE_BOUND('',#826,.T.);
#925=FACE_BOUND('',#827,.T.);
#926=FACE_BOUND('',#828,.T.);
#927=FACE_BOUND('',#829,.T.);
#928=FACE_BOUND('',#830,.T.);
#929=FACE_BOUND('',#831,.T.);
#930=FACE_BOUND('',#832,.T.);
#931=FACE_BOUND('',#833,.T.);
#932=FACE_BOUND('',#834,.T.);
#933=FACE_BOUND('',#835,.T.);
#934=FACE_BOUND('',#836,.T.);
#935=FACE_BOUND('',#837,.T.);
#936=FACE_BOUND('',#838,.T.);
#937=FACE_BOUND('',#839,.T.);
#938=FACE_BOUND('',#840,.T.);
#939=FACE_BOUND('',#841,.T.);
#940=FACE_BOUND('',#842,.T.);
#941=FACE_BOUND('',#843,.T.);
#942=FACE_BOUND('',#844,.T.);
#943=FACE_BOUND('',#845,.T.);
#944=FACE_BOUND('',#846,.T.);
#945=FACE_BOUND('',#847,.T.);
#946=FACE_BOUND('',#848,.T.);
#947=FACE_BOUND('',#849,.T.);
#948=FACE_BOUND('',#850,.T.);
#949=FACE_BOUND('',#851,.T.);
#950=FACE_BOUND('',#852,.T.);
#951=FACE_BOUND('',#853,.T.);
#952=FACE_BOUND('',#854,.T.);
#953=FACE_BOUND('',#855,.T.);
#954=FACE_BOUND('',#856,.T.);
#955=FACE_BOUND('',#857,.T.);
#956=FACE_BOUND('',#858,.T.);
#957=FACE_BOUND('',#859,.T.);
#958=FACE_BOUND('',#860,.T.);
#959=FACE_BOUND('',#861,.T.);
#960=FACE_BOUND('',#862,.T.);
#961=FACE_BOUND('',#863,.T.);
#962=FACE_BOUND('',#864,.T.);
#963=FACE_BOUND('',#865,.T.);
#964=FACE_BOUND('',#866,.T.);
#965=FACE_BOUND('',#867,.T.);
#966=FACE_BOUND('',#868,.T.);
#967=FACE_BOUND('',#869,.T.);
#968=FACE_BOUND('',#870,.T.);
#969=FACE_BOUND('',#871,.T.);
#970=FACE_BOUND('',#872,.T.);
#971=FACE_BOUND('',#873,.T.);
#972=FACE_BOUND('',#874,.T.);
#973=FACE_BOUND('',#875,.T.);
#974=FACE_BOUND('',#876,.T.);
#975=FACE_BOUND('',#877,.T.);
#976=FACE_BOUND('',#878,.T.);
#977=FACE_BOUND('',#879,.T.);
#978=FACE_BOUND('',#880,.T.);
#979=FACE_BOUND('',#881,.T.);
#980=FACE_BOUND('',#882,.T.);
#981=FACE_BOUND('',#883,.T.);
#982=FACE_BOUND('',#884,.T.);
#983=FACE_BOUND('',#885,.T.);
#984=FACE_BOUND('',#886,.T.);
#985=FACE_BOUND('',#887,.T.);
#986=FACE_BOUND('',#888,.T.);
#987=FACE_BOUND('',#889,.T.);
#988=FACE_BOUND('',#890,.T.);
#989=FACE_BOUND('',#891,.T.);
#990=FACE_BOUND('',#892,.T.);
#991=FACE_BOUND('',#893,.T.);
#992=FACE_BOUND('',#894,.T.);
#993=FACE_BOUND('',#895,.T.);
#994=FACE_BOUND('',#896,.T.);
#995=FACE_BOUND('',#897,.T.);
#996=FACE_BOUND('',#898,.T.);
#997=FACE_BOUND('',#899,.T.);
#998=FACE_BOUND('',#900,.T.);
#999=FACE_BOUND('',#901,.T.);
#1000=FACE_BOUND('',#902,.T.);
#1001=FACE_BOUND('',#903,.T.);
#1002=FACE_BOUND('',#904,.T.);
#1003=FACE_BOUND('',#905,.T.);
#1004=FACE_BOUND('',#906,.T.);
#1005=FACE_BOUND('',#907,.T.);
#1006=FACE_BOUND('',#908,.T.);
#1007=FACE_BOUND('',#909,.T.);
#1008=PLANE('',#1199);
#1009=PLANE('',#1200);
#1010=PLANE('',#1202);
#1011=PLANE('',#1203);
#1012=PLANE('',#1205);
#1013=PLANE('',#1206);
#1014=PLANE('',#1212);
#1015=PLANE('',#1213);
#1016=PLANE('',#1215);
#1017=PLANE('',#1218);
#1018=PLANE('',#1221);
#1019=PLANE('',#1222);
#1020=PLANE('',#1223);
#1021=PLANE('',#1224);
#1022=PLANE('',#1228);
#1023=PLANE('',#1231);
#1024=PLANE('',#1234);
#1025=PLANE('',#1235);
#1026=PLANE('',#1236);
#1027=PLANE('',#1237);
#1028=PLANE('',#1241);
#1029=PLANE('',#1242);
#1030=PLANE('',#1243);
#1031=PLANE('',#1247);
#1032=PLANE('',#1249);
#1033=PLANE('',#1250);
#1034=PLANE('',#1254);
#1035=PLANE('',#1257);
#1036=PLANE('',#1260);
#1037=PLANE('',#1261);
#1038=PLANE('',#1262);
#1039=PLANE('',#1263);
#1040=PLANE('',#1264);
#1041=PLANE('',#1265);
#1042=PLANE('',#1266);
#1043=PLANE('',#1267);
#1044=PLANE('',#1268);
#1045=PLANE('',#1274);
#1046=PLANE('',#1281);
#1047=PLANE('',#1283);
#1048=PLANE('',#1292);
#1049=PLANE('',#1295);
#1050=PLANE('',#1298);
#1051=PLANE('',#1299);
#1052=PLANE('',#1300);
#1053=PLANE('',#1301);
#1054=PLANE('',#1302);
#1055=PLANE('',#1303);
#1056=PLANE('',#1304);
#1057=PLANE('',#1305);
#1058=PLANE('',#1308);
#1059=ADVANCED_FACE('',(#910),#1008,.F.);
#1060=ADVANCED_FACE('',(#911,#912),#1009,.F.);
#1061=ADVANCED_FACE('',(#913),#1010,.F.);
#1062=ADVANCED_FACE('',(#914,#915),#1011,.T.);
#1063=ADVANCED_FACE('',(#916),#1012,.T.);
#1064=ADVANCED_FACE('',(#917),#1013,.F.);
#1065=ADVANCED_FACE('',(#918,#919),#26,.F.);
#1066=ADVANCED_FACE('',(#920,#921),#27,.T.);
#1067=ADVANCED_FACE('',(#922),#1014,.T.);
#1068=ADVANCED_FACE('',(#923),#1015,.F.);
#1069=ADVANCED_FACE('',(#924,#925,#926),#1016,.T.);
#1070=ADVANCED_FACE('',(#927,#928,#929),#1017,.F.);
#1071=ADVANCED_FACE('',(#930),#1018,.T.);
#1072=ADVANCED_FACE('',(#931),#1019,.F.);
#1073=ADVANCED_FACE('',(#932),#1020,.F.);
#1074=ADVANCED_FACE('',(#933),#1021,.T.);
#1075=ADVANCED_FACE('',(#934,#935),#28,.F.);
#1076=ADVANCED_FACE('',(#936,#937),#29,.F.);
#1077=ADVANCED_FACE('',(#938,#939,#940),#1022,.T.);
#1078=ADVANCED_FACE('',(#941,#942,#943),#1023,.F.);
#1079=ADVANCED_FACE('',(#944),#1024,.T.);
#1080=ADVANCED_FACE('',(#945),#1025,.F.);
#1081=ADVANCED_FACE('',(#946),#1026,.F.);
#1082=ADVANCED_FACE('',(#947),#1027,.T.);
#1083=ADVANCED_FACE('',(#948,#949),#30,.F.);
#1084=ADVANCED_FACE('',(#950,#951),#31,.F.);
#1085=ADVANCED_FACE('',(#952),#1028,.F.);
#1086=ADVANCED_FACE('',(#953),#1029,.T.);
#1087=ADVANCED_FACE('',(#954,#955),#1030,.F.);
#1088=ADVANCED_FACE('',(#956,#957),#1031,.T.);
#1089=ADVANCED_FACE('',(#958),#1032,.T.);
#1090=ADVANCED_FACE('',(#959,#960),#1033,.F.);
#1091=ADVANCED_FACE('',(#961),#32,.F.);
#1092=ADVANCED_FACE('',(#962),#1034,.T.);
#1093=ADVANCED_FACE('',(#963),#33,.F.);
#1094=ADVANCED_FACE('',(#964),#1035,.F.);
#1095=ADVANCED_FACE('',(#965),#34,.T.);
#1096=ADVANCED_FACE('',(#966,#967),#1036,.T.);
#1097=ADVANCED_FACE('',(#968),#1037,.F.);
#1098=ADVANCED_FACE('',(#969),#1038,.T.);
#1099=ADVANCED_FACE('',(#970),#1039,.F.);
#1100=ADVANCED_FACE('',(#971),#1040,.T.);
#1101=ADVANCED_FACE('',(#972),#1041,.T.);
#1102=ADVANCED_FACE('',(#973),#1042,.T.);
#1103=ADVANCED_FACE('',(#974),#1043,.F.);
#1104=ADVANCED_FACE('',(#975),#1044,.T.);
#1105=ADVANCED_FACE('',(#976,#977),#35,.F.);
#1106=ADVANCED_FACE('',(#978,#979),#36,.F.);
#1107=ADVANCED_FACE('',(#980,#981),#1045,.T.);
#1108=ADVANCED_FACE('',(#982,#983),#37,.T.);
#1109=ADVANCED_FACE('',(#984,#985),#1046,.T.);
#1110=ADVANCED_FACE('',(#986,#987),#1047,.F.);
#1111=ADVANCED_FACE('',(#988,#989,#990),#38,.T.);
#1112=ADVANCED_FACE('',(#991,#992),#1048,.T.);
#1113=ADVANCED_FACE('',(#993),#39,.F.);
#1114=ADVANCED_FACE('',(#994),#1049,.F.);
#1115=ADVANCED_FACE('',(#995),#40,.F.);
#1116=ADVANCED_FACE('',(#996),#1050,.T.);
#1117=ADVANCED_FACE('',(#997),#1051,.F.);
#1118=ADVANCED_FACE('',(#998),#1052,.F.);
#1119=ADVANCED_FACE('',(#999),#1053,.F.);
#1120=ADVANCED_FACE('',(#1000),#1054,.F.);
#1121=ADVANCED_FACE('',(#1001),#1055,.F.);
#1122=ADVANCED_FACE('',(#1002),#1056,.F.);
#1123=ADVANCED_FACE('',(#1003,#1004),#1057,.T.);
#1124=ADVANCED_FACE('',(#1005,#1006),#41,.F.);
#1125=ADVANCED_FACE('',(#1007),#1058,.T.);
#1126=CLOSED_SHELL('',(#1059,#1060,#1061,#1062,#1063,#1064,#1065));
#1127=CLOSED_SHELL('',(#1066,#1067,#1068));
#1128=CLOSED_SHELL('',(#1069,#1070,#1071,#1072,#1073,#1074,#1075,#1076));
#1129=CLOSED_SHELL('',(#1077,#1078,#1079,#1080,#1081,#1082,#1083,#1084));
#1130=CLOSED_SHELL('',(#1085,#1086,#1087,#1088,#1089,#1090,#1091,#1092,
#1093,#1094,#1095,#1096,#1097,#1098,#1099,#1100,#1101,#1102,#1103,#1104,
#1105));
#1131=CLOSED_SHELL('',(#1106,#1107,#1108,#1109,#1110,#1111,#1112,#1113,
#1114,#1115,#1116,#1117,#1118,#1119,#1120,#1121,#1122,#1123,#1124,#1125));
#1132=STYLED_ITEM('',(#1138),#1180);
#1133=STYLED_ITEM('',(#1139),#1181);
#1134=STYLED_ITEM('',(#1140),#1182);
#1135=STYLED_ITEM('',(#1141),#1183);
#1136=STYLED_ITEM('',(#1142),#1184);
#1137=STYLED_ITEM('',(#1143),#1185);
#1138=PRESENTATION_STYLE_ASSIGNMENT((#1144));
#1139=PRESENTATION_STYLE_ASSIGNMENT((#1145));
#1140=PRESENTATION_STYLE_ASSIGNMENT((#1146));
#1141=PRESENTATION_STYLE_ASSIGNMENT((#1147));
#1142=PRESENTATION_STYLE_ASSIGNMENT((#1148));
#1143=PRESENTATION_STYLE_ASSIGNMENT((#1149));
#1144=SURFACE_STYLE_USAGE(.BOTH.,#1150);
#1145=SURFACE_STYLE_USAGE(.BOTH.,#1151);
#1146=SURFACE_STYLE_USAGE(.BOTH.,#1152);
#1147=SURFACE_STYLE_USAGE(.BOTH.,#1153);
#1148=SURFACE_STYLE_USAGE(.BOTH.,#1154);
#1149=SURFACE_STYLE_USAGE(.BOTH.,#1155);
#1150=SURFACE_SIDE_STYLE('',(#1156));
#1151=SURFACE_SIDE_STYLE('',(#1157));
#1152=SURFACE_SIDE_STYLE('',(#1158));
#1153=SURFACE_SIDE_STYLE('',(#1159));
#1154=SURFACE_SIDE_STYLE('',(#1160));
#1155=SURFACE_SIDE_STYLE('',(#1161));
#1156=SURFACE_STYLE_FILL_AREA(#1162);
#1157=SURFACE_STYLE_FILL_AREA(#1163);
#1158=SURFACE_STYLE_FILL_AREA(#1164);
#1159=SURFACE_STYLE_FILL_AREA(#1165);
#1160=SURFACE_STYLE_FILL_AREA(#1166);
#1161=SURFACE_STYLE_FILL_AREA(#1167);
#1162=FILL_AREA_STYLE('',(#1168));
#1163=FILL_AREA_STYLE('',(#1169));
#1164=FILL_AREA_STYLE('',(#1170));
#1165=FILL_AREA_STYLE('',(#1171));
#1166=FILL_AREA_STYLE('',(#1172));
#1167=FILL_AREA_STYLE('',(#1173));
#1168=FILL_AREA_STYLE_COLOUR('',#1174);
#1169=FILL_AREA_STYLE_COLOUR('',#1175);
#1170=FILL_AREA_STYLE_COLOUR('',#1176);
#1171=FILL_AREA_STYLE_COLOUR('',#1177);
#1172=FILL_AREA_STYLE_COLOUR('',#1178);
#1173=FILL_AREA_STYLE_COLOUR('',#1179);
#1174=COLOUR_RGB('',0.917647058823529,0.917647058823529,0.917647058823529);
#1175=COLOUR_RGB('',0.647058823529412,0.647058823529412,0.647058823529412);
#1176=COLOUR_RGB('',0.768627450980392,0.886274509803922,0.952941176470588);
#1177=COLOUR_RGB('',0.972549019607843,0.529411764705882,0.00392156862745098);
#1178=COLOUR_RGB('',0.231372549019608,0.380392156862745,0.705882352941177);
#1179=COLOUR_RGB('',0.615686274509804,0.811764705882353,0.929411764705882);
#1180=MANIFOLD_SOLID_BREP('Part 4',#1126);
#1181=MANIFOLD_SOLID_BREP('Part 2',#1127);
#1182=MANIFOLD_SOLID_BREP('Part 5',#1128);
#1183=MANIFOLD_SOLID_BREP('Part 6',#1129);
#1184=MANIFOLD_SOLID_BREP('Part 3',#1130);
#1185=MANIFOLD_SOLID_BREP('Part 1',#1131);
#1186=SHAPE_DEFINITION_REPRESENTATION(#1988,#1192);
#1187=SHAPE_DEFINITION_REPRESENTATION(#1989,#1193);
#1188=SHAPE_DEFINITION_REPRESENTATION(#1990,#1194);
#1189=SHAPE_DEFINITION_REPRESENTATION(#1991,#1195);
#1190=SHAPE_DEFINITION_REPRESENTATION(#1992,#1196);
#1191=SHAPE_DEFINITION_REPRESENTATION(#1993,#1197);
#1192=SHAPE_REPRESENTATION('Part 4',(#1198),#1958);
#1193=SHAPE_REPRESENTATION('Part 2',(#1208),#1959);
#1194=SHAPE_REPRESENTATION('Part 5',(#1214),#1960);
#1195=SHAPE_REPRESENTATION('Part 6',(#1227),#1961);
#1196=SHAPE_REPRESENTATION('Part 3',(#1240),#1962);
#1197=SHAPE_REPRESENTATION('Part 1',(#1270),#1963);
#1198=AXIS2_PLACEMENT_3D('',#1635,#1309,#1310);
#1199=AXIS2_PLACEMENT_3D('',#1636,#1311,#1312);
#1200=AXIS2_PLACEMENT_3D('',#1645,#1317,#1318);
#1201=AXIS2_PLACEMENT_3D('',#1646,#1319,#1320);
#1202=AXIS2_PLACEMENT_3D('',#1653,#1324,#1325);
#1203=AXIS2_PLACEMENT_3D('',#1659,#1329,#1330);
#1204=AXIS2_PLACEMENT_3D('',#1660,#1331,#1332);
#1205=AXIS2_PLACEMENT_3D('',#1664,#1335,#1336);
#1206=AXIS2_PLACEMENT_3D('',#1665,#1337,#1338);
#1207=AXIS2_PLACEMENT_3D('',#1666,#1339,#1340);
#1208=AXIS2_PLACEMENT_3D('',#1667,#1341,#1342);
#1209=AXIS2_PLACEMENT_3D('',#1668,#1343,#1344);
#1210=AXIS2_PLACEMENT_3D('',#1669,#1345,#1346);
#1211=AXIS2_PLACEMENT_3D('',#1671,#1347,#1348);
#1212=AXIS2_PLACEMENT_3D('',#1673,#1349,#1350);
#1213=AXIS2_PLACEMENT_3D('',#1674,#1351,#1352);
#1214=AXIS2_PLACEMENT_3D('',#1675,#1353,#1354);
#1215=AXIS2_PLACEMENT_3D('',#1676,#1355,#1356);
#1216=AXIS2_PLACEMENT_3D('',#1677,#1357,#1358);
#1217=AXIS2_PLACEMENT_3D('',#1687,#1363,#1364);
#1218=AXIS2_PLACEMENT_3D('',#1689,#1365,#1366);
#1219=AXIS2_PLACEMENT_3D('',#1698,#1371,#1372);
#1220=AXIS2_PLACEMENT_3D('',#1700,#1373,#1374);
#1221=AXIS2_PLACEMENT_3D('',#1702,#1375,#1376);
#1222=AXIS2_PLACEMENT_3D('',#1705,#1379,#1380);
#1223=AXIS2_PLACEMENT_3D('',#1707,#1382,#1383);
#1224=AXIS2_PLACEMENT_3D('',#1709,#1385,#1386);
#1225=AXIS2_PLACEMENT_3D('',#1710,#1387,#1388);
#1226=AXIS2_PLACEMENT_3D('',#1711,#1389,#1390);
#1227=AXIS2_PLACEMENT_3D('',#1712,#1391,#1392);
#1228=AXIS2_PLACEMENT_3D('',#1713,#1393,#1394);
#1229=AXIS2_PLACEMENT_3D('',#1714,#1395,#1396);
#1230=AXIS2_PLACEMENT_3D('',#1724,#1401,#1402);
#1231=AXIS2_PLACEMENT_3D('',#1726,#1403,#1404);
#1232=AXIS2_PLACEMENT_3D('',#1735,#1409,#1410);
#1233=AXIS2_PLACEMENT_3D('',#1737,#1411,#1412);
#1234=AXIS2_PLACEMENT_3D('',#1739,#1413,#1414);
#1235=AXIS2_PLACEMENT_3D('',#1742,#1417,#1418);
#1236=AXIS2_PLACEMENT_3D('',#1744,#1420,#1421);
#1237=AXIS2_PLACEMENT_3D('',#1746,#1423,#1424);
#1238=AXIS2_PLACEMENT_3D('',#1747,#1425,#1426);
#1239=AXIS2_PLACEMENT_3D('',#1748,#1427,#1428);
#1240=AXIS2_PLACEMENT_3D('',#1749,#1429,#1430);
#1241=AXIS2_PLACEMENT_3D('',#1750,#1431,#1432);
#1242=AXIS2_PLACEMENT_3D('',#1759,#1437,#1438);
#1243=AXIS2_PLACEMENT_3D('',#1768,#1443,#1444);
#1244=AXIS2_PLACEMENT_3D('',#1769,#1445,#1446);
#1245=AXIS2_PLACEMENT_3D('',#1774,#1448,#1449);
#1246=AXIS2_PLACEMENT_3D('',#1782,#1453,#1454);
#1247=AXIS2_PLACEMENT_3D('',#1785,#1456,#1457);
#1248=AXIS2_PLACEMENT_3D('',#1786,#1458,#1459);
#1249=AXIS2_PLACEMENT_3D('',#1807,#1471,#1472);
#1250=AXIS2_PLACEMENT_3D('',#1813,#1476,#1477);
#1251=AXIS2_PLACEMENT_3D('',#1814,#1478,#1479);
#1252=AXIS2_PLACEMENT_3D('',#1832,#1490,#1491);
#1253=AXIS2_PLACEMENT_3D('',#1835,#1493,#1494);
#1254=AXIS2_PLACEMENT_3D('',#1838,#1496,#1497);
#1255=AXIS2_PLACEMENT_3D('',#1842,#1500,#1501);
#1256=AXIS2_PLACEMENT_3D('',#1845,#1503,#1504);
#1257=AXIS2_PLACEMENT_3D('',#1846,#1505,#1506);
#1258=AXIS2_PLACEMENT_3D('',#1848,#1508,#1509);
#1259=AXIS2_PLACEMENT_3D('',#1849,#1510,#1511);
#1260=AXIS2_PLACEMENT_3D('',#1850,#1512,#1513);
#1261=AXIS2_PLACEMENT_3D('',#1851,#1514,#1515);
#1262=AXIS2_PLACEMENT_3D('',#1853,#1517,#1518);
#1263=AXIS2_PLACEMENT_3D('',#1854,#1519,#1520);
#1264=AXIS2_PLACEMENT_3D('',#1856,#1522,#1523);
#1265=AXIS2_PLACEMENT_3D('',#1858,#1525,#1526);
#1266=AXIS2_PLACEMENT_3D('',#1859,#1527,#1528);
#1267=AXIS2_PLACEMENT_3D('',#1861,#1530,#1531);
#1268=AXIS2_PLACEMENT_3D('',#1863,#1533,#1534);
#1269=AXIS2_PLACEMENT_3D('',#1864,#1535,#1536);
#1270=AXIS2_PLACEMENT_3D('',#1865,#1537,#1538);
#1271=AXIS2_PLACEMENT_3D('',#1866,#1539,#1540);
#1272=AXIS2_PLACEMENT_3D('',#1867,#1541,#1542);
#1273=AXIS2_PLACEMENT_3D('',#1869,#1543,#1544);
#1274=AXIS2_PLACEMENT_3D('',#1871,#1545,#1546);
#1275=AXIS2_PLACEMENT_3D('',#1872,#1547,#1548);
#1276=AXIS2_PLACEMENT_3D('',#1874,#1549,#1550);
#1277=AXIS2_PLACEMENT_3D('',#1879,#1552,#1553);
#1278=AXIS2_PLACEMENT_3D('',#1882,#1555,#1556);
#1279=AXIS2_PLACEMENT_3D('',#1883,#1557,#1558);
#1280=AXIS2_PLACEMENT_3D('',#1885,#1559,#1560);
#1281=AXIS2_PLACEMENT_3D('',#1887,#1561,#1562);
#1282=AXIS2_PLACEMENT_3D('',#1888,#1563,#1564);
#1283=AXIS2_PLACEMENT_3D('',#1890,#1565,#1566);
#1284=AXIS2_PLACEMENT_3D('',#1891,#1567,#1568);
#1285=AXIS2_PLACEMENT_3D('',#1893,#1569,#1570);
#1286=AXIS2_PLACEMENT_3D('',#1894,#1571,#1572);
#1287=AXIS2_PLACEMENT_3D('',#1897,#1573,#1574);
#1288=AXIS2_PLACEMENT_3D('',#1899,#1575,#1576);
#1289=AXIS2_PLACEMENT_3D('',#1901,#1577,#1578);
#1290=AXIS2_PLACEMENT_3D('',#1903,#1579,#1580);
#1291=AXIS2_PLACEMENT_3D('',#1905,#1581,#1582);
#1292=AXIS2_PLACEMENT_3D('',#1906,#1583,#1584);
#1293=AXIS2_PLACEMENT_3D('',#1912,#1588,#1589);
#1294=AXIS2_PLACEMENT_3D('',#1915,#1591,#1592);
#1295=AXIS2_PLACEMENT_3D('',#1916,#1593,#1594);
#1296=AXIS2_PLACEMENT_3D('',#1920,#1597,#1598);
#1297=AXIS2_PLACEMENT_3D('',#1921,#1599,#1600);
#1298=AXIS2_PLACEMENT_3D('',#1922,#1601,#1602);
#1299=AXIS2_PLACEMENT_3D('',#1923,#1603,#1604);
#1300=AXIS2_PLACEMENT_3D('',#1929,#1608,#1609);
#1301=AXIS2_PLACEMENT_3D('',#1933,#1612,#1613);
#1302=AXIS2_PLACEMENT_3D('',#1937,#1616,#1617);
#1303=AXIS2_PLACEMENT_3D('',#1941,#1620,#1621);
#1304=AXIS2_PLACEMENT_3D('',#1945,#1624,#1625);
#1305=AXIS2_PLACEMENT_3D('',#1947,#1627,#1628);
#1306=AXIS2_PLACEMENT_3D('',#1948,#1629,#1630);
#1307=AXIS2_PLACEMENT_3D('',#1949,#1631,#1632);
#1308=AXIS2_PLACEMENT_3D('',#1951,#1633,#1634);
#1309=DIRECTION('',(0.,0.,1.));
#1310=DIRECTION('',(1.,0.,0.));
#1311=DIRECTION('',(0.,1.,0.));
#1312=DIRECTION('',(0.,0.,1.));
#1313=DIRECTION('',(-1.,0.,0.));
#1314=DIRECTION('',(0.,0.,1.));
#1315=DIRECTION('',(-1.,0.,0.));
#1316=DIRECTION('',(0.,0.,1.));
#1317=DIRECTION('',(1.,2.00871176004725E-17,0.));
#1318=DIRECTION('',(-2.00871176004725E-17,1.,0.));
#1319=DIRECTION('',(1.,2.00871176004725E-17,0.));
#1320=DIRECTION('',(-2.00871176004725E-17,1.,0.));
#1321=DIRECTION('',(-2.00871176004725E-17,1.,0.));
#1322=DIRECTION('',(0.,0.,1.));
#1323=DIRECTION('',(-2.00871176004725E-17,1.,0.));
#1324=DIRECTION('',(0.,-1.,0.));
#1325=DIRECTION('',(0.,0.,-1.));
#1326=DIRECTION('',(1.,0.,0.));
#1327=DIRECTION('',(0.,0.,1.));
#1328=DIRECTION('',(1.,0.,0.));
#1329=DIRECTION('',(1.,0.,0.));
#1330=DIRECTION('',(0.,0.,-1.));
#1331=DIRECTION('',(1.,0.,0.));
#1332=DIRECTION('',(0.,0.,-1.));
#1333=DIRECTION('',(0.,1.,0.));
#1334=DIRECTION('',(0.,1.,0.));
#1335=DIRECTION('',(0.,0.,-1.));
#1336=DIRECTION('',(1.,0.,0.));
#1337=DIRECTION('',(0.,0.,-1.));
#1338=DIRECTION('',(1.,0.,0.));
#1339=DIRECTION('',(1.,0.,0.));
#1340=DIRECTION('',(0.,0.,-1.));
#1341=DIRECTION('',(0.,0.,1.));
#1342=DIRECTION('',(1.,0.,0.));
#1343=DIRECTION('',(0.,0.,-1.));
#1344=DIRECTION('',(-1.,0.,0.));
#1345=DIRECTION('',(0.,0.,1.));
#1346=DIRECTION('',(1.,0.,0.));
#1347=DIRECTION('',(0.,0.,1.));
#1348=DIRECTION('',(1.,0.,0.));
#1349=DIRECTION('',(0.,0.,1.));
#1350=DIRECTION('',(1.,0.,0.));
#1351=DIRECTION('',(0.,0.,1.));
#1352=DIRECTION('',(1.,0.,0.));
#1353=DIRECTION('',(0.,0.,1.));
#1354=DIRECTION('',(1.,0.,0.));
#1355=DIRECTION('',(-1.,-2.00871176004725E-17,0.));
#1356=DIRECTION('',(2.00871176004725E-17,-1.,0.));
#1357=DIRECTION('',(-1.,-2.00871176004725E-17,0.));
#1358=DIRECTION('',(2.00871176004725E-17,-1.,0.));
#1359=DIRECTION('',(0.,0.,1.));
#1360=DIRECTION('',(2.00871176004725E-17,-1.,0.));
#1361=DIRECTION('',(0.,0.,1.));
#1362=DIRECTION('',(2.00871176004725E-17,-1.,0.));
#1363=DIRECTION('',(-1.,-2.00871176004725E-17,0.));
#1364=DIRECTION('',(2.00871176004725E-17,-1.,0.));
#1365=DIRECTION('',(-1.,-2.00871176004725E-17,0.));
#1366=DIRECTION('',(2.00871176004725E-17,-1.,0.));
#1367=DIRECTION('',(0.,0.,1.));
#1368=DIRECTION('',(2.00871176004725E-17,-1.,0.));
#1369=DIRECTION('',(0.,0.,1.));
#1370=DIRECTION('',(2.00871176004725E-17,-1.,0.));
#1371=DIRECTION('',(-1.,-2.00871176004725E-17,0.));
#1372=DIRECTION('',(2.00871176004725E-17,-1.,0.));
#1373=DIRECTION('',(-1.,-2.00871176004725E-17,0.));
#1374=DIRECTION('',(2.00871176004725E-17,-1.,0.));
#1375=DIRECTION('',(-2.00871176004725E-17,1.,0.));
#1376=DIRECTION('',(-1.,-2.00871176004725E-17,0.));
#1377=DIRECTION('',(1.,2.00871176004725E-17,0.));
#1378=DIRECTION('',(1.,2.00871176004725E-17,0.));
#1379=DIRECTION('',(0.,0.,1.));
#1380=DIRECTION('',(1.,0.,0.));
#1381=DIRECTION('',(1.,2.00871176004725E-17,0.));
#1382=DIRECTION('',(-2.00871176004725E-17,1.,0.));
#1383=DIRECTION('',(-1.,-2.00871176004725E-17,0.));
#1384=DIRECTION('',(1.,2.00871176004725E-17,0.));
#1385=DIRECTION('',(0.,0.,1.));
#1386=DIRECTION('',(1.,0.,0.));
#1387=DIRECTION('',(1.,0.,0.));
#1388=DIRECTION('',(0.,0.,-1.));
#1389=DIRECTION('',(1.,0.,0.));
#1390=DIRECTION('',(0.,0.,-1.));
#1391=DIRECTION('',(0.,0.,1.));
#1392=DIRECTION('',(1.,0.,0.));
#1393=DIRECTION('',(1.,0.,0.));
#1394=DIRECTION('',(0.,1.,0.));
#1395=DIRECTION('',(-1.,0.,0.));
#1396=DIRECTION('',(0.,0.,-1.));
#1397=DIRECTION('',(0.,0.,1.));
#1398=DIRECTION('',(0.,1.,0.));
#1399=DIRECTION('',(0.,0.,1.));
#1400=DIRECTION('',(0.,1.,0.));
#1401=DIRECTION('',(1.,0.,0.));
#1402=DIRECTION('',(0.,0.,-1.));
#1403=DIRECTION('',(1.,0.,0.));
#1404=DIRECTION('',(0.,1.,0.));
#1405=DIRECTION('',(0.,0.,1.));
#1406=DIRECTION('',(0.,1.,0.));
#1407=DIRECTION('',(0.,0.,1.));
#1408=DIRECTION('',(0.,1.,0.));
#1409=DIRECTION('',(1.,0.,0.));
#1410=DIRECTION('',(0.,0.,-1.));
#1411=DIRECTION('',(1.,0.,0.));
#1412=DIRECTION('',(0.,0.,-1.));
#1413=DIRECTION('',(0.,-1.,0.));
#1414=DIRECTION('',(0.,0.,-1.));
#1415=DIRECTION('',(-1.,0.,0.));
#1416=DIRECTION('',(-1.,0.,0.));
#1417=DIRECTION('',(0.,0.,1.));
#1418=DIRECTION('',(1.,0.,0.));
#1419=DIRECTION('',(-1.,0.,0.));
#1420=DIRECTION('',(0.,-1.,0.));
#1421=DIRECTION('',(0.,0.,-1.));
#1422=DIRECTION('',(-1.,0.,0.));
#1423=DIRECTION('',(0.,0.,1.));
#1424=DIRECTION('',(1.,0.,0.));
#1425=DIRECTION('',(1.,0.,0.));
#1426=DIRECTION('',(0.,0.,-1.));
#1427=DIRECTION('',(1.,0.,0.));
#1428=DIRECTION('',(0.,0.,-1.));
#1429=DIRECTION('',(0.,0.,1.));
#1430=DIRECTION('',(1.,0.,0.));
#1431=DIRECTION('',(0.,-1.,0.));
#1432=DIRECTION('',(0.,0.,-1.));
#1433=DIRECTION('',(-1.,0.,0.));
#1434=DIRECTION('',(0.,0.,1.));
#1435=DIRECTION('',(1.,0.,0.));
#1436=DIRECTION('',(0.,0.,1.));
#1437=DIRECTION('',(0.,-1.,0.));
#1438=DIRECTION('',(0.,0.,-1.));
#1439=DIRECTION('',(0.,0.,-1.));
#1440=DIRECTION('',(-1.,0.,0.));
#1441=DIRECTION('',(0.,0.,-1.));
#1442=DIRECTION('',(-1.,0.,0.));
#1443=DIRECTION('',(0.,0.,1.));
#1444=DIRECTION('',(1.,0.,0.));
#1445=DIRECTION('',(0.,0.,1.));
#1446=DIRECTION('',(1.,0.,0.));
#1447=DIRECTION('',(-0.00173685760170913,-0.999998491661698,0.));
#1448=DIRECTION('',(0.,0.,1.));
#1449=DIRECTION('',(1.,0.,0.));
#1450=DIRECTION('',(0.00173685760170918,-0.999998491661698,0.));
#1451=DIRECTION('',(1.,0.,0.));
#1452=DIRECTION('',(-2.00871176004725E-17,1.,0.));
#1453=DIRECTION('',(0.,0.,1.));
#1454=DIRECTION('',(1.,0.,0.));
#1455=DIRECTION('',(0.,1.,0.));
#1456=DIRECTION('',(-1.,-2.00871176004725E-17,0.));
#1457=DIRECTION('',(2.00871176004725E-17,-1.,0.));
#1458=DIRECTION('',(-1.,-2.00871176004725E-17,0.));
#1459=DIRECTION('',(2.00871176004725E-17,-1.,0.));
#1460=DIRECTION('',(0.,0.,1.));
#1461=DIRECTION('',(0.,-1.,0.));
#1462=DIRECTION('',(0.,0.,1.));
#1463=DIRECTION('',(0.,-1.,0.));
#1464=DIRECTION('',(-2.00871176004725E-17,1.,0.));
#1465=DIRECTION('',(0.,1.,0.));
#1466=DIRECTION('',(0.,0.,-1.));
#1467=DIRECTION('',(0.,1.,0.));
#1468=DIRECTION('',(0.,0.,-1.));
#1469=DIRECTION('',(-2.00871176004725E-17,1.,0.));
#1470=DIRECTION('',(0.,0.,-1.));
#1471=DIRECTION('',(0.,-1.,0.));
#1472=DIRECTION('',(0.,0.,-1.));
#1473=DIRECTION('',(-1.,0.,0.));
#1474=DIRECTION('',(0.,0.,-1.));
#1475=DIRECTION('',(-1.,0.,0.));
#1476=DIRECTION('',(-1.,0.,0.));
#1477=DIRECTION('',(0.,0.,1.));
#1478=DIRECTION('',(-1.,0.,0.));
#1479=DIRECTION('',(0.,0.,1.));
#1480=DIRECTION('',(0.,1.,0.));
#1481=DIRECTION('',(0.,0.,-1.));
#1482=DIRECTION('',(0.,1.,0.));
#1483=DIRECTION('',(0.,1.,0.));
#1484=DIRECTION('',(0.,-1.,0.));
#1485=DIRECTION('',(0.,0.,1.));
#1486=DIRECTION('',(0.,-1.,0.));
#1487=DIRECTION('',(0.,0.,1.));
#1488=DIRECTION('',(0.,0.,-1.));
#1489=DIRECTION('',(0.,1.,0.));
#1490=DIRECTION('',(0.,0.,-1.));
#1491=DIRECTION('',(-1.,0.,0.));
#1492=DIRECTION('',(0.,0.,-1.));
#1493=DIRECTION('',(0.,0.,1.));
#1494=DIRECTION('',(1.,0.,0.));
#1495=DIRECTION('',(0.,0.,-1.));
#1496=DIRECTION('',(0.999998491661698,0.00173685760170918,0.));
#1497=DIRECTION('',(-0.00173685760170918,0.999998491661698,0.));
#1498=DIRECTION('',(0.,0.,-1.));
#1499=DIRECTION('',(0.00173685760170918,-0.999998491661698,0.));
#1500=DIRECTION('',(0.,0.,-1.));
#1501=DIRECTION('',(-1.,0.,0.));
#1502=DIRECTION('',(0.,0.,-1.));
#1503=DIRECTION('',(0.,0.,1.));
#1504=DIRECTION('',(1.,0.,0.));
#1505=DIRECTION('',(0.999998491661698,-0.00173685760170913,0.));
#1506=DIRECTION('',(0.00173685760170913,0.999998491661698,0.));
#1507=DIRECTION('',(-0.00173685760170913,-0.999998491661698,0.));
#1508=DIRECTION('',(0.,0.,-1.));
#1509=DIRECTION('',(-1.,0.,0.));
#1510=DIRECTION('',(0.,0.,1.));
#1511=DIRECTION('',(1.,0.,0.));
#1512=DIRECTION('',(0.,0.,1.));
#1513=DIRECTION('',(1.,0.,0.));
#1514=DIRECTION('',(0.,-1.,0.));
#1515=DIRECTION('',(0.,0.,-1.));
#1516=DIRECTION('',(-1.,0.,0.));
#1517=DIRECTION('',(0.,0.,-1.));
#1518=DIRECTION('',(1.,0.,0.));
#1519=DIRECTION('',(0.,0.,-1.));
#1520=DIRECTION('',(-1.,0.,0.));
#1521=DIRECTION('',(-1.,0.,0.));
#1522=DIRECTION('',(0.,0.,-1.));
#1523=DIRECTION('',(-1.,0.,0.));
#1524=DIRECTION('',(-1.,0.,0.));
#1525=DIRECTION('',(0.,-1.,0.));
#1526=DIRECTION('',(1.,0.,0.));
#1527=DIRECTION('',(0.,0.,1.));
#1528=DIRECTION('',(1.,0.,0.));
#1529=DIRECTION('',(-1.,0.,0.));
#1530=DIRECTION('',(0.,0.,1.));
#1531=DIRECTION('',(1.,0.,0.));
#1532=DIRECTION('',(-1.,0.,0.));
#1533=DIRECTION('',(0.,1.,0.));
#1534=DIRECTION('',(-1.,0.,0.));
#1535=DIRECTION('',(1.,0.,0.));
#1536=DIRECTION('',(0.,0.,-1.));
#1537=DIRECTION('',(0.,0.,1.));
#1538=DIRECTION('',(1.,0.,0.));
#1539=DIRECTION('',(0.,-1.,0.));
#1540=DIRECTION('',(0.,0.,-1.));
#1541=DIRECTION('',(0.,1.,0.));
#1542=DIRECTION('',(0.,0.,1.));
#1543=DIRECTION('',(0.,-1.,0.));
#1544=DIRECTION('',(0.,0.,-1.));
#1545=DIRECTION('',(0.,0.,-1.));
#1546=DIRECTION('',(1.,0.,0.));
#1547=DIRECTION('',(0.,0.,-1.));
#1548=DIRECTION('',(-1.,0.,0.));
#1549=DIRECTION('',(0.,0.,-1.));
#1550=DIRECTION('',(-1.,0.,0.));
#1551=DIRECTION('',(1.,0.,0.));
#1552=DIRECTION('',(0.,0.,-1.));
#1553=DIRECTION('',(-1.,0.,0.));
#1554=DIRECTION('',(1.,0.,0.));
#1555=DIRECTION('',(0.,0.,-1.));
#1556=DIRECTION('',(-1.,0.,0.));
#1557=DIRECTION('',(0.,0.,1.));
#1558=DIRECTION('',(1.,0.,0.));
#1559=DIRECTION('',(0.,0.,1.));
#1560=DIRECTION('',(1.,0.,0.));
#1561=DIRECTION('',(0.,0.,1.));
#1562=DIRECTION('',(1.,0.,0.));
#1563=DIRECTION('',(0.,0.,1.));
#1564=DIRECTION('',(1.,0.,0.));
#1565=DIRECTION('',(0.,0.,1.));
#1566=DIRECTION('',(1.,0.,0.));
#1567=DIRECTION('',(0.,0.,-1.));
#1568=DIRECTION('',(-1.,0.,0.));
#1569=DIRECTION('',(0.,0.,1.));
#1570=DIRECTION('',(1.,0.,0.));
#1571=DIRECTION('',(-0.866025403784439,0.,0.5));
#1572=DIRECTION('',(0.5,0.,0.866025403784439));
#1573=DIRECTION('',(0.,0.,1.));
#1574=DIRECTION('',(1.,0.,0.));
#1575=DIRECTION('',(0.866025403784439,0.,0.5));
#1576=DIRECTION('',(-0.5,0.,0.866025403784439));
#1577=DIRECTION('',(0.866025403784438,0.,-0.5));
#1578=DIRECTION('',(0.5,0.,0.866025403784438));
#1579=DIRECTION('',(0.,0.,-1.));
#1580=DIRECTION('',(-1.,0.,0.));
#1581=DIRECTION('',(-0.866025403784439,0.,-0.5));
#1582=DIRECTION('',(-0.5,0.,0.866025403784439));
#1583=DIRECTION('',(0.,1.,0.));
#1584=DIRECTION('',(0.,0.,1.));
#1585=DIRECTION('',(0.,0.,-1.));
#1586=DIRECTION('',(1.,0.,0.));
#1587=DIRECTION('',(0.,0.,-1.));
#1588=DIRECTION('',(0.,0.,-1.));
#1589=DIRECTION('',(-1.,0.,0.));
#1590=DIRECTION('',(0.,0.,-1.));
#1591=DIRECTION('',(0.,0.,-1.));
#1592=DIRECTION('',(-1.,0.,0.));
#1593=DIRECTION('',(0.,1.,0.));
#1594=DIRECTION('',(0.,0.,1.));
#1595=DIRECTION('',(0.,0.,-1.));
#1596=DIRECTION('',(1.,0.,0.));
#1597=DIRECTION('',(0.,0.,-1.));
#1598=DIRECTION('',(-1.,0.,0.));
#1599=DIRECTION('',(0.,0.,-1.));
#1600=DIRECTION('',(-1.,0.,0.));
#1601=DIRECTION('',(0.,0.,-1.));
#1602=DIRECTION('',(1.,0.,0.));
#1603=DIRECTION('',(0.866025403784439,0.,0.5));
#1604=DIRECTION('',(0.5,0.,-0.866025403784439));
#1605=DIRECTION('',(0.,-1.,0.));
#1606=DIRECTION('',(-0.5,0.,0.866025403784439));
#1607=DIRECTION('',(0.,-1.,0.));
#1608=DIRECTION('',(0.,0.,1.));
#1609=DIRECTION('',(1.,0.,0.));
#1610=DIRECTION('',(0.,-1.,0.));
#1611=DIRECTION('',(-1.,0.,0.));
#1612=DIRECTION('',(-0.866025403784439,0.,0.5));
#1613=DIRECTION('',(0.5,0.,0.866025403784439));
#1614=DIRECTION('',(0.,-1.,0.));
#1615=DIRECTION('',(-0.5,0.,-0.866025403784439));
#1616=DIRECTION('',(-0.866025403784439,0.,-0.5));
#1617=DIRECTION('',(-0.5,0.,0.866025403784439));
#1618=DIRECTION('',(0.,-1.,0.));
#1619=DIRECTION('',(0.5,0.,-0.866025403784439));
#1620=DIRECTION('',(0.,0.,-1.));
#1621=DIRECTION('',(-1.,0.,0.));
#1622=DIRECTION('',(0.,-1.,0.));
#1623=DIRECTION('',(1.,0.,0.));
#1624=DIRECTION('',(0.866025403784438,0.,-0.5));
#1625=DIRECTION('',(-0.5,0.,-0.866025403784438));
#1626=DIRECTION('',(0.5,0.,0.866025403784438));
#1627=DIRECTION('',(0.,-1.,0.));
#1628=DIRECTION('',(1.,0.,0.));
#1629=DIRECTION('',(0.,0.,1.));
#1630=DIRECTION('',(1.,0.,0.));
#1631=DIRECTION('',(0.,0.,1.));
#1632=DIRECTION('',(1.,0.,0.));
#1633=DIRECTION('',(0.,0.,1.));
#1634=DIRECTION('',(1.,0.,0.));
#1635=CARTESIAN_POINT('',(0.,0.,0.));
#1636=CARTESIAN_POINT('',(0.,-0.0377712228459295,-0.0509778));
#1637=CARTESIAN_POINT('',(0.,-0.0377712228459295,-0.0458978));
#1638=CARTESIAN_POINT('',(0.0035,-0.0377712228459295,-0.0458978));
#1639=CARTESIAN_POINT('',(-0.0035,-0.0377712228459295,-0.0458978));
#1640=CARTESIAN_POINT('',(-0.0035,-0.0377712228459295,-0.0509778));
#1641=CARTESIAN_POINT('',(-0.0035,-0.0377712228459295,-0.0509778));
#1642=CARTESIAN_POINT('',(0.,-0.0377712228459295,-0.0509778));
#1643=CARTESIAN_POINT('',(0.0035,-0.0377712228459295,-0.0509778));
#1644=CARTESIAN_POINT('',(0.0035,-0.0377712228459295,-0.0509778));
#1645=CARTESIAN_POINT('',(-0.0035,0.,-0.0509778));
#1646=CARTESIAN_POINT('',(-0.0035,-0.0301512228459295,-0.0481203));
#1647=CARTESIAN_POINT('',(-0.0035,-0.0285512228459295,-0.0481203));
#1648=CARTESIAN_POINT('',(-0.0035,0.,-0.0458978));
#1649=CARTESIAN_POINT('',(-0.0035,-0.0276112228459295,-0.0458978));
#1650=CARTESIAN_POINT('',(-0.0035,-0.0276112228459295,-0.0509778));
#1651=CARTESIAN_POINT('',(-0.0035,-0.0276112228459295,-0.0509778));
#1652=CARTESIAN_POINT('',(-0.0035,0.,-0.0509778));
#1653=CARTESIAN_POINT('',(2.16840434497101E-18,-0.0276112228459295,-0.0509778));
#1654=CARTESIAN_POINT('',(2.16840434497101E-18,-0.0276112228459295,-0.0458978));
#1655=CARTESIAN_POINT('',(0.0035,-0.0276112228459295,-0.0458978));
#1656=CARTESIAN_POINT('',(0.0035,-0.0276112228459295,-0.0509778));
#1657=CARTESIAN_POINT('',(0.0035,-0.0276112228459295,-0.0509778));
#1658=CARTESIAN_POINT('',(2.16840434497101E-18,-0.0276112228459295,-0.0509778));
#1659=CARTESIAN_POINT('',(0.0035,0.,-0.0509778));
#1660=CARTESIAN_POINT('',(0.0035,-0.0301512228459295,-0.0481203));
#1661=CARTESIAN_POINT('',(0.0035,-0.0301512228459295,-0.0497203));
#1662=CARTESIAN_POINT('',(0.0035,0.,-0.0458978));
#1663=CARTESIAN_POINT('',(0.0035,0.,-0.0509778));
#1664=CARTESIAN_POINT('',(0.,-0.0326912228459296,-0.0509778));
#1665=CARTESIAN_POINT('',(0.,-0.0326912228459296,-0.0458978));
#1666=CARTESIAN_POINT('',(-0.0994063387677485,-0.0301512228459295,-0.0481203));
#1667=CARTESIAN_POINT('',(0.,0.,0.));
#1668=CARTESIAN_POINT('',(1.0842021724855E-18,-0.02159,0.01397));
#1669=CARTESIAN_POINT('',(1.0842021724855E-18,-0.02159,0.01397));
#1670=CARTESIAN_POINT('',(0.00155,-0.02159,0.01397));
#1671=CARTESIAN_POINT('',(1.0842021724855E-18,-0.02159,0.00127));
#1672=CARTESIAN_POINT('',(0.00155,-0.02159,0.00127));
#1673=CARTESIAN_POINT('',(8.67361737988404E-19,-0.02159,0.01397));
#1674=CARTESIAN_POINT('',(8.67361737988404E-19,-0.02159,0.00127));
#1675=CARTESIAN_POINT('',(0.,0.,0.));
#1676=CARTESIAN_POINT('',(-0.00604,-0.00936061142296478,-0.0216789));
#1677=CARTESIAN_POINT('',(-0.00604,-0.0301512228459295,-0.0481203));
#1678=CARTESIAN_POINT('',(-0.00604,-0.0317512228459295,-0.0481203));
#1679=CARTESIAN_POINT('',(-0.00604,-0.0276112228459295,-0.0462153));
#1680=CARTESIAN_POINT('',(-0.00604,-0.0276112228459295,-0.0509778));
#1681=CARTESIAN_POINT('',(-0.00604,-0.0276112228459295,-0.0414528));
#1682=CARTESIAN_POINT('',(-0.00604,-0.0326912228459296,-0.0509778));
#1683=CARTESIAN_POINT('',(-0.00604,-0.0377712228459295,-0.0509778));
#1684=CARTESIAN_POINT('',(-0.00604,-0.0377712228459295,-0.0462153));
#1685=CARTESIAN_POINT('',(-0.00604,-0.0377712228459295,-0.0414528));
#1686=CARTESIAN_POINT('',(-0.00604,-0.0326912228459296,-0.0414528));
#1687=CARTESIAN_POINT('',(-0.00604,-0.0352312228459296,-0.0436753));
#1688=CARTESIAN_POINT('',(-0.00604,-0.0368312228459296,-0.0436753));
#1689=CARTESIAN_POINT('',(-0.0035,-0.00936061142296478,-0.0216789));
#1690=CARTESIAN_POINT('',(-0.0035,-0.0276112228459295,-0.0462153));
#1691=CARTESIAN_POINT('',(-0.0035,-0.0276112228459295,-0.0509778));
#1692=CARTESIAN_POINT('',(-0.0035,-0.0276112228459295,-0.0414528));
#1693=CARTESIAN_POINT('',(-0.0035,-0.0326912228459296,-0.0414528));
#1694=CARTESIAN_POINT('',(-0.0035,-0.0377712228459295,-0.0414528));
#1695=CARTESIAN_POINT('',(-0.0035,-0.0377712228459295,-0.0462153));
#1696=CARTESIAN_POINT('',(-0.0035,-0.0377712228459295,-0.0509778));
#1697=CARTESIAN_POINT('',(-0.0035,-0.0326912228459296,-0.0509778));
#1698=CARTESIAN_POINT('',(-0.0035,-0.0301512228459295,-0.0481203));
#1699=CARTESIAN_POINT('',(-0.0035,-0.0317512228459295,-0.0481203));
#1700=CARTESIAN_POINT('',(-0.0035,-0.0352312228459296,-0.0436753));
#1701=CARTESIAN_POINT('',(-0.0035,-0.0368312228459296,-0.0436753));
#1702=CARTESIAN_POINT('',(-0.00604,-0.0276112228459295,-0.0462153));
#1703=CARTESIAN_POINT('',(-0.00604,-0.0276112228459295,-0.0509778));
#1704=CARTESIAN_POINT('',(-0.00604,-0.0276112228459295,-0.0414528));
#1705=CARTESIAN_POINT('',(-0.00604,-0.0326912228459296,-0.0509778));
#1706=CARTESIAN_POINT('',(-0.00604,-0.0377712228459295,-0.0509778));
#1707=CARTESIAN_POINT('',(-0.00604,-0.0377712228459295,-0.0462153));
#1708=CARTESIAN_POINT('',(-0.00604,-0.0377712228459295,-0.0414528));
#1709=CARTESIAN_POINT('',(-0.00604,-0.0326912228459296,-0.0414528));
#1710=CARTESIAN_POINT('',(-0.0994063387677485,-0.0301512228459295,-0.0481203));
#1711=CARTESIAN_POINT('',(-0.0994063387677485,-0.0352312228459296,-0.0436753));
#1712=CARTESIAN_POINT('',(0.,0.,0.));
#1713=CARTESIAN_POINT('',(0.00604,-0.00936061142296478,-0.0216789));
#1714=CARTESIAN_POINT('',(0.00604,-0.0301512228459295,-0.0481203));
#1715=CARTESIAN_POINT('',(0.00604,-0.0301512228459295,-0.0497203));
#1716=CARTESIAN_POINT('',(0.00604,-0.0377712228459295,-0.0462153));
#1717=CARTESIAN_POINT('',(0.00604,-0.0377712228459295,-0.0509778));
#1718=CARTESIAN_POINT('',(0.00604,-0.0377712228459295,-0.0414528));
#1719=CARTESIAN_POINT('',(0.00604,-0.0326912228459296,-0.0509778));
#1720=CARTESIAN_POINT('',(0.00604,-0.0276112228459295,-0.0509778));
#1721=CARTESIAN_POINT('',(0.00604,-0.0276112228459295,-0.0462153));
#1722=CARTESIAN_POINT('',(0.00604,-0.0276112228459295,-0.0414528));
#1723=CARTESIAN_POINT('',(0.00604,-0.0326912228459296,-0.0414528));
#1724=CARTESIAN_POINT('',(0.00604,-0.0352312228459296,-0.0436753));
#1725=CARTESIAN_POINT('',(0.00604,-0.0352312228459296,-0.0452753));
#1726=CARTESIAN_POINT('',(0.0035,-0.00936061142296478,-0.0216789));
#1727=CARTESIAN_POINT('',(0.0035,-0.0377712228459295,-0.0462153));
#1728=CARTESIAN_POINT('',(0.0035,-0.0377712228459295,-0.0509778));
#1729=CARTESIAN_POINT('',(0.0035,-0.0377712228459295,-0.0414528));
#1730=CARTESIAN_POINT('',(0.0035,-0.0326912228459296,-0.0414528));
#1731=CARTESIAN_POINT('',(0.0035,-0.0276112228459295,-0.0414528));
#1732=CARTESIAN_POINT('',(0.0035,-0.0276112228459295,-0.0462153));
#1733=CARTESIAN_POINT('',(0.0035,-0.0276112228459295,-0.0509778));
#1734=CARTESIAN_POINT('',(0.0035,-0.0326912228459296,-0.0509778));
#1735=CARTESIAN_POINT('',(0.0035,-0.0301512228459295,-0.0481203));
#1736=CARTESIAN_POINT('',(0.0035,-0.0301512228459295,-0.0497203));
#1737=CARTESIAN_POINT('',(0.0035,-0.0352312228459296,-0.0436753));
#1738=CARTESIAN_POINT('',(0.0035,-0.0352312228459296,-0.0452753));
#1739=CARTESIAN_POINT('',(0.00604,-0.0377712228459295,-0.0462153));
#1740=CARTESIAN_POINT('',(0.00604,-0.0377712228459295,-0.0509778));
#1741=CARTESIAN_POINT('',(0.00604,-0.0377712228459295,-0.0414528));
#1742=CARTESIAN_POINT('',(0.00604,-0.0326912228459296,-0.0509778));
#1743=CARTESIAN_POINT('',(0.00604,-0.0276112228459295,-0.0509778));
#1744=CARTESIAN_POINT('',(0.00604,-0.0276112228459295,-0.0462153));
#1745=CARTESIAN_POINT('',(0.00604,-0.0276112228459295,-0.0414528));
#1746=CARTESIAN_POINT('',(0.00604,-0.0326912228459296,-0.0414528));
#1747=CARTESIAN_POINT('',(-0.0994063387677485,-0.0301512228459295,-0.0481203));
#1748=CARTESIAN_POINT('',(-0.0994063387677485,-0.0352312228459296,-0.0436753));
#1749=CARTESIAN_POINT('',(0.,0.,0.));
#1750=CARTESIAN_POINT('',(2.16840434497101E-18,-0.0276112228459295,-0.0458978));
#1751=CARTESIAN_POINT('',(8.67361737988404E-19,-0.0276112228459295,-0.03302));
#1752=CARTESIAN_POINT('',(0.0035,-0.0276112228459295,-0.03302));
#1753=CARTESIAN_POINT('',(-0.0035,-0.0276112228459295,-0.03302));
#1754=CARTESIAN_POINT('',(0.0035,-0.0276112228459295,-0.0458978));
#1755=CARTESIAN_POINT('',(0.0035,-0.0276112228459295,-0.0458978));
#1756=CARTESIAN_POINT('',(2.16840434497101E-18,-0.0276112228459295,-0.0458978));
#1757=CARTESIAN_POINT('',(-0.0035,-0.0276112228459295,-0.0458978));
#1758=CARTESIAN_POINT('',(-0.0035,-0.0276112228459295,-0.0458978));
#1759=CARTESIAN_POINT('',(0.,-0.0377712228459295,0.00762));
#1760=CARTESIAN_POINT('',(0.0035,-0.0377712228459295,0.00762));
#1761=CARTESIAN_POINT('',(0.0035,-0.0377712228459295,-0.03302));
#1762=CARTESIAN_POINT('',(0.0035,-0.0377712228459295,-0.0458978));
#1763=CARTESIAN_POINT('',(0.,-0.0377712228459295,-0.03302));
#1764=CARTESIAN_POINT('',(-0.0035,-0.0377712228459295,-0.03302));
#1765=CARTESIAN_POINT('',(-0.0035,-0.0377712228459295,0.00762));
#1766=CARTESIAN_POINT('',(-0.0035,-0.0377712228459295,-0.0458978));
#1767=CARTESIAN_POINT('',(0.,-0.0377712228459295,-0.0458978));
#1768=CARTESIAN_POINT('',(0.,-0.00618561142296478,0.00508));
#1769=CARTESIAN_POINT('',(4.87890977618477E-18,-0.02159,0.00508));
#1770=CARTESIAN_POINT('',(-0.00157585182463832,-0.0211009284032127,0.00508));
#1771=CARTESIAN_POINT('',(0.00157585182463832,-0.0211009284032127,0.00508));
#1772=CARTESIAN_POINT('',(0.00161292591231916,0.000244535798393639,0.00508));
#1773=CARTESIAN_POINT('',(0.00165,0.02159,0.00508));
#1774=CARTESIAN_POINT('',(0.,0.02159,0.00508));
#1775=CARTESIAN_POINT('',(-0.00165,0.02159,0.00508));
#1776=CARTESIAN_POINT('',(-0.00161292591231916,0.000244535798393639,0.00508));
#1777=CARTESIAN_POINT('',(2.16840434497101E-18,-0.0276112228459295,0.00508));
#1778=CARTESIAN_POINT('',(-0.0035,-0.0276112228459295,0.00508));
#1779=CARTESIAN_POINT('',(0.0035,-0.0276112228459295,0.00508));
#1780=CARTESIAN_POINT('',(-0.0035,0.,0.00508));
#1781=CARTESIAN_POINT('',(-0.0035,0.02159,0.00508));
#1782=CARTESIAN_POINT('',(0.,0.02159,0.00508));
#1783=CARTESIAN_POINT('',(0.0035,0.02159,0.00508));
#1784=CARTESIAN_POINT('',(0.0035,0.,0.00508));
#1785=CARTESIAN_POINT('',(-0.0035,0.,0.00762));
#1786=CARTESIAN_POINT('',(-0.0035,-0.0352312228459296,-0.0436753));
#1787=CARTESIAN_POINT('',(-0.0035,-0.0368312228459296,-0.0436753));
#1788=CARTESIAN_POINT('',(-0.0035,-0.0276112228459295,-0.0458978));
#1789=CARTESIAN_POINT('',(-0.0035,-0.0276112228459295,-0.03048));
#1790=CARTESIAN_POINT('',(-0.0035,-0.0250712228459295,-0.03048));
#1791=CARTESIAN_POINT('',(-0.0035,-0.0250712228459295,-0.03048));
#1792=CARTESIAN_POINT('',(-0.0035,-0.0250712228459295,-0.0458978));
#1793=CARTESIAN_POINT('',(-0.0035,-0.0250712228459295,-0.03302));
#1794=CARTESIAN_POINT('',(-0.0035,-0.0250712228459295,-0.03302));
#1795=CARTESIAN_POINT('',(-0.0035,0.,-0.0458978));
#1796=CARTESIAN_POINT('',(-0.0035,-0.0403112228459295,-0.03302));
#1797=CARTESIAN_POINT('',(-0.0035,-0.0403112228459295,-0.03302));
#1798=CARTESIAN_POINT('',(-0.0035,-0.0403112228459295,0.00762));
#1799=CARTESIAN_POINT('',(-0.0035,-0.0403112228459295,-0.03048));
#1800=CARTESIAN_POINT('',(-0.0035,-0.0403112228459295,-0.03048));
#1801=CARTESIAN_POINT('',(-0.0035,-0.0377712228459295,-0.03048));
#1802=CARTESIAN_POINT('',(-0.0035,-0.0377712228459295,0.00762));
#1803=CARTESIAN_POINT('',(-0.0035,-0.0377712228459295,0.00762));
#1804=CARTESIAN_POINT('',(-0.0035,0.,0.00762));
#1805=CARTESIAN_POINT('',(-0.0035,0.02159,0.00762));
#1806=CARTESIAN_POINT('',(-0.0035,0.02159,0.00762));
#1807=CARTESIAN_POINT('',(0.,-0.0377712228459295,0.00762));
#1808=CARTESIAN_POINT('',(0.,-0.0377712228459295,-0.03048));
#1809=CARTESIAN_POINT('',(0.0035,-0.0377712228459295,-0.03048));
#1810=CARTESIAN_POINT('',(0.0035,-0.0377712228459295,0.00762));
#1811=CARTESIAN_POINT('',(0.0035,-0.0377712228459295,0.00762));
#1812=CARTESIAN_POINT('',(0.,-0.0377712228459295,0.00762));
#1813=CARTESIAN_POINT('',(0.0035,0.,0.00762));
#1814=CARTESIAN_POINT('',(0.0035,-0.0352312228459296,-0.0436753));
#1815=CARTESIAN_POINT('',(0.0035,-0.0352312228459296,-0.0420753));
#1816=CARTESIAN_POINT('',(0.0035,-0.0403112228459295,-0.03048));
#1817=CARTESIAN_POINT('',(0.0035,-0.0403112228459295,-0.03048));
#1818=CARTESIAN_POINT('',(0.0035,-0.0403112228459295,0.00762));
#1819=CARTESIAN_POINT('',(0.0035,-0.0403112228459295,-0.03302));
#1820=CARTESIAN_POINT('',(0.0035,-0.0403112228459295,-0.03302));
#1821=CARTESIAN_POINT('',(0.0035,0.,-0.0458978));
#1822=CARTESIAN_POINT('',(0.0035,-0.0250712228459295,-0.03302));
#1823=CARTESIAN_POINT('',(0.0035,-0.0250712228459295,-0.03302));
#1824=CARTESIAN_POINT('',(0.0035,-0.0250712228459295,-0.0458978));
#1825=CARTESIAN_POINT('',(0.0035,-0.0250712228459295,-0.03048));
#1826=CARTESIAN_POINT('',(0.0035,-0.0250712228459295,-0.03048));
#1827=CARTESIAN_POINT('',(0.0035,-0.0276112228459295,-0.03048));
#1828=CARTESIAN_POINT('',(0.0035,-0.0276112228459295,-0.0458978));
#1829=CARTESIAN_POINT('',(0.0035,0.02159,0.00762));
#1830=CARTESIAN_POINT('',(0.0035,0.02159,0.00762));
#1831=CARTESIAN_POINT('',(0.0035,0.,0.00762));
#1832=CARTESIAN_POINT('',(4.87890977618477E-18,-0.02159,0.00762));
#1833=CARTESIAN_POINT('',(-0.00157585182463832,-0.0211009284032127,0.00762));
#1834=CARTESIAN_POINT('',(-0.00157585182463832,-0.0211009284032127,0.00762));
#1835=CARTESIAN_POINT('',(4.87890977618477E-18,-0.02159,0.00762));
#1836=CARTESIAN_POINT('',(0.00157585182463832,-0.0211009284032127,0.00762));
#1837=CARTESIAN_POINT('',(0.00157585182463832,-0.0211009284032127,0.00762));
#1838=CARTESIAN_POINT('',(-0.00161292591231916,0.000244535798393639,0.00762));
#1839=CARTESIAN_POINT('',(-0.00165,0.02159,0.00762));
#1840=CARTESIAN_POINT('',(-0.00165,0.02159,0.00762));
#1841=CARTESIAN_POINT('',(-0.00161292591231916,0.000244535798393639,0.00762));
#1842=CARTESIAN_POINT('',(0.,0.02159,0.00762));
#1843=CARTESIAN_POINT('',(0.00165,0.02159,0.00762));
#1844=CARTESIAN_POINT('',(0.00165,0.02159,0.00762));
#1845=CARTESIAN_POINT('',(0.,0.02159,0.00762));
#1846=CARTESIAN_POINT('',(0.00161292591231916,0.000244535798393639,0.00762));
#1847=CARTESIAN_POINT('',(0.00161292591231916,0.000244535798393639,0.00762));
#1848=CARTESIAN_POINT('',(0.,0.02159,0.00762));
#1849=CARTESIAN_POINT('',(0.,0.02159,0.00762));
#1850=CARTESIAN_POINT('',(0.,-0.00618561142296478,0.00762));
#1851=CARTESIAN_POINT('',(2.16840434497101E-18,-0.0276112228459295,-0.0458978));
#1852=CARTESIAN_POINT('',(8.67361737988404E-19,-0.0276112228459295,-0.03048));
#1853=CARTESIAN_POINT('',(8.67361737988404E-19,-0.00634061142296478,-0.0458978));
#1854=CARTESIAN_POINT('',(0.,-0.0403112228459295,-0.03048));
#1855=CARTESIAN_POINT('',(0.,-0.0403112228459295,-0.03048));
#1856=CARTESIAN_POINT('',(0.,-0.0403112228459295,-0.03302));
#1857=CARTESIAN_POINT('',(0.,-0.0403112228459295,-0.03302));
#1858=CARTESIAN_POINT('',(0.,-0.0403112228459295,-0.0191389));
#1859=CARTESIAN_POINT('',(8.67361737988404E-19,-0.0250712228459295,-0.03048));
#1860=CARTESIAN_POINT('',(8.67361737988404E-19,-0.0250712228459295,-0.03048));
#1861=CARTESIAN_POINT('',(8.67361737988404E-19,-0.0250712228459295,-0.03302));
#1862=CARTESIAN_POINT('',(8.67361737988404E-19,-0.0250712228459295,-0.03302));
#1863=CARTESIAN_POINT('',(0.,-0.0250712228459295,-0.0204089));
#1864=CARTESIAN_POINT('',(-0.0994063387677485,-0.0352312228459296,-0.0436753));
#1865=CARTESIAN_POINT('',(0.,0.,0.));
#1866=CARTESIAN_POINT('',(-2.16840434497101E-19,-0.00127,-0.00529403678923588));
#1867=CARTESIAN_POINT('',(-2.16840434497101E-19,-0.00146162055922439,-0.00529403678923588));
#1868=CARTESIAN_POINT('',(-2.16840434497101E-19,-0.00146162055922439,-0.00359403678923588));
#1869=CARTESIAN_POINT('',(-2.16840434497101E-19,-0.00268,-0.00529403678923588));
#1870=CARTESIAN_POINT('',(-2.16840434497101E-19,-0.00268,-0.00699403678923588));
#1871=CARTESIAN_POINT('',(0.,0.,-0.01016));
#1872=CARTESIAN_POINT('',(0.,-3.11060286983428E-19,-0.01016));
#1873=CARTESIAN_POINT('',(-0.00508,-3.11060286983428E-19,-0.01016));
#1874=CARTESIAN_POINT('',(2.16840434497101E-19,4.33680868994202E-19,-0.01016));
#1875=CARTESIAN_POINT('',(-0.00202821728146976,-0.00146162055922438,-0.01016));
#1876=CARTESIAN_POINT('',(-0.0019706315475499,0.00153837944077562,-0.01016));
#1877=CARTESIAN_POINT('',(0.,-0.00146162055922439,-0.01016));
#1878=CARTESIAN_POINT('',(0.00202821728146976,-0.00146162055922439,-0.01016));
#1879=CARTESIAN_POINT('',(-2.16840434497101E-19,-6.50521303491303E-19,-0.01016));
#1880=CARTESIAN_POINT('',(0.0019706315475499,0.00153837944077562,-0.01016));
#1881=CARTESIAN_POINT('',(-4.33680868994202E-19,0.00153837944077562,-0.01016));
#1882=CARTESIAN_POINT('',(0.,1.55530143491714E-18,0.00508));
#1883=CARTESIAN_POINT('',(0.,1.55530143491714E-18,0.00508));
#1884=CARTESIAN_POINT('',(0.0254,1.55530143491714E-18,0.00508));
#1885=CARTESIAN_POINT('',(0.,1.55530143491714E-18,0.));
#1886=CARTESIAN_POINT('',(0.0254,1.55530143491714E-18,0.));
#1887=CARTESIAN_POINT('',(0.,0.,0.00508));
#1888=CARTESIAN_POINT('',(1.0842021724855E-18,-0.02159,0.00508));
#1889=CARTESIAN_POINT('',(0.001575,-0.02159,0.00508));
#1890=CARTESIAN_POINT('',(0.,0.,0.));
#1891=CARTESIAN_POINT('',(0.,-3.11060286983428E-19,0.));
#1892=CARTESIAN_POINT('',(-0.00508,-3.11060286983428E-19,0.));
#1893=CARTESIAN_POINT('',(0.,-3.11060286983428E-19,-0.01016));
#1894=CARTESIAN_POINT('',(0.,-3.11060286983428E-19,0.000705963210764124));
#1895=CARTESIAN_POINT('',(-0.00346410161513775,-0.00371569643539405,-0.00529403678923587));
#1896=CARTESIAN_POINT('',(-0.00173205080756888,-0.00477560467375599,-0.00229403678923588));
#1897=CARTESIAN_POINT('',(0.,-3.11060286983428E-19,-0.00229403678923588));
#1898=CARTESIAN_POINT('',(0.00173205080756888,-0.00477560467375599,-0.00229403678923588));
#1899=CARTESIAN_POINT('',(0.,-3.11060286983428E-19,0.000705963210764124));
#1900=CARTESIAN_POINT('',(0.00346410161513775,-0.00371569643539405,-0.00529403678923588));
#1901=CARTESIAN_POINT('',(0.,-3.11060286983428E-19,-0.0112940367892359));
#1902=CARTESIAN_POINT('',(0.00173205080756888,-0.00477560467375599,-0.00829403678923588));
#1903=CARTESIAN_POINT('',(0.,-3.11060286983428E-19,-0.00829403678923588));
#1904=CARTESIAN_POINT('',(-0.00173205080756888,-0.00477560467375599,-0.00829403678923588));
#1905=CARTESIAN_POINT('',(0.,-3.11060286983428E-19,-0.0112940367892359));
#1906=CARTESIAN_POINT('',(0.,-0.00146162055922439,-0.00316));
#1907=CARTESIAN_POINT('',(-0.00202821728146976,-0.00146162055922438,-0.00316));
#1908=CARTESIAN_POINT('',(-0.00202821728146976,-0.00146162055922438,-0.00316));
#1909=CARTESIAN_POINT('',(0.,-0.00146162055922439,-0.00316));
#1910=CARTESIAN_POINT('',(0.00202821728146976,-0.00146162055922439,-0.00316));
#1911=CARTESIAN_POINT('',(0.00202821728146976,-0.00146162055922439,-0.00316));
#1912=CARTESIAN_POINT('',(2.16840434497101E-19,4.33680868994202E-19,-0.00316));
#1913=CARTESIAN_POINT('',(-0.0019706315475499,0.00153837944077562,-0.00316));
#1914=CARTESIAN_POINT('',(-0.0019706315475499,0.00153837944077562,-0.00316));
#1915=CARTESIAN_POINT('',(2.16840434497101E-19,4.33680868994202E-19,-0.00316));
#1916=CARTESIAN_POINT('',(-4.33680868994202E-19,0.00153837944077562,-0.00316));
#1917=CARTESIAN_POINT('',(0.0019706315475499,0.00153837944077562,-0.00316));
#1918=CARTESIAN_POINT('',(0.0019706315475499,0.00153837944077562,-0.00316));
#1919=CARTESIAN_POINT('',(-4.33680868994202E-19,0.00153837944077562,-0.00316));
#1920=CARTESIAN_POINT('',(-2.16840434497101E-19,-6.50521303491303E-19,-0.00316));
#1921=CARTESIAN_POINT('',(-2.16840434497101E-19,-6.50521303491303E-19,-0.00316));
#1922=CARTESIAN_POINT('',(0.,0.,-0.00316));
#1923=CARTESIAN_POINT('',(0.00259807621135332,-0.00268,-0.00379403678923588));
#1924=CARTESIAN_POINT('',(0.00173205080756888,-0.00268,-0.00229403678923588));
#1925=CARTESIAN_POINT('',(0.00173205080756888,-0.00268,-0.00229403678923588));
#1926=CARTESIAN_POINT('',(0.00259807621135332,-0.00268,-0.00379403678923588));
#1927=CARTESIAN_POINT('',(0.00346410161513775,-0.00268,-0.00529403678923588));
#1928=CARTESIAN_POINT('',(0.00346410161513775,-0.00268,-0.00529403678923588));
#1929=CARTESIAN_POINT('',(0.,-0.00268,-0.00229403678923588));
#1930=CARTESIAN_POINT('',(-0.00173205080756888,-0.00268,-0.00229403678923588));
#1931=CARTESIAN_POINT('',(-0.00173205080756888,-0.00268,-0.00229403678923588));
#1932=CARTESIAN_POINT('',(0.,-0.00268,-0.00229403678923588));
#1933=CARTESIAN_POINT('',(-0.00259807621135332,-0.00268,-0.00379403678923588));
#1934=CARTESIAN_POINT('',(-0.00346410161513775,-0.00268,-0.00529403678923587));
#1935=CARTESIAN_POINT('',(-0.00346410161513775,-0.00268,-0.00529403678923587));
#1936=CARTESIAN_POINT('',(-0.00259807621135332,-0.00268,-0.00379403678923588));
#1937=CARTESIAN_POINT('',(-0.00259807621135332,-0.00268,-0.00679403678923587));
#1938=CARTESIAN_POINT('',(-0.00173205080756888,-0.00268,-0.00829403678923588));
#1939=CARTESIAN_POINT('',(-0.00173205080756888,-0.00268,-0.00829403678923588));
#1940=CARTESIAN_POINT('',(-0.00259807621135332,-0.00268,-0.00679403678923587));
#1941=CARTESIAN_POINT('',(-4.33680868994202E-19,-0.00268,-0.00829403678923588));
#1942=CARTESIAN_POINT('',(0.00173205080756888,-0.00268,-0.00829403678923588));
#1943=CARTESIAN_POINT('',(0.00173205080756888,-0.00268,-0.00829403678923588));
#1944=CARTESIAN_POINT('',(-4.33680868994202E-19,-0.00268,-0.00829403678923588));
#1945=CARTESIAN_POINT('',(0.00259807621135332,-0.00268,-0.00679403678923588));
#1946=CARTESIAN_POINT('',(0.00259807621135332,-0.00268,-0.00679403678923588));
#1947=CARTESIAN_POINT('',(0.,-0.00268,-0.00529403678923588));
#1948=CARTESIAN_POINT('',(1.0842021724855E-18,-0.02159,0.00127));
#1949=CARTESIAN_POINT('',(1.0842021724855E-18,-0.02159,0.00127));
#1950=CARTESIAN_POINT('',(0.001575,-0.02159,0.00127));
#1951=CARTESIAN_POINT('',(0.,0.,0.00127));
#1952=MECHANICAL_DESIGN_GEOMETRIC_PRESENTATION_REPRESENTATION('',(#1132),
#1958);
#1953=MECHANICAL_DESIGN_GEOMETRIC_PRESENTATION_REPRESENTATION('',(#1133),
#1959);
#1954=MECHANICAL_DESIGN_GEOMETRIC_PRESENTATION_REPRESENTATION('',(#1134),
#1960);
#1955=MECHANICAL_DESIGN_GEOMETRIC_PRESENTATION_REPRESENTATION('',(#1135),
#1961);
#1956=MECHANICAL_DESIGN_GEOMETRIC_PRESENTATION_REPRESENTATION('',(#1136),
#1962);
#1957=MECHANICAL_DESIGN_GEOMETRIC_PRESENTATION_REPRESENTATION('',(#1137),
#1963);
#1958=(
GEOMETRIC_REPRESENTATION_CONTEXT(3)
GLOBAL_UNCERTAINTY_ASSIGNED_CONTEXT((#1964))
GLOBAL_UNIT_ASSIGNED_CONTEXT((#1982,#1976,#1970))
REPRESENTATION_CONTEXT('Part 4','TOP_LEVEL_ASSEMBLY_PART')
);
#1959=(
GEOMETRIC_REPRESENTATION_CONTEXT(3)
GLOBAL_UNCERTAINTY_ASSIGNED_CONTEXT((#1965))
GLOBAL_UNIT_ASSIGNED_CONTEXT((#1983,#1977,#1971))
REPRESENTATION_CONTEXT('Part 2','TOP_LEVEL_ASSEMBLY_PART')
);
#1960=(
GEOMETRIC_REPRESENTATION_CONTEXT(3)
GLOBAL_UNCERTAINTY_ASSIGNED_CONTEXT((#1966))
GLOBAL_UNIT_ASSIGNED_CONTEXT((#1984,#1978,#1972))
REPRESENTATION_CONTEXT('Part 5','TOP_LEVEL_ASSEMBLY_PART')
);
#1961=(
GEOMETRIC_REPRESENTATION_CONTEXT(3)
GLOBAL_UNCERTAINTY_ASSIGNED_CONTEXT((#1967))
GLOBAL_UNIT_ASSIGNED_CONTEXT((#1985,#1979,#1973))
REPRESENTATION_CONTEXT('Part 6','TOP_LEVEL_ASSEMBLY_PART')
);
#1962=(
GEOMETRIC_REPRESENTATION_CONTEXT(3)
GLOBAL_UNCERTAINTY_ASSIGNED_CONTEXT((#1968))
GLOBAL_UNIT_ASSIGNED_CONTEXT((#1986,#1980,#1974))
REPRESENTATION_CONTEXT('Part 3','TOP_LEVEL_ASSEMBLY_PART')
);
#1963=(
GEOMETRIC_REPRESENTATION_CONTEXT(3)
GLOBAL_UNCERTAINTY_ASSIGNED_CONTEXT((#1969))
GLOBAL_UNIT_ASSIGNED_CONTEXT((#1987,#1981,#1975))
REPRESENTATION_CONTEXT('Part 1','TOP_LEVEL_ASSEMBLY_PART')
);
#1964=UNCERTAINTY_MEASURE_WITH_UNIT(LENGTH_MEASURE(1.E-8),#1982,
'DISTANCE_ACCURACY_VALUE','Maximum Tolerance applied to model');
#1965=UNCERTAINTY_MEASURE_WITH_UNIT(LENGTH_MEASURE(1.E-8),#1983,
'DISTANCE_ACCURACY_VALUE','Maximum Tolerance applied to model');
#1966=UNCERTAINTY_MEASURE_WITH_UNIT(LENGTH_MEASURE(1.E-8),#1984,
'DISTANCE_ACCURACY_VALUE','Maximum Tolerance applied to model');
#1967=UNCERTAINTY_MEASURE_WITH_UNIT(LENGTH_MEASURE(1.E-8),#1985,
'DISTANCE_ACCURACY_VALUE','Maximum Tolerance applied to model');
#1968=UNCERTAINTY_MEASURE_WITH_UNIT(LENGTH_MEASURE(1.E-8),#1986,
'DISTANCE_ACCURACY_VALUE','Maximum Tolerance applied to model');
#1969=UNCERTAINTY_MEASURE_WITH_UNIT(LENGTH_MEASURE(1.E-8),#1987,
'DISTANCE_ACCURACY_VALUE','Maximum Tolerance applied to model');
#1970=(
NAMED_UNIT(*)
SI_UNIT($,.STERADIAN.)
SOLID_ANGLE_UNIT()
);
#1971=(
NAMED_UNIT(*)
SI_UNIT($,.STERADIAN.)
SOLID_ANGLE_UNIT()
);
#1972=(
NAMED_UNIT(*)
SI_UNIT($,.STERADIAN.)
SOLID_ANGLE_UNIT()
);
#1973=(
NAMED_UNIT(*)
SI_UNIT($,.STERADIAN.)
SOLID_ANGLE_UNIT()
);
#1974=(
NAMED_UNIT(*)
SI_UNIT($,.STERADIAN.)
SOLID_ANGLE_UNIT()
);
#1975=(
NAMED_UNIT(*)
SI_UNIT($,.STERADIAN.)
SOLID_ANGLE_UNIT()
);
#1976=(
NAMED_UNIT(*)
PLANE_ANGLE_UNIT()
SI_UNIT($,.RADIAN.)
);
#1977=(
NAMED_UNIT(*)
PLANE_ANGLE_UNIT()
SI_UNIT($,.RADIAN.)
);
#1978=(
NAMED_UNIT(*)
PLANE_ANGLE_UNIT()
SI_UNIT($,.RADIAN.)
);
#1979=(
NAMED_UNIT(*)
PLANE_ANGLE_UNIT()
SI_UNIT($,.RADIAN.)
);
#1980=(
NAMED_UNIT(*)
PLANE_ANGLE_UNIT()
SI_UNIT($,.RADIAN.)
);
#1981=(
NAMED_UNIT(*)
PLANE_ANGLE_UNIT()
SI_UNIT($,.RADIAN.)
);
#1982=(
LENGTH_UNIT()
NAMED_UNIT(*)
SI_UNIT($,.METRE.)
);
#1983=(
LENGTH_UNIT()
NAMED_UNIT(*)
SI_UNIT($,.METRE.)
);
#1984=(
LENGTH_UNIT()
NAMED_UNIT(*)
SI_UNIT($,.METRE.)
);
#1985=(
LENGTH_UNIT()
NAMED_UNIT(*)
SI_UNIT($,.METRE.)
);
#1986=(
LENGTH_UNIT()
NAMED_UNIT(*)
SI_UNIT($,.METRE.)
);
#1987=(
LENGTH_UNIT()
NAMED_UNIT(*)
SI_UNIT($,.METRE.)
);
#1988=PRODUCT_DEFINITION_SHAPE('','',#1994);
#1989=PRODUCT_DEFINITION_SHAPE('','',#1995);
#1990=PRODUCT_DEFINITION_SHAPE('','',#1996);
#1991=PRODUCT_DEFINITION_SHAPE('','',#1997);
#1992=PRODUCT_DEFINITION_SHAPE('','',#1998);
#1993=PRODUCT_DEFINITION_SHAPE('','',#1999);
#1994=PRODUCT_DEFINITION('','',#2006,#2000);
#1995=PRODUCT_DEFINITION('','',#2007,#2001);
#1996=PRODUCT_DEFINITION('','',#2008,#2002);
#1997=PRODUCT_DEFINITION('','',#2009,#2003);
#1998=PRODUCT_DEFINITION('','',#2010,#2004);
#1999=PRODUCT_DEFINITION('','',#2011,#2005);
#2000=PRODUCT_DEFINITION_CONTEXT('',#2042,'design');
#2001=PRODUCT_DEFINITION_CONTEXT('',#2043,'design');
#2002=PRODUCT_DEFINITION_CONTEXT('',#2044,'design');
#2003=PRODUCT_DEFINITION_CONTEXT('',#2045,'design');
#2004=PRODUCT_DEFINITION_CONTEXT('',#2046,'design');
#2005=PRODUCT_DEFINITION_CONTEXT('',#2047,'design');
#2006=PRODUCT_DEFINITION_FORMATION_WITH_SPECIFIED_SOURCE('','',#2018,
 .NOT_KNOWN.);
#2007=PRODUCT_DEFINITION_FORMATION_WITH_SPECIFIED_SOURCE('','',#2019,
 .NOT_KNOWN.);
#2008=PRODUCT_DEFINITION_FORMATION_WITH_SPECIFIED_SOURCE('','',#2020,
 .NOT_KNOWN.);
#2009=PRODUCT_DEFINITION_FORMATION_WITH_SPECIFIED_SOURCE('','',#2021,
 .NOT_KNOWN.);
#2010=PRODUCT_DEFINITION_FORMATION_WITH_SPECIFIED_SOURCE('','',#2022,
 .NOT_KNOWN.);
#2011=PRODUCT_DEFINITION_FORMATION_WITH_SPECIFIED_SOURCE('','',#2023,
 .NOT_KNOWN.);
#2012=PRODUCT_RELATED_PRODUCT_CATEGORY('','',(#2018));
#2013=PRODUCT_RELATED_PRODUCT_CATEGORY('','',(#2019));
#2014=PRODUCT_RELATED_PRODUCT_CATEGORY('','',(#2020));
#2015=PRODUCT_RELATED_PRODUCT_CATEGORY('','',(#2021));
#2016=PRODUCT_RELATED_PRODUCT_CATEGORY('','',(#2022));
#2017=PRODUCT_RELATED_PRODUCT_CATEGORY('','',(#2023));
#2018=PRODUCT('Part 4','Part 4','Part 4',(#2030));
#2019=PRODUCT('Part 2','Part 2','Part 2',(#2031));
#2020=PRODUCT('Part 5','Part 5','Part 5',(#2032));
#2021=PRODUCT('Part 6','Part 6','Part 6',(#2033));
#2022=PRODUCT('Part 3','Part 3','Part 3',(#2034));
#2023=PRODUCT('Part 1','Part 1','Part 1',(#2035));
#2024=PRODUCT_CATEGORY('','');
#2025=PRODUCT_CATEGORY('','');
#2026=PRODUCT_CATEGORY('','');
#2027=PRODUCT_CATEGORY('','');
#2028=PRODUCT_CATEGORY('','');
#2029=PRODUCT_CATEGORY('','');
#2030=PRODUCT_CONTEXT('',#2042,'mechanical');
#2031=PRODUCT_CONTEXT('',#2043,'mechanical');
#2032=PRODUCT_CONTEXT('',#2044,'mechanical');
#2033=PRODUCT_CONTEXT('',#2045,'mechanical');
#2034=PRODUCT_CONTEXT('',#2046,'mechanical');
#2035=PRODUCT_CONTEXT('',#2047,'mechanical');
#2036=APPLICATION_PROTOCOL_DEFINITION('international standard',
'ap242_managed_model_based_3d_engineering',2020,#2042);
#2037=APPLICATION_PROTOCOL_DEFINITION('international standard',
'ap242_managed_model_based_3d_engineering',2020,#2043);
#2038=APPLICATION_PROTOCOL_DEFINITION('international standard',
'ap242_managed_model_based_3d_engineering',2020,#2044);
#2039=APPLICATION_PROTOCOL_DEFINITION('international standard',
'ap242_managed_model_based_3d_engineering',2020,#2045);
#2040=APPLICATION_PROTOCOL_DEFINITION('international standard',
'ap242_managed_model_based_3d_engineering',2020,#2046);
#2041=APPLICATION_PROTOCOL_DEFINITION('international standard',
'ap242_managed_model_based_3d_engineering',2020,#2047);
#2042=APPLICATION_CONTEXT('managed model based 3d engineering');
#2043=APPLICATION_CONTEXT('managed model based 3d engineering');
#2044=APPLICATION_CONTEXT('managed model based 3d engineering');
#2045=APPLICATION_CONTEXT('managed model based 3d engineering');
#2046=APPLICATION_CONTEXT('managed model based 3d engineering');
#2047=APPLICATION_CONTEXT('managed model based 3d engineering');
ENDSEC;
END-ISO-10303-21;
