ISO-10303-21;
HEADER;
/* Generated by software containing ST-Developer
 * from STEP Tools, Inc. (www.steptools.com) 
 */
/* OPTION: using custom renumber hook */

FILE_DESCRIPTION(
/* description */ ('STEP AP242 Edition 2',
'CAx-IF Rec.Pracs.---Representation and Presentation of Product Manufa
cturing Information (PMI)---4.0---2014-10-13',
'CAx-IF Rec.Pracs.---3D Tessellated Geometry---0.4---2014-09-14','2;1',
'CAx-IF Rec.Pracs.---User Defined Attributes---1.5---2016-08-15'),
/* implementation_level */ '2;1');

FILE_NAME(
/* name */ 'Chassis + Mounts - Chassis',
/* time_stamp */ '2026-07-26T16:42:38Z',
/* author */ (''),
/* organization */ (''),
/* preprocessor_version */ 'ST-DEVELOPER v20',
/* originating_system */ 'ONSHAPE BY PTC INC, 1.218',
/* authorisation */ '  ');

FILE_SCHEMA (('AP242_MANAGED_MODEL_BASED_3D_ENGINEERING_MIM_LF { 1 0 10303 442 3 1 4 }'));
ENDSEC;

DATA;
#10=SHAPE_REPRESENTATION_RELATIONSHIP('','',#976,#11);
#11=ADVANCED_BREP_SHAPE_REPRESENTATION('',(#974),#1540);
#12=CYLINDRICAL_SURFACE('',#990,0.0889);
#13=CYLINDRICAL_SURFACE('',#1013,0.08636);
#14=CYLINDRICAL_SURFACE('',#1025,0.00165);
#15=CYLINDRICAL_SURFACE('',#1026,0.00165);
#16=CYLINDRICAL_SURFACE('',#1027,0.00165);
#17=CYLINDRICAL_SURFACE('',#1028,0.00165);
#18=CIRCLE('',#979,0.00165);
#19=CIRCLE('',#980,0.00165);
#20=CIRCLE('',#981,0.00165);
#21=CIRCLE('',#982,0.00165);
#22=CIRCLE('',#983,0.08636);
#23=CIRCLE('',#985,0.00165);
#24=CIRCLE('',#986,0.00165);
#25=CIRCLE('',#987,0.00165);
#26=CIRCLE('',#988,0.00165);
#27=CIRCLE('',#989,0.0889);
#28=CIRCLE('',#991,0.0889);
#29=CIRCLE('',#1014,0.08636);
#30=ORIENTED_EDGE('',*,*,#288,.F.);
#31=ORIENTED_EDGE('',*,*,#289,.T.);
#32=ORIENTED_EDGE('',*,*,#290,.T.);
#33=ORIENTED_EDGE('',*,*,#291,.F.);
#34=ORIENTED_EDGE('',*,*,#292,.F.);
#35=ORIENTED_EDGE('',*,*,#293,.T.);
#36=ORIENTED_EDGE('',*,*,#294,.T.);
#37=ORIENTED_EDGE('',*,*,#295,.F.);
#38=ORIENTED_EDGE('',*,*,#296,.F.);
#39=ORIENTED_EDGE('',*,*,#297,.F.);
#40=ORIENTED_EDGE('',*,*,#298,.F.);
#41=ORIENTED_EDGE('',*,*,#299,.F.);
#42=ORIENTED_EDGE('',*,*,#300,.F.);
#43=ORIENTED_EDGE('',*,*,#301,.T.);
#44=ORIENTED_EDGE('',*,*,#302,.T.);
#45=ORIENTED_EDGE('',*,*,#303,.F.);
#46=ORIENTED_EDGE('',*,*,#304,.F.);
#47=ORIENTED_EDGE('',*,*,#305,.F.);
#48=ORIENTED_EDGE('',*,*,#306,.T.);
#49=ORIENTED_EDGE('',*,*,#307,.F.);
#50=ORIENTED_EDGE('',*,*,#308,.F.);
#51=ORIENTED_EDGE('',*,*,#309,.T.);
#52=ORIENTED_EDGE('',*,*,#310,.T.);
#53=ORIENTED_EDGE('',*,*,#311,.T.);
#54=ORIENTED_EDGE('',*,*,#312,.T.);
#55=ORIENTED_EDGE('',*,*,#313,.T.);
#56=ORIENTED_EDGE('',*,*,#314,.F.);
#57=ORIENTED_EDGE('',*,*,#315,.F.);
#58=ORIENTED_EDGE('',*,*,#316,.F.);
#59=ORIENTED_EDGE('',*,*,#317,.F.);
#60=ORIENTED_EDGE('',*,*,#318,.T.);
#61=ORIENTED_EDGE('',*,*,#319,.T.);
#62=ORIENTED_EDGE('',*,*,#320,.F.);
#63=ORIENTED_EDGE('',*,*,#321,.F.);
#64=ORIENTED_EDGE('',*,*,#322,.T.);
#65=ORIENTED_EDGE('',*,*,#323,.T.);
#66=ORIENTED_EDGE('',*,*,#324,.T.);
#67=ORIENTED_EDGE('',*,*,#325,.T.);
#68=ORIENTED_EDGE('',*,*,#326,.T.);
#69=ORIENTED_EDGE('',*,*,#327,.F.);
#70=ORIENTED_EDGE('',*,*,#328,.F.);
#71=ORIENTED_EDGE('',*,*,#329,.F.);
#72=ORIENTED_EDGE('',*,*,#330,.F.);
#73=ORIENTED_EDGE('',*,*,#331,.T.);
#74=ORIENTED_EDGE('',*,*,#332,.F.);
#75=ORIENTED_EDGE('',*,*,#333,.F.);
#76=ORIENTED_EDGE('',*,*,#334,.T.);
#77=ORIENTED_EDGE('',*,*,#335,.T.);
#78=ORIENTED_EDGE('',*,*,#336,.F.);
#79=ORIENTED_EDGE('',*,*,#337,.F.);
#80=ORIENTED_EDGE('',*,*,#338,.T.);
#81=ORIENTED_EDGE('',*,*,#339,.T.);
#82=ORIENTED_EDGE('',*,*,#340,.T.);
#83=ORIENTED_EDGE('',*,*,#341,.T.);
#84=ORIENTED_EDGE('',*,*,#342,.T.);
#85=ORIENTED_EDGE('',*,*,#343,.F.);
#86=ORIENTED_EDGE('',*,*,#344,.F.);
#87=ORIENTED_EDGE('',*,*,#345,.T.);
#88=ORIENTED_EDGE('',*,*,#346,.T.);
#89=ORIENTED_EDGE('',*,*,#347,.T.);
#90=ORIENTED_EDGE('',*,*,#348,.T.);
#91=ORIENTED_EDGE('',*,*,#349,.T.);
#92=ORIENTED_EDGE('',*,*,#350,.T.);
#93=ORIENTED_EDGE('',*,*,#351,.F.);
#94=ORIENTED_EDGE('',*,*,#352,.F.);
#95=ORIENTED_EDGE('',*,*,#353,.F.);
#96=ORIENTED_EDGE('',*,*,#354,.F.);
#97=ORIENTED_EDGE('',*,*,#355,.T.);
#98=ORIENTED_EDGE('',*,*,#356,.T.);
#99=ORIENTED_EDGE('',*,*,#357,.T.);
#100=ORIENTED_EDGE('',*,*,#358,.T.);
#101=ORIENTED_EDGE('',*,*,#343,.T.);
#102=ORIENTED_EDGE('',*,*,#359,.F.);
#103=ORIENTED_EDGE('',*,*,#360,.F.);
#104=ORIENTED_EDGE('',*,*,#361,.T.);
#105=ORIENTED_EDGE('',*,*,#322,.F.);
#106=ORIENTED_EDGE('',*,*,#362,.F.);
#107=ORIENTED_EDGE('',*,*,#363,.T.);
#108=ORIENTED_EDGE('',*,*,#364,.T.);
#109=ORIENTED_EDGE('',*,*,#321,.T.);
#110=ORIENTED_EDGE('',*,*,#365,.F.);
#111=ORIENTED_EDGE('',*,*,#366,.F.);
#112=ORIENTED_EDGE('',*,*,#362,.T.);
#113=ORIENTED_EDGE('',*,*,#320,.T.);
#114=ORIENTED_EDGE('',*,*,#367,.F.);
#115=ORIENTED_EDGE('',*,*,#368,.F.);
#116=ORIENTED_EDGE('',*,*,#365,.T.);
#117=ORIENTED_EDGE('',*,*,#319,.F.);
#118=ORIENTED_EDGE('',*,*,#369,.F.);
#119=ORIENTED_EDGE('',*,*,#370,.T.);
#120=ORIENTED_EDGE('',*,*,#367,.T.);
#121=ORIENTED_EDGE('',*,*,#326,.F.);
#122=ORIENTED_EDGE('',*,*,#371,.F.);
#123=ORIENTED_EDGE('',*,*,#372,.T.);
#124=ORIENTED_EDGE('',*,*,#369,.T.);
#125=ORIENTED_EDGE('',*,*,#318,.F.);
#126=ORIENTED_EDGE('',*,*,#325,.F.);
#127=ORIENTED_EDGE('',*,*,#373,.F.);
#128=ORIENTED_EDGE('',*,*,#374,.T.);
#129=ORIENTED_EDGE('',*,*,#371,.T.);
#130=ORIENTED_EDGE('',*,*,#324,.F.);
#131=ORIENTED_EDGE('',*,*,#375,.F.);
#132=ORIENTED_EDGE('',*,*,#376,.T.);
#133=ORIENTED_EDGE('',*,*,#373,.T.);
#134=ORIENTED_EDGE('',*,*,#323,.F.);
#135=ORIENTED_EDGE('',*,*,#364,.F.);
#136=ORIENTED_EDGE('',*,*,#377,.T.);
#137=ORIENTED_EDGE('',*,*,#375,.T.);
#138=ORIENTED_EDGE('',*,*,#363,.F.);
#139=ORIENTED_EDGE('',*,*,#366,.T.);
#140=ORIENTED_EDGE('',*,*,#368,.T.);
#141=ORIENTED_EDGE('',*,*,#370,.F.);
#142=ORIENTED_EDGE('',*,*,#372,.F.);
#143=ORIENTED_EDGE('',*,*,#374,.F.);
#144=ORIENTED_EDGE('',*,*,#376,.F.);
#145=ORIENTED_EDGE('',*,*,#377,.F.);
#146=ORIENTED_EDGE('',*,*,#378,.T.);
#147=ORIENTED_EDGE('',*,*,#311,.F.);
#148=ORIENTED_EDGE('',*,*,#379,.F.);
#149=ORIENTED_EDGE('',*,*,#355,.F.);
#150=ORIENTED_EDGE('',*,*,#380,.T.);
#151=ORIENTED_EDGE('',*,*,#312,.F.);
#152=ORIENTED_EDGE('',*,*,#378,.F.);
#153=ORIENTED_EDGE('',*,*,#358,.F.);
#154=ORIENTED_EDGE('',*,*,#379,.T.);
#155=ORIENTED_EDGE('',*,*,#310,.F.);
#156=ORIENTED_EDGE('',*,*,#381,.F.);
#157=ORIENTED_EDGE('',*,*,#356,.F.);
#158=ORIENTED_EDGE('',*,*,#381,.T.);
#159=ORIENTED_EDGE('',*,*,#313,.F.);
#160=ORIENTED_EDGE('',*,*,#380,.F.);
#161=ORIENTED_EDGE('',*,*,#357,.F.);
#162=ORIENTED_EDGE('',*,*,#352,.T.);
#163=ORIENTED_EDGE('',*,*,#382,.T.);
#164=ORIENTED_EDGE('',*,*,#317,.T.);
#165=ORIENTED_EDGE('',*,*,#383,.F.);
#166=ORIENTED_EDGE('',*,*,#353,.T.);
#167=ORIENTED_EDGE('',*,*,#383,.T.);
#168=ORIENTED_EDGE('',*,*,#316,.T.);
#169=ORIENTED_EDGE('',*,*,#384,.F.);
#170=ORIENTED_EDGE('',*,*,#351,.T.);
#171=ORIENTED_EDGE('',*,*,#385,.T.);
#172=ORIENTED_EDGE('',*,*,#314,.T.);
#173=ORIENTED_EDGE('',*,*,#382,.F.);
#174=ORIENTED_EDGE('',*,*,#354,.T.);
#175=ORIENTED_EDGE('',*,*,#384,.T.);
#176=ORIENTED_EDGE('',*,*,#315,.T.);
#177=ORIENTED_EDGE('',*,*,#385,.F.);
#178=ORIENTED_EDGE('',*,*,#386,.T.);
#179=ORIENTED_EDGE('',*,*,#327,.T.);
#180=ORIENTED_EDGE('',*,*,#387,.F.);
#181=ORIENTED_EDGE('',*,*,#348,.F.);
#182=ORIENTED_EDGE('',*,*,#387,.T.);
#183=ORIENTED_EDGE('',*,*,#330,.T.);
#184=ORIENTED_EDGE('',*,*,#388,.F.);
#185=ORIENTED_EDGE('',*,*,#349,.F.);
#186=ORIENTED_EDGE('',*,*,#388,.T.);
#187=ORIENTED_EDGE('',*,*,#329,.T.);
#188=ORIENTED_EDGE('',*,*,#389,.F.);
#189=ORIENTED_EDGE('',*,*,#350,.F.);
#190=ORIENTED_EDGE('',*,*,#389,.T.);
#191=ORIENTED_EDGE('',*,*,#328,.T.);
#192=ORIENTED_EDGE('',*,*,#386,.F.);
#193=ORIENTED_EDGE('',*,*,#347,.F.);
#194=ORIENTED_EDGE('',*,*,#390,.T.);
#195=ORIENTED_EDGE('',*,*,#303,.T.);
#196=ORIENTED_EDGE('',*,*,#391,.F.);
#197=ORIENTED_EDGE('',*,*,#392,.T.);
#198=ORIENTED_EDGE('',*,*,#392,.F.);
#199=ORIENTED_EDGE('',*,*,#393,.F.);
#200=ORIENTED_EDGE('',*,*,#394,.T.);
#201=ORIENTED_EDGE('',*,*,#395,.T.);
#202=ORIENTED_EDGE('',*,*,#396,.T.);
#203=ORIENTED_EDGE('',*,*,#360,.T.);
#204=ORIENTED_EDGE('',*,*,#397,.F.);
#205=ORIENTED_EDGE('',*,*,#398,.F.);
#206=ORIENTED_EDGE('',*,*,#399,.F.);
#207=ORIENTED_EDGE('',*,*,#400,.T.);
#208=ORIENTED_EDGE('',*,*,#344,.T.);
#209=ORIENTED_EDGE('',*,*,#361,.F.);
#210=ORIENTED_EDGE('',*,*,#396,.F.);
#211=ORIENTED_EDGE('',*,*,#401,.T.);
#212=ORIENTED_EDGE('',*,*,#309,.F.);
#213=ORIENTED_EDGE('',*,*,#402,.T.);
#214=ORIENTED_EDGE('',*,*,#307,.T.);
#215=ORIENTED_EDGE('',*,*,#403,.F.);
#216=ORIENTED_EDGE('',*,*,#397,.T.);
#217=ORIENTED_EDGE('',*,*,#359,.T.);
#218=ORIENTED_EDGE('',*,*,#346,.F.);
#219=ORIENTED_EDGE('',*,*,#404,.F.);
#220=ORIENTED_EDGE('',*,*,#345,.F.);
#221=ORIENTED_EDGE('',*,*,#402,.F.);
#222=ORIENTED_EDGE('',*,*,#308,.T.);
#223=ORIENTED_EDGE('',*,*,#404,.T.);
#224=ORIENTED_EDGE('',*,*,#391,.T.);
#225=ORIENTED_EDGE('',*,*,#302,.F.);
#226=ORIENTED_EDGE('',*,*,#405,.F.);
#227=ORIENTED_EDGE('',*,*,#393,.T.);
#228=ORIENTED_EDGE('',*,*,#301,.F.);
#229=ORIENTED_EDGE('',*,*,#406,.F.);
#230=ORIENTED_EDGE('',*,*,#394,.F.);
#231=ORIENTED_EDGE('',*,*,#405,.T.);
#232=ORIENTED_EDGE('',*,*,#390,.F.);
#233=ORIENTED_EDGE('',*,*,#400,.F.);
#234=ORIENTED_EDGE('',*,*,#407,.T.);
#235=ORIENTED_EDGE('',*,*,#304,.T.);
#236=ORIENTED_EDGE('',*,*,#399,.T.);
#237=ORIENTED_EDGE('',*,*,#408,.T.);
#238=ORIENTED_EDGE('',*,*,#305,.T.);
#239=ORIENTED_EDGE('',*,*,#407,.F.);
#240=ORIENTED_EDGE('',*,*,#398,.T.);
#241=ORIENTED_EDGE('',*,*,#403,.T.);
#242=ORIENTED_EDGE('',*,*,#306,.F.);
#243=ORIENTED_EDGE('',*,*,#408,.F.);
#244=ORIENTED_EDGE('',*,*,#401,.F.);
#245=ORIENTED_EDGE('',*,*,#395,.F.);
#246=ORIENTED_EDGE('',*,*,#406,.T.);
#247=ORIENTED_EDGE('',*,*,#300,.T.);
#248=ORIENTED_EDGE('',*,*,#299,.T.);
#249=ORIENTED_EDGE('',*,*,#342,.F.);
#250=ORIENTED_EDGE('',*,*,#298,.T.);
#251=ORIENTED_EDGE('',*,*,#341,.F.);
#252=ORIENTED_EDGE('',*,*,#297,.T.);
#253=ORIENTED_EDGE('',*,*,#340,.F.);
#254=ORIENTED_EDGE('',*,*,#296,.T.);
#255=ORIENTED_EDGE('',*,*,#339,.F.);
#256=ORIENTED_EDGE('',*,*,#336,.T.);
#257=ORIENTED_EDGE('',*,*,#409,.T.);
#258=ORIENTED_EDGE('',*,*,#292,.T.);
#259=ORIENTED_EDGE('',*,*,#410,.F.);
#260=ORIENTED_EDGE('',*,*,#411,.T.);
#261=ORIENTED_EDGE('',*,*,#293,.F.);
#262=ORIENTED_EDGE('',*,*,#409,.F.);
#263=ORIENTED_EDGE('',*,*,#335,.F.);
#264=ORIENTED_EDGE('',*,*,#337,.T.);
#265=ORIENTED_EDGE('',*,*,#410,.T.);
#266=ORIENTED_EDGE('',*,*,#295,.T.);
#267=ORIENTED_EDGE('',*,*,#412,.F.);
#268=ORIENTED_EDGE('',*,*,#412,.T.);
#269=ORIENTED_EDGE('',*,*,#294,.F.);
#270=ORIENTED_EDGE('',*,*,#411,.F.);
#271=ORIENTED_EDGE('',*,*,#338,.F.);
#272=ORIENTED_EDGE('',*,*,#332,.T.);
#273=ORIENTED_EDGE('',*,*,#413,.T.);
#274=ORIENTED_EDGE('',*,*,#288,.T.);
#275=ORIENTED_EDGE('',*,*,#414,.F.);
#276=ORIENTED_EDGE('',*,*,#415,.T.);
#277=ORIENTED_EDGE('',*,*,#289,.F.);
#278=ORIENTED_EDGE('',*,*,#413,.F.);
#279=ORIENTED_EDGE('',*,*,#331,.F.);
#280=ORIENTED_EDGE('',*,*,#333,.T.);
#281=ORIENTED_EDGE('',*,*,#414,.T.);
#282=ORIENTED_EDGE('',*,*,#291,.T.);
#283=ORIENTED_EDGE('',*,*,#416,.F.);
#284=ORIENTED_EDGE('',*,*,#416,.T.);
#285=ORIENTED_EDGE('',*,*,#290,.F.);
#286=ORIENTED_EDGE('',*,*,#415,.F.);
#287=ORIENTED_EDGE('',*,*,#334,.F.);
#288=EDGE_CURVE('',#417,#418,#505,.T.);
#289=EDGE_CURVE('',#417,#419,#506,.T.);
#290=EDGE_CURVE('',#419,#420,#507,.T.);
#291=EDGE_CURVE('',#418,#420,#508,.T.);
#292=EDGE_CURVE('',#421,#422,#509,.T.);
#293=EDGE_CURVE('',#421,#423,#510,.T.);
#294=EDGE_CURVE('',#423,#424,#511,.T.);
#295=EDGE_CURVE('',#422,#424,#512,.T.);
#296=EDGE_CURVE('',#425,#425,#18,.T.);
#297=EDGE_CURVE('',#426,#426,#19,.T.);
#298=EDGE_CURVE('',#427,#427,#20,.T.);
#299=EDGE_CURVE('',#428,#428,#21,.T.);
#300=EDGE_CURVE('',#429,#430,#513,.T.);
#301=EDGE_CURVE('',#429,#431,#514,.T.);
#302=EDGE_CURVE('',#431,#432,#515,.T.);
#303=EDGE_CURVE('',#433,#432,#22,.F.);
#304=EDGE_CURVE('',#434,#433,#516,.T.);
#305=EDGE_CURVE('',#435,#434,#517,.T.);
#306=EDGE_CURVE('',#435,#436,#518,.T.);
#307=EDGE_CURVE('',#437,#436,#519,.T.);
#308=EDGE_CURVE('',#438,#437,#520,.T.);
#309=EDGE_CURVE('',#438,#430,#521,.T.);
#310=EDGE_CURVE('',#439,#440,#522,.T.);
#311=EDGE_CURVE('',#440,#441,#523,.T.);
#312=EDGE_CURVE('',#441,#442,#524,.T.);
#313=EDGE_CURVE('',#442,#439,#525,.T.);
#314=EDGE_CURVE('',#443,#444,#526,.T.);
#315=EDGE_CURVE('',#445,#443,#527,.T.);
#316=EDGE_CURVE('',#446,#445,#528,.T.);
#317=EDGE_CURVE('',#444,#446,#529,.T.);
#318=EDGE_CURVE('',#444,#447,#530,.T.);
#319=EDGE_CURVE('',#447,#448,#531,.T.);
#320=EDGE_CURVE('',#449,#448,#532,.T.);
#321=EDGE_CURVE('',#450,#449,#533,.T.);
#322=EDGE_CURVE('',#450,#451,#534,.T.);
#323=EDGE_CURVE('',#451,#452,#535,.T.);
#324=EDGE_CURVE('',#452,#453,#536,.T.);
#325=EDGE_CURVE('',#453,#454,#537,.T.);
#326=EDGE_CURVE('',#454,#444,#538,.T.);
#327=EDGE_CURVE('',#455,#456,#539,.T.);
#328=EDGE_CURVE('',#457,#455,#540,.T.);
#329=EDGE_CURVE('',#458,#457,#541,.T.);
#330=EDGE_CURVE('',#456,#458,#542,.T.);
#331=EDGE_CURVE('',#459,#460,#543,.T.);
#332=EDGE_CURVE('',#461,#460,#544,.T.);
#333=EDGE_CURVE('',#462,#461,#545,.T.);
#334=EDGE_CURVE('',#462,#459,#546,.T.);
#335=EDGE_CURVE('',#463,#464,#547,.T.);
#336=EDGE_CURVE('',#465,#464,#548,.T.);
#337=EDGE_CURVE('',#466,#465,#549,.T.);
#338=EDGE_CURVE('',#466,#463,#550,.T.);
#339=EDGE_CURVE('',#467,#467,#23,.T.);
#340=EDGE_CURVE('',#468,#468,#24,.T.);
#341=EDGE_CURVE('',#469,#469,#25,.T.);
#342=EDGE_CURVE('',#470,#470,#26,.T.);
#343=EDGE_CURVE('',#471,#472,#27,.T.);
#344=EDGE_CURVE('',#473,#471,#551,.T.);
#345=EDGE_CURVE('',#473,#474,#552,.T.);
#346=EDGE_CURVE('',#474,#472,#553,.T.);
#347=EDGE_CURVE('',#475,#476,#554,.T.);
#348=EDGE_CURVE('',#476,#477,#555,.T.);
#349=EDGE_CURVE('',#477,#478,#556,.T.);
#350=EDGE_CURVE('',#478,#475,#557,.T.);
#351=EDGE_CURVE('',#479,#480,#558,.T.);
#352=EDGE_CURVE('',#481,#479,#559,.T.);
#353=EDGE_CURVE('',#482,#481,#560,.T.);
#354=EDGE_CURVE('',#480,#482,#561,.T.);
#355=EDGE_CURVE('',#483,#484,#562,.T.);
#356=EDGE_CURVE('',#484,#485,#563,.T.);
#357=EDGE_CURVE('',#485,#486,#564,.T.);
#358=EDGE_CURVE('',#486,#483,#565,.T.);
#359=EDGE_CURVE('',#487,#472,#566,.T.);
#360=EDGE_CURVE('',#488,#487,#28,.T.);
#361=EDGE_CURVE('',#488,#471,#567,.T.);
#362=EDGE_CURVE('',#489,#450,#568,.T.);
#363=EDGE_CURVE('',#489,#490,#569,.T.);
#364=EDGE_CURVE('',#490,#451,#570,.T.);
#365=EDGE_CURVE('',#491,#449,#571,.T.);
#366=EDGE_CURVE('',#489,#491,#572,.T.);
#367=EDGE_CURVE('',#492,#448,#573,.T.);
#368=EDGE_CURVE('',#491,#492,#574,.T.);
#369=EDGE_CURVE('',#493,#447,#575,.T.);
#370=EDGE_CURVE('',#493,#492,#576,.T.);
#371=EDGE_CURVE('',#494,#454,#577,.T.);
#372=EDGE_CURVE('',#494,#493,#578,.T.);
#373=EDGE_CURVE('',#495,#453,#579,.T.);
#374=EDGE_CURVE('',#495,#494,#580,.T.);
#375=EDGE_CURVE('',#496,#452,#581,.T.);
#376=EDGE_CURVE('',#496,#495,#582,.T.);
#377=EDGE_CURVE('',#490,#496,#583,.T.);
#378=EDGE_CURVE('',#483,#441,#584,.T.);
#379=EDGE_CURVE('',#484,#440,#585,.T.);
#380=EDGE_CURVE('',#486,#442,#586,.T.);
#381=EDGE_CURVE('',#485,#439,#587,.T.);
#382=EDGE_CURVE('',#479,#444,#588,.T.);
#383=EDGE_CURVE('',#481,#446,#589,.T.);
#384=EDGE_CURVE('',#482,#445,#590,.T.);
#385=EDGE_CURVE('',#480,#443,#591,.T.);
#386=EDGE_CURVE('',#476,#455,#592,.T.);
#387=EDGE_CURVE('',#477,#456,#593,.T.);
#388=EDGE_CURVE('',#478,#458,#594,.T.);
#389=EDGE_CURVE('',#475,#457,#595,.T.);
#390=EDGE_CURVE('',#497,#433,#596,.T.);
#391=EDGE_CURVE('',#498,#432,#597,.T.);
#392=EDGE_CURVE('',#498,#497,#29,.T.);
#393=EDGE_CURVE('',#499,#498,#598,.T.);
#394=EDGE_CURVE('',#499,#500,#599,.T.);
#395=EDGE_CURVE('',#500,#501,#600,.T.);
#396=EDGE_CURVE('',#501,#488,#601,.T.);
#397=EDGE_CURVE('',#502,#487,#602,.T.);
#398=EDGE_CURVE('',#503,#502,#603,.T.);
#399=EDGE_CURVE('',#504,#503,#604,.T.);
#400=EDGE_CURVE('',#504,#497,#605,.T.);
#401=EDGE_CURVE('',#501,#430,#606,.T.);
#402=EDGE_CURVE('',#438,#473,#607,.T.);
#403=EDGE_CURVE('',#502,#436,#608,.T.);
#404=EDGE_CURVE('',#437,#474,#609,.T.);
#405=EDGE_CURVE('',#499,#431,#610,.T.);
#406=EDGE_CURVE('',#500,#429,#611,.T.);
#407=EDGE_CURVE('',#504,#434,#612,.T.);
#408=EDGE_CURVE('',#503,#435,#613,.T.);
#409=EDGE_CURVE('',#464,#421,#614,.T.);
#410=EDGE_CURVE('',#465,#422,#615,.T.);
#411=EDGE_CURVE('',#463,#423,#616,.T.);
#412=EDGE_CURVE('',#466,#424,#617,.T.);
#413=EDGE_CURVE('',#460,#417,#618,.T.);
#414=EDGE_CURVE('',#461,#418,#619,.T.);
#415=EDGE_CURVE('',#459,#419,#620,.T.);
#416=EDGE_CURVE('',#462,#420,#621,.T.);
#417=VERTEX_POINT('',#1277);
#418=VERTEX_POINT('',#1278);
#419=VERTEX_POINT('',#1280);
#420=VERTEX_POINT('',#1282);
#421=VERTEX_POINT('',#1285);
#422=VERTEX_POINT('',#1286);
#423=VERTEX_POINT('',#1288);
#424=VERTEX_POINT('',#1290);
#425=VERTEX_POINT('',#1293);
#426=VERTEX_POINT('',#1295);
#427=VERTEX_POINT('',#1297);
#428=VERTEX_POINT('',#1299);
#429=VERTEX_POINT('',#1301);
#430=VERTEX_POINT('',#1302);
#431=VERTEX_POINT('',#1304);
#432=VERTEX_POINT('',#1306);
#433=VERTEX_POINT('',#1308);
#434=VERTEX_POINT('',#1310);
#435=VERTEX_POINT('',#1312);
#436=VERTEX_POINT('',#1314);
#437=VERTEX_POINT('',#1316);
#438=VERTEX_POINT('',#1318);
#439=VERTEX_POINT('',#1321);
#440=VERTEX_POINT('',#1322);
#441=VERTEX_POINT('',#1324);
#442=VERTEX_POINT('',#1326);
#443=VERTEX_POINT('',#1329);
#444=VERTEX_POINT('',#1330);
#445=VERTEX_POINT('',#1332);
#446=VERTEX_POINT('',#1334);
#447=VERTEX_POINT('',#1337);
#448=VERTEX_POINT('',#1339);
#449=VERTEX_POINT('',#1341);
#450=VERTEX_POINT('',#1343);
#451=VERTEX_POINT('',#1345);
#452=VERTEX_POINT('',#1347);
#453=VERTEX_POINT('',#1349);
#454=VERTEX_POINT('',#1351);
#455=VERTEX_POINT('',#1354);
#456=VERTEX_POINT('',#1355);
#457=VERTEX_POINT('',#1357);
#458=VERTEX_POINT('',#1359);
#459=VERTEX_POINT('',#1363);
#460=VERTEX_POINT('',#1364);
#461=VERTEX_POINT('',#1366);
#462=VERTEX_POINT('',#1368);
#463=VERTEX_POINT('',#1371);
#464=VERTEX_POINT('',#1372);
#465=VERTEX_POINT('',#1374);
#466=VERTEX_POINT('',#1376);
#467=VERTEX_POINT('',#1379);
#468=VERTEX_POINT('',#1381);
#469=VERTEX_POINT('',#1383);
#470=VERTEX_POINT('',#1385);
#471=VERTEX_POINT('',#1387);
#472=VERTEX_POINT('',#1388);
#473=VERTEX_POINT('',#1390);
#474=VERTEX_POINT('',#1392);
#475=VERTEX_POINT('',#1395);
#476=VERTEX_POINT('',#1396);
#477=VERTEX_POINT('',#1398);
#478=VERTEX_POINT('',#1400);
#479=VERTEX_POINT('',#1403);
#480=VERTEX_POINT('',#1404);
#481=VERTEX_POINT('',#1406);
#482=VERTEX_POINT('',#1408);
#483=VERTEX_POINT('',#1411);
#484=VERTEX_POINT('',#1412);
#485=VERTEX_POINT('',#1414);
#486=VERTEX_POINT('',#1416);
#487=VERTEX_POINT('',#1420);
#488=VERTEX_POINT('',#1422);
#489=VERTEX_POINT('',#1426);
#490=VERTEX_POINT('',#1428);
#491=VERTEX_POINT('',#1432);
#492=VERTEX_POINT('',#1436);
#493=VERTEX_POINT('',#1440);
#494=VERTEX_POINT('',#1444);
#495=VERTEX_POINT('',#1448);
#496=VERTEX_POINT('',#1452);
#497=VERTEX_POINT('',#1483);
#498=VERTEX_POINT('',#1485);
#499=VERTEX_POINT('',#1489);
#500=VERTEX_POINT('',#1491);
#501=VERTEX_POINT('',#1493);
#502=VERTEX_POINT('',#1496);
#503=VERTEX_POINT('',#1498);
#504=VERTEX_POINT('',#1500);
#505=LINE('',#1276,#622);
#506=LINE('',#1279,#623);
#507=LINE('',#1281,#624);
#508=LINE('',#1283,#625);
#509=LINE('',#1284,#626);
#510=LINE('',#1287,#627);
#511=LINE('',#1289,#628);
#512=LINE('',#1291,#629);
#513=LINE('',#1300,#630);
#514=LINE('',#1303,#631);
#515=LINE('',#1305,#632);
#516=LINE('',#1309,#633);
#517=LINE('',#1311,#634);
#518=LINE('',#1313,#635);
#519=LINE('',#1315,#636);
#520=LINE('',#1317,#637);
#521=LINE('',#1319,#638);
#522=LINE('',#1320,#639);
#523=LINE('',#1323,#640);
#524=LINE('',#1325,#641);
#525=LINE('',#1327,#642);
#526=LINE('',#1328,#643);
#527=LINE('',#1331,#644);
#528=LINE('',#1333,#645);
#529=LINE('',#1335,#646);
#530=LINE('',#1336,#647);
#531=LINE('',#1338,#648);
#532=LINE('',#1340,#649);
#533=LINE('',#1342,#650);
#534=LINE('',#1344,#651);
#535=LINE('',#1346,#652);
#536=LINE('',#1348,#653);
#537=LINE('',#1350,#654);
#538=LINE('',#1352,#655);
#539=LINE('',#1353,#656);
#540=LINE('',#1356,#657);
#541=LINE('',#1358,#658);
#542=LINE('',#1360,#659);
#543=LINE('',#1362,#660);
#544=LINE('',#1365,#661);
#545=LINE('',#1367,#662);
#546=LINE('',#1369,#663);
#547=LINE('',#1370,#664);
#548=LINE('',#1373,#665);
#549=LINE('',#1375,#666);
#550=LINE('',#1377,#667);
#551=LINE('',#1389,#668);
#552=LINE('',#1391,#669);
#553=LINE('',#1393,#670);
#554=LINE('',#1394,#671);
#555=LINE('',#1397,#672);
#556=LINE('',#1399,#673);
#557=LINE('',#1401,#674);
#558=LINE('',#1402,#675);
#559=LINE('',#1405,#676);
#560=LINE('',#1407,#677);
#561=LINE('',#1409,#678);
#562=LINE('',#1410,#679);
#563=LINE('',#1413,#680);
#564=LINE('',#1415,#681);
#565=LINE('',#1417,#682);
#566=LINE('',#1419,#683);
#567=LINE('',#1423,#684);
#568=LINE('',#1425,#685);
#569=LINE('',#1427,#686);
#570=LINE('',#1429,#687);
#571=LINE('',#1431,#688);
#572=LINE('',#1433,#689);
#573=LINE('',#1435,#690);
#574=LINE('',#1437,#691);
#575=LINE('',#1439,#692);
#576=LINE('',#1441,#693);
#577=LINE('',#1443,#694);
#578=LINE('',#1445,#695);
#579=LINE('',#1447,#696);
#580=LINE('',#1449,#697);
#581=LINE('',#1451,#698);
#582=LINE('',#1453,#699);
#583=LINE('',#1455,#700);
#584=LINE('',#1458,#701);
#585=LINE('',#1459,#702);
#586=LINE('',#1461,#703);
#587=LINE('',#1463,#704);
#588=LINE('',#1466,#705);
#589=LINE('',#1467,#706);
#590=LINE('',#1469,#707);
#591=LINE('',#1471,#708);
#592=LINE('',#1474,#709);
#593=LINE('',#1475,#710);
#594=LINE('',#1477,#711);
#595=LINE('',#1479,#712);
#596=LINE('',#1482,#713);
#597=LINE('',#1484,#714);
#598=LINE('',#1488,#715);
#599=LINE('',#1490,#716);
#600=LINE('',#1492,#717);
#601=LINE('',#1494,#718);
#602=LINE('',#1495,#719);
#603=LINE('',#1497,#720);
#604=LINE('',#1499,#721);
#605=LINE('',#1501,#722);
#606=LINE('',#1503,#723);
#607=LINE('',#1504,#724);
#608=LINE('',#1506,#725);
#609=LINE('',#1507,#726);
#610=LINE('',#1510,#727);
#611=LINE('',#1512,#728);
#612=LINE('',#1514,#729);
#613=LINE('',#1516,#730);
#614=LINE('',#1524,#731);
#615=LINE('',#1525,#732);
#616=LINE('',#1527,#733);
#617=LINE('',#1529,#734);
#618=LINE('',#1532,#735);
#619=LINE('',#1533,#736);
#620=LINE('',#1535,#737);
#621=LINE('',#1537,#738);
#622=VECTOR('',#1041,1.);
#623=VECTOR('',#1042,1.);
#624=VECTOR('',#1043,1.);
#625=VECTOR('',#1044,1.);
#626=VECTOR('',#1045,1.);
#627=VECTOR('',#1046,1.);
#628=VECTOR('',#1047,1.);
#629=VECTOR('',#1048,1.);
#630=VECTOR('',#1057,1.);
#631=VECTOR('',#1058,1.);
#632=VECTOR('',#1059,1.);
#633=VECTOR('',#1062,1.);
#634=VECTOR('',#1063,1.);
#635=VECTOR('',#1064,1.);
#636=VECTOR('',#1065,1.);
#637=VECTOR('',#1066,1.);
#638=VECTOR('',#1067,1.);
#639=VECTOR('',#1068,1.);
#640=VECTOR('',#1069,1.);
#641=VECTOR('',#1070,1.);
#642=VECTOR('',#1071,1.);
#643=VECTOR('',#1072,1.);
#644=VECTOR('',#1073,1.);
#645=VECTOR('',#1074,1.);
#646=VECTOR('',#1075,1.);
#647=VECTOR('',#1076,1.);
#648=VECTOR('',#1077,1.);
#649=VECTOR('',#1078,1.);
#650=VECTOR('',#1079,1.);
#651=VECTOR('',#1080,1.);
#652=VECTOR('',#1081,1.);
#653=VECTOR('',#1082,1.);
#654=VECTOR('',#1083,1.);
#655=VECTOR('',#1084,1.);
#656=VECTOR('',#1085,1.);
#657=VECTOR('',#1086,1.);
#658=VECTOR('',#1087,1.);
#659=VECTOR('',#1088,1.);
#660=VECTOR('',#1091,1.);
#661=VECTOR('',#1092,1.);
#662=VECTOR('',#1093,1.);
#663=VECTOR('',#1094,1.);
#664=VECTOR('',#1095,1.);
#665=VECTOR('',#1096,1.);
#666=VECTOR('',#1097,1.);
#667=VECTOR('',#1098,1.);
#668=VECTOR('',#1109,1.);
#669=VECTOR('',#1110,1.);
#670=VECTOR('',#1111,1.);
#671=VECTOR('',#1112,1.);
#672=VECTOR('',#1113,1.);
#673=VECTOR('',#1114,1.);
#674=VECTOR('',#1115,1.);
#675=VECTOR('',#1116,1.);
#676=VECTOR('',#1117,1.);
#677=VECTOR('',#1118,1.);
#678=VECTOR('',#1119,1.);
#679=VECTOR('',#1120,1.);
#680=VECTOR('',#1121,1.);
#681=VECTOR('',#1122,1.);
#682=VECTOR('',#1123,1.);
#683=VECTOR('',#1126,1.);
#684=VECTOR('',#1129,1.);
#685=VECTOR('',#1132,1.);
#686=VECTOR('',#1133,1.);
#687=VECTOR('',#1134,1.);
#688=VECTOR('',#1137,1.);
#689=VECTOR('',#1138,1.);
#690=VECTOR('',#1141,1.);
#691=VECTOR('',#1142,1.);
#692=VECTOR('',#1145,1.);
#693=VECTOR('',#1146,1.);
#694=VECTOR('',#1149,1.);
#695=VECTOR('',#1150,1.);
#696=VECTOR('',#1153,1.);
#697=VECTOR('',#1154,1.);
#698=VECTOR('',#1157,1.);
#699=VECTOR('',#1158,1.);
#700=VECTOR('',#1161,1.);
#701=VECTOR('',#1166,1.);
#702=VECTOR('',#1167,1.);
#703=VECTOR('',#1170,1.);
#704=VECTOR('',#1173,1.);
#705=VECTOR('',#1178,1.);
#706=VECTOR('',#1179,1.);
#707=VECTOR('',#1182,1.);
#708=VECTOR('',#1185,1.);
#709=VECTOR('',#1190,1.);
#710=VECTOR('',#1191,1.);
#711=VECTOR('',#1194,1.);
#712=VECTOR('',#1197,1.);
#713=VECTOR('',#1202,1.);
#714=VECTOR('',#1203,1.);
#715=VECTOR('',#1208,1.);
#716=VECTOR('',#1209,1.);
#717=VECTOR('',#1210,1.);
#718=VECTOR('',#1211,1.);
#719=VECTOR('',#1212,1.);
#720=VECTOR('',#1213,1.);
#721=VECTOR('',#1214,1.);
#722=VECTOR('',#1215,1.);
#723=VECTOR('',#1218,1.);
#724=VECTOR('',#1219,1.);
#725=VECTOR('',#1222,1.);
#726=VECTOR('',#1223,1.);
#727=VECTOR('',#1228,1.);
#728=VECTOR('',#1231,1.);
#729=VECTOR('',#1234,1.);
#730=VECTOR('',#1237,1.);
#731=VECTOR('',#1252,1.);
#732=VECTOR('',#1253,1.);
#733=VECTOR('',#1256,1.);
#734=VECTOR('',#1259,1.);
#735=VECTOR('',#1264,1.);
#736=VECTOR('',#1265,1.);
#737=VECTOR('',#1268,1.);
#738=VECTOR('',#1271,1.);
#739=EDGE_LOOP('',(#30,#31,#32,#33));
#740=EDGE_LOOP('',(#34,#35,#36,#37));
#741=EDGE_LOOP('',(#38));
#742=EDGE_LOOP('',(#39));
#743=EDGE_LOOP('',(#40));
#744=EDGE_LOOP('',(#41));
#745=EDGE_LOOP('',(#42,#43,#44,#45,#46,#47,#48,#49,#50,#51));
#746=EDGE_LOOP('',(#52,#53,#54,#55));
#747=EDGE_LOOP('',(#56,#57,#58,#59,#60,#61,#62,#63,#64,#65,#66,#67,#68));
#748=EDGE_LOOP('',(#69,#70,#71,#72));
#749=EDGE_LOOP('',(#73,#74,#75,#76));
#750=EDGE_LOOP('',(#77,#78,#79,#80));
#751=EDGE_LOOP('',(#81));
#752=EDGE_LOOP('',(#82));
#753=EDGE_LOOP('',(#83));
#754=EDGE_LOOP('',(#84));
#755=EDGE_LOOP('',(#85,#86,#87,#88));
#756=EDGE_LOOP('',(#89,#90,#91,#92));
#757=EDGE_LOOP('',(#93,#94,#95,#96));
#758=EDGE_LOOP('',(#97,#98,#99,#100));
#759=EDGE_LOOP('',(#101,#102,#103,#104));
#760=EDGE_LOOP('',(#105,#106,#107,#108));
#761=EDGE_LOOP('',(#109,#110,#111,#112));
#762=EDGE_LOOP('',(#113,#114,#115,#116));
#763=EDGE_LOOP('',(#117,#118,#119,#120));
#764=EDGE_LOOP('',(#121,#122,#123,#124,#125));
#765=EDGE_LOOP('',(#126,#127,#128,#129));
#766=EDGE_LOOP('',(#130,#131,#132,#133));
#767=EDGE_LOOP('',(#134,#135,#136,#137));
#768=EDGE_LOOP('',(#138,#139,#140,#141,#142,#143,#144,#145));
#769=EDGE_LOOP('',(#146,#147,#148,#149));
#770=EDGE_LOOP('',(#150,#151,#152,#153));
#771=EDGE_LOOP('',(#154,#155,#156,#157));
#772=EDGE_LOOP('',(#158,#159,#160,#161));
#773=EDGE_LOOP('',(#162,#163,#164,#165));
#774=EDGE_LOOP('',(#166,#167,#168,#169));
#775=EDGE_LOOP('',(#170,#171,#172,#173));
#776=EDGE_LOOP('',(#174,#175,#176,#177));
#777=EDGE_LOOP('',(#178,#179,#180,#181));
#778=EDGE_LOOP('',(#182,#183,#184,#185));
#779=EDGE_LOOP('',(#186,#187,#188,#189));
#780=EDGE_LOOP('',(#190,#191,#192,#193));
#781=EDGE_LOOP('',(#194,#195,#196,#197));
#782=EDGE_LOOP('',(#198,#199,#200,#201,#202,#203,#204,#205,#206,#207));
#783=EDGE_LOOP('',(#208,#209,#210,#211,#212,#213));
#784=EDGE_LOOP('',(#214,#215,#216,#217,#218,#219));
#785=EDGE_LOOP('',(#220,#221,#222,#223));
#786=EDGE_LOOP('',(#224,#225,#226,#227));
#787=EDGE_LOOP('',(#228,#229,#230,#231));
#788=EDGE_LOOP('',(#232,#233,#234,#235));
#789=EDGE_LOOP('',(#236,#237,#238,#239));
#790=EDGE_LOOP('',(#240,#241,#242,#243));
#791=EDGE_LOOP('',(#244,#245,#246,#247));
#792=EDGE_LOOP('',(#248));
#793=EDGE_LOOP('',(#249));
#794=EDGE_LOOP('',(#250));
#795=EDGE_LOOP('',(#251));
#796=EDGE_LOOP('',(#252));
#797=EDGE_LOOP('',(#253));
#798=EDGE_LOOP('',(#254));
#799=EDGE_LOOP('',(#255));
#800=EDGE_LOOP('',(#256,#257,#258,#259));
#801=EDGE_LOOP('',(#260,#261,#262,#263));
#802=EDGE_LOOP('',(#264,#265,#266,#267));
#803=EDGE_LOOP('',(#268,#269,#270,#271));
#804=EDGE_LOOP('',(#272,#273,#274,#275));
#805=EDGE_LOOP('',(#276,#277,#278,#279));
#806=EDGE_LOOP('',(#280,#281,#282,#283));
#807=EDGE_LOOP('',(#284,#285,#286,#287));
#808=FACE_BOUND('',#739,.T.);
#809=FACE_BOUND('',#740,.T.);
#810=FACE_BOUND('',#741,.T.);
#811=FACE_BOUND('',#742,.T.);
#812=FACE_BOUND('',#743,.T.);
#813=FACE_BOUND('',#744,.T.);
#814=FACE_BOUND('',#745,.T.);
#815=FACE_BOUND('',#746,.T.);
#816=FACE_BOUND('',#747,.T.);
#817=FACE_BOUND('',#748,.T.);
#818=FACE_BOUND('',#749,.T.);
#819=FACE_BOUND('',#750,.T.);
#820=FACE_BOUND('',#751,.T.);
#821=FACE_BOUND('',#752,.T.);
#822=FACE_BOUND('',#753,.T.);
#823=FACE_BOUND('',#754,.T.);
#824=FACE_BOUND('',#755,.T.);
#825=FACE_BOUND('',#756,.T.);
#826=FACE_BOUND('',#757,.T.);
#827=FACE_BOUND('',#758,.T.);
#828=FACE_BOUND('',#759,.T.);
#829=FACE_BOUND('',#760,.T.);
#830=FACE_BOUND('',#761,.T.);
#831=FACE_BOUND('',#762,.T.);
#832=FACE_BOUND('',#763,.T.);
#833=FACE_BOUND('',#764,.T.);
#834=FACE_BOUND('',#765,.T.);
#835=FACE_BOUND('',#766,.T.);
#836=FACE_BOUND('',#767,.T.);
#837=FACE_BOUND('',#768,.T.);
#838=FACE_BOUND('',#769,.T.);
#839=FACE_BOUND('',#770,.T.);
#840=FACE_BOUND('',#771,.T.);
#841=FACE_BOUND('',#772,.T.);
#842=FACE_BOUND('',#773,.T.);
#843=FACE_BOUND('',#774,.T.);
#844=FACE_BOUND('',#775,.T.);
#845=FACE_BOUND('',#776,.T.);
#846=FACE_BOUND('',#777,.T.);
#847=FACE_BOUND('',#778,.T.);
#848=FACE_BOUND('',#779,.T.);
#849=FACE_BOUND('',#780,.T.);
#850=FACE_BOUND('',#781,.T.);
#851=FACE_BOUND('',#782,.T.);
#852=FACE_BOUND('',#783,.T.);
#853=FACE_BOUND('',#784,.T.);
#854=FACE_BOUND('',#785,.T.);
#855=FACE_BOUND('',#786,.T.);
#856=FACE_BOUND('',#787,.T.);
#857=FACE_BOUND('',#788,.T.);
#858=FACE_BOUND('',#789,.T.);
#859=FACE_BOUND('',#790,.T.);
#860=FACE_BOUND('',#791,.T.);
#861=FACE_BOUND('',#792,.T.);
#862=FACE_BOUND('',#793,.T.);
#863=FACE_BOUND('',#794,.T.);
#864=FACE_BOUND('',#795,.T.);
#865=FACE_BOUND('',#796,.T.);
#866=FACE_BOUND('',#797,.T.);
#867=FACE_BOUND('',#798,.T.);
#868=FACE_BOUND('',#799,.T.);
#869=FACE_BOUND('',#800,.T.);
#870=FACE_BOUND('',#801,.T.);
#871=FACE_BOUND('',#802,.T.);
#872=FACE_BOUND('',#803,.T.);
#873=FACE_BOUND('',#804,.T.);
#874=FACE_BOUND('',#805,.T.);
#875=FACE_BOUND('',#806,.T.);
#876=FACE_BOUND('',#807,.T.);
#877=PLANE('',#978);
#878=PLANE('',#984);
#879=PLANE('',#992);
#880=PLANE('',#993);
#881=PLANE('',#994);
#882=PLANE('',#995);
#883=PLANE('',#996);
#884=PLANE('',#997);
#885=PLANE('',#998);
#886=PLANE('',#999);
#887=PLANE('',#1000);
#888=PLANE('',#1001);
#889=PLANE('',#1002);
#890=PLANE('',#1003);
#891=PLANE('',#1004);
#892=PLANE('',#1005);
#893=PLANE('',#1006);
#894=PLANE('',#1007);
#895=PLANE('',#1008);
#896=PLANE('',#1009);
#897=PLANE('',#1010);
#898=PLANE('',#1011);
#899=PLANE('',#1012);
#900=PLANE('',#1015);
#901=PLANE('',#1016);
#902=PLANE('',#1017);
#903=PLANE('',#1018);
#904=PLANE('',#1019);
#905=PLANE('',#1020);
#906=PLANE('',#1021);
#907=PLANE('',#1022);
#908=PLANE('',#1023);
#909=PLANE('',#1024);
#910=PLANE('',#1029);
#911=PLANE('',#1030);
#912=PLANE('',#1031);
#913=PLANE('',#1032);
#914=PLANE('',#1033);
#915=PLANE('',#1034);
#916=PLANE('',#1035);
#917=PLANE('',#1036);
#918=ADVANCED_FACE('',(#808,#809,#810,#811,#812,#813,#814,#815,#816,#817),
#877,.T.);
#919=ADVANCED_FACE('',(#818,#819,#820,#821,#822,#823,#824,#825,#826,#827),
#878,.F.);
#920=ADVANCED_FACE('',(#828),#12,.T.);
#921=ADVANCED_FACE('',(#829),#879,.T.);
#922=ADVANCED_FACE('',(#830),#880,.F.);
#923=ADVANCED_FACE('',(#831),#881,.F.);
#924=ADVANCED_FACE('',(#832),#882,.T.);
#925=ADVANCED_FACE('',(#833),#883,.T.);
#926=ADVANCED_FACE('',(#834),#884,.T.);
#927=ADVANCED_FACE('',(#835),#885,.T.);
#928=ADVANCED_FACE('',(#836),#886,.T.);
#929=ADVANCED_FACE('',(#837),#887,.T.);
#930=ADVANCED_FACE('',(#838),#888,.T.);
#931=ADVANCED_FACE('',(#839),#889,.T.);
#932=ADVANCED_FACE('',(#840),#890,.T.);
#933=ADVANCED_FACE('',(#841),#891,.T.);
#934=ADVANCED_FACE('',(#842),#892,.F.);
#935=ADVANCED_FACE('',(#843),#893,.F.);
#936=ADVANCED_FACE('',(#844),#894,.F.);
#937=ADVANCED_FACE('',(#845),#895,.F.);
#938=ADVANCED_FACE('',(#846),#896,.F.);
#939=ADVANCED_FACE('',(#847),#897,.F.);
#940=ADVANCED_FACE('',(#848),#898,.F.);
#941=ADVANCED_FACE('',(#849),#899,.F.);
#942=ADVANCED_FACE('',(#850),#13,.F.);
#943=ADVANCED_FACE('',(#851),#900,.T.);
#944=ADVANCED_FACE('',(#852),#901,.T.);
#945=ADVANCED_FACE('',(#853),#902,.F.);
#946=ADVANCED_FACE('',(#854),#903,.T.);
#947=ADVANCED_FACE('',(#855),#904,.F.);
#948=ADVANCED_FACE('',(#856),#905,.T.);
#949=ADVANCED_FACE('',(#857),#906,.T.);
#950=ADVANCED_FACE('',(#858),#907,.T.);
#951=ADVANCED_FACE('',(#859),#908,.T.);
#952=ADVANCED_FACE('',(#860),#909,.T.);
#953=ADVANCED_FACE('',(#861,#862),#14,.F.);
#954=ADVANCED_FACE('',(#863,#864),#15,.F.);
#955=ADVANCED_FACE('',(#865,#866),#16,.F.);
#956=ADVANCED_FACE('',(#867,#868),#17,.F.);
#957=ADVANCED_FACE('',(#869),#910,.F.);
#958=ADVANCED_FACE('',(#870),#911,.T.);
#959=ADVANCED_FACE('',(#871),#912,.F.);
#960=ADVANCED_FACE('',(#872),#913,.T.);
#961=ADVANCED_FACE('',(#873),#914,.F.);
#962=ADVANCED_FACE('',(#874),#915,.T.);
#963=ADVANCED_FACE('',(#875),#916,.F.);
#964=ADVANCED_FACE('',(#876),#917,.T.);
#965=CLOSED_SHELL('',(#918,#919,#920,#921,#922,#923,#924,#925,#926,#927,
#928,#929,#930,#931,#932,#933,#934,#935,#936,#937,#938,#939,#940,#941,#942,
#943,#944,#945,#946,#947,#948,#949,#950,#951,#952,#953,#954,#955,#956,#957,
#958,#959,#960,#961,#962,#963,#964));
#966=STYLED_ITEM('',(#967),#974);
#967=PRESENTATION_STYLE_ASSIGNMENT((#968));
#968=SURFACE_STYLE_USAGE(.BOTH.,#969);
#969=SURFACE_SIDE_STYLE('',(#970));
#970=SURFACE_STYLE_FILL_AREA(#971);
#971=FILL_AREA_STYLE('',(#972));
#972=FILL_AREA_STYLE_COLOUR('',#973);
#973=COLOUR_RGB('',0.615686274509804,0.811764705882353,0.929411764705882);
#974=MANIFOLD_SOLID_BREP('Chassis',#965);
#975=SHAPE_DEFINITION_REPRESENTATION(#1545,#976);
#976=SHAPE_REPRESENTATION('Chassis',(#977),#1540);
#977=AXIS2_PLACEMENT_3D('',#1274,#1037,#1038);
#978=AXIS2_PLACEMENT_3D('',#1275,#1039,#1040);
#979=AXIS2_PLACEMENT_3D('',#1292,#1049,#1050);
#980=AXIS2_PLACEMENT_3D('',#1294,#1051,#1052);
#981=AXIS2_PLACEMENT_3D('',#1296,#1053,#1054);
#982=AXIS2_PLACEMENT_3D('',#1298,#1055,#1056);
#983=AXIS2_PLACEMENT_3D('',#1307,#1060,#1061);
#984=AXIS2_PLACEMENT_3D('',#1361,#1089,#1090);
#985=AXIS2_PLACEMENT_3D('',#1378,#1099,#1100);
#986=AXIS2_PLACEMENT_3D('',#1380,#1101,#1102);
#987=AXIS2_PLACEMENT_3D('',#1382,#1103,#1104);
#988=AXIS2_PLACEMENT_3D('',#1384,#1105,#1106);
#989=AXIS2_PLACEMENT_3D('',#1386,#1107,#1108);
#990=AXIS2_PLACEMENT_3D('',#1418,#1124,#1125);
#991=AXIS2_PLACEMENT_3D('',#1421,#1127,#1128);
#992=AXIS2_PLACEMENT_3D('',#1424,#1130,#1131);
#993=AXIS2_PLACEMENT_3D('',#1430,#1135,#1136);
#994=AXIS2_PLACEMENT_3D('',#1434,#1139,#1140);
#995=AXIS2_PLACEMENT_3D('',#1438,#1143,#1144);
#996=AXIS2_PLACEMENT_3D('',#1442,#1147,#1148);
#997=AXIS2_PLACEMENT_3D('',#1446,#1151,#1152);
#998=AXIS2_PLACEMENT_3D('',#1450,#1155,#1156);
#999=AXIS2_PLACEMENT_3D('',#1454,#1159,#1160);
#1000=AXIS2_PLACEMENT_3D('',#1456,#1162,#1163);
#1001=AXIS2_PLACEMENT_3D('',#1457,#1164,#1165);
#1002=AXIS2_PLACEMENT_3D('',#1460,#1168,#1169);
#1003=AXIS2_PLACEMENT_3D('',#1462,#1171,#1172);
#1004=AXIS2_PLACEMENT_3D('',#1464,#1174,#1175);
#1005=AXIS2_PLACEMENT_3D('',#1465,#1176,#1177);
#1006=AXIS2_PLACEMENT_3D('',#1468,#1180,#1181);
#1007=AXIS2_PLACEMENT_3D('',#1470,#1183,#1184);
#1008=AXIS2_PLACEMENT_3D('',#1472,#1186,#1187);
#1009=AXIS2_PLACEMENT_3D('',#1473,#1188,#1189);
#1010=AXIS2_PLACEMENT_3D('',#1476,#1192,#1193);
#1011=AXIS2_PLACEMENT_3D('',#1478,#1195,#1196);
#1012=AXIS2_PLACEMENT_3D('',#1480,#1198,#1199);
#1013=AXIS2_PLACEMENT_3D('',#1481,#1200,#1201);
#1014=AXIS2_PLACEMENT_3D('',#1486,#1204,#1205);
#1015=AXIS2_PLACEMENT_3D('',#1487,#1206,#1207);
#1016=AXIS2_PLACEMENT_3D('',#1502,#1216,#1217);
#1017=AXIS2_PLACEMENT_3D('',#1505,#1220,#1221);
#1018=AXIS2_PLACEMENT_3D('',#1508,#1224,#1225);
#1019=AXIS2_PLACEMENT_3D('',#1509,#1226,#1227);
#1020=AXIS2_PLACEMENT_3D('',#1511,#1229,#1230);
#1021=AXIS2_PLACEMENT_3D('',#1513,#1232,#1233);
#1022=AXIS2_PLACEMENT_3D('',#1515,#1235,#1236);
#1023=AXIS2_PLACEMENT_3D('',#1517,#1238,#1239);
#1024=AXIS2_PLACEMENT_3D('',#1518,#1240,#1241);
#1025=AXIS2_PLACEMENT_3D('',#1519,#1242,#1243);
#1026=AXIS2_PLACEMENT_3D('',#1520,#1244,#1245);
#1027=AXIS2_PLACEMENT_3D('',#1521,#1246,#1247);
#1028=AXIS2_PLACEMENT_3D('',#1522,#1248,#1249);
#1029=AXIS2_PLACEMENT_3D('',#1523,#1250,#1251);
#1030=AXIS2_PLACEMENT_3D('',#1526,#1254,#1255);
#1031=AXIS2_PLACEMENT_3D('',#1528,#1257,#1258);
#1032=AXIS2_PLACEMENT_3D('',#1530,#1260,#1261);
#1033=AXIS2_PLACEMENT_3D('',#1531,#1262,#1263);
#1034=AXIS2_PLACEMENT_3D('',#1534,#1266,#1267);
#1035=AXIS2_PLACEMENT_3D('',#1536,#1269,#1270);
#1036=AXIS2_PLACEMENT_3D('',#1538,#1272,#1273);
#1037=DIRECTION('',(0.,0.,1.));
#1038=DIRECTION('',(1.,0.,0.));
#1039=DIRECTION('',(0.,0.,1.));
#1040=DIRECTION('',(1.,0.,0.));
#1041=DIRECTION('',(0.,1.,0.));
#1042=DIRECTION('',(-1.,0.,0.));
#1043=DIRECTION('',(-1.59148942750166E-16,1.,0.));
#1044=DIRECTION('',(-1.,0.,0.));
#1045=DIRECTION('',(0.,-1.,0.));
#1046=DIRECTION('',(1.,0.,0.));
#1047=DIRECTION('',(1.71754799601664E-16,-1.,0.));
#1048=DIRECTION('',(1.,0.,0.));
#1049=DIRECTION('',(0.,0.,1.));
#1050=DIRECTION('',(1.,0.,0.));
#1051=DIRECTION('',(0.,0.,1.));
#1052=DIRECTION('',(1.,0.,0.));
#1053=DIRECTION('',(0.,0.,1.));
#1054=DIRECTION('',(1.,0.,0.));
#1055=DIRECTION('',(0.,0.,1.));
#1056=DIRECTION('',(1.,0.,0.));
#1057=DIRECTION('',(-1.,0.,0.));
#1058=DIRECTION('',(-2.7755575615629E-16,-1.,0.));
#1059=DIRECTION('',(-1.,0.,0.));
#1060=DIRECTION('',(0.,0.,1.));
#1061=DIRECTION('',(1.,0.,0.));
#1062=DIRECTION('',(1.,0.,0.));
#1063=DIRECTION('',(-2.7755575615629E-16,-1.,0.));
#1064=DIRECTION('',(1.,0.,0.));
#1065=DIRECTION('',(-2.7755575615629E-16,-1.,0.));
#1066=DIRECTION('',(1.,-2.7755575615629E-16,0.));
#1067=DIRECTION('',(-2.7755575615629E-16,-1.,0.));
#1068=DIRECTION('',(0.,-1.,0.));
#1069=DIRECTION('',(-0.999931350051853,-0.0117173027390528,0.));
#1070=DIRECTION('',(1.29518927081044E-16,1.,0.));
#1071=DIRECTION('',(1.,0.,0.));
#1072=DIRECTION('',(0.999931350051853,-0.0117173027390528,0.));
#1073=DIRECTION('',(0.,-1.,0.));
#1074=DIRECTION('',(-1.,0.,0.));
#1075=DIRECTION('',(-1.29518927081044E-16,1.,0.));
#1076=DIRECTION('',(1.,0.,0.));
#1077=DIRECTION('',(0.,-1.,0.));
#1078=DIRECTION('',(1.,-3.21260796355501E-16,0.));
#1079=DIRECTION('',(-4.96699635211684E-16,1.,0.));
#1080=DIRECTION('',(1.,-3.21260796355501E-16,0.));
#1081=DIRECTION('',(0.,-1.,0.));
#1082=DIRECTION('',(-1.,0.,0.));
#1083=DIRECTION('',(0.,1.,0.));
#1084=DIRECTION('',(1.,0.,0.));
#1085=DIRECTION('',(0.,1.,0.));
#1086=DIRECTION('',(1.,3.41480999208033E-16,0.));
#1087=DIRECTION('',(3.41480999208034E-16,-1.,0.));
#1088=DIRECTION('',(-1.,-1.36592399683213E-16,0.));
#1089=DIRECTION('',(0.,0.,1.));
#1090=DIRECTION('',(1.,0.,0.));
#1091=DIRECTION('',(1.,0.,0.));
#1092=DIRECTION('',(0.,-1.,0.));
#1093=DIRECTION('',(1.,0.,0.));
#1094=DIRECTION('',(1.59148942750166E-16,-1.,0.));
#1095=DIRECTION('',(-1.,0.,0.));
#1096=DIRECTION('',(0.,1.,0.));
#1097=DIRECTION('',(-1.,0.,0.));
#1098=DIRECTION('',(-1.71754799601664E-16,1.,0.));
#1099=DIRECTION('',(0.,0.,1.));
#1100=DIRECTION('',(1.,0.,0.));
#1101=DIRECTION('',(0.,0.,1.));
#1102=DIRECTION('',(1.,0.,0.));
#1103=DIRECTION('',(0.,0.,1.));
#1104=DIRECTION('',(1.,0.,0.));
#1105=DIRECTION('',(0.,0.,1.));
#1106=DIRECTION('',(1.,0.,0.));
#1107=DIRECTION('',(0.,0.,1.));
#1108=DIRECTION('',(1.,0.,0.));
#1109=DIRECTION('',(-2.7755575615629E-16,-1.,0.));
#1110=DIRECTION('',(1.,-2.7755575615629E-16,0.));
#1111=DIRECTION('',(-2.7755575615629E-16,-1.,0.));
#1112=DIRECTION('',(1.,3.41480999208033E-16,0.));
#1113=DIRECTION('',(0.,1.,0.));
#1114=DIRECTION('',(-1.,-1.36592399683213E-16,0.));
#1115=DIRECTION('',(3.41480999208034E-16,-1.,0.));
#1116=DIRECTION('',(-0.999931350051853,0.0117173027390528,0.));
#1117=DIRECTION('',(1.29518927081044E-16,-1.,0.));
#1118=DIRECTION('',(1.,0.,0.));
#1119=DIRECTION('',(0.,1.,0.));
#1120=DIRECTION('',(0.999931350051853,0.0117173027390528,0.));
#1121=DIRECTION('',(0.,1.,0.));
#1122=DIRECTION('',(-1.,0.,0.));
#1123=DIRECTION('',(-1.29518927081044E-16,-1.,0.));
#1124=DIRECTION('',(0.,0.,-1.));
#1125=DIRECTION('',(-1.,0.,0.));
#1126=DIRECTION('',(0.,0.,-1.));
#1127=DIRECTION('',(0.,0.,1.));
#1128=DIRECTION('',(1.,0.,0.));
#1129=DIRECTION('',(0.,0.,-1.));
#1130=DIRECTION('',(3.21260796355501E-16,1.,0.));
#1131=DIRECTION('',(-1.,3.21260796355501E-16,0.));
#1132=DIRECTION('',(0.,0.,-1.));
#1133=DIRECTION('',(1.,-3.21260796355501E-16,0.));
#1134=DIRECTION('',(0.,0.,-1.));
#1135=DIRECTION('',(-1.,-4.96699635211684E-16,0.));
#1136=DIRECTION('',(4.96699635211684E-16,-1.,0.));
#1137=DIRECTION('',(0.,0.,-1.));
#1138=DIRECTION('',(-4.96699635211684E-16,1.,0.));
#1139=DIRECTION('',(3.21260796355501E-16,1.,0.));
#1140=DIRECTION('',(-1.,3.21260796355501E-16,0.));
#1141=DIRECTION('',(0.,0.,-1.));
#1142=DIRECTION('',(1.,-3.21260796355501E-16,0.));
#1143=DIRECTION('',(1.,0.,0.));
#1144=DIRECTION('',(0.,0.,-1.));
#1145=DIRECTION('',(0.,0.,-1.));
#1146=DIRECTION('',(0.,-1.,0.));
#1147=DIRECTION('',(0.,1.,0.));
#1148=DIRECTION('',(0.,0.,1.));
#1149=DIRECTION('',(0.,0.,-1.));
#1150=DIRECTION('',(1.,0.,0.));
#1151=DIRECTION('',(-1.,0.,0.));
#1152=DIRECTION('',(0.,0.,1.));
#1153=DIRECTION('',(0.,0.,-1.));
#1154=DIRECTION('',(0.,1.,0.));
#1155=DIRECTION('',(0.,-1.,0.));
#1156=DIRECTION('',(0.,0.,-1.));
#1157=DIRECTION('',(0.,0.,-1.));
#1158=DIRECTION('',(-1.,0.,0.));
#1159=DIRECTION('',(1.,0.,0.));
#1160=DIRECTION('',(0.,0.,-1.));
#1161=DIRECTION('',(0.,-1.,0.));
#1162=DIRECTION('',(0.,0.,1.));
#1163=DIRECTION('',(1.,0.,0.));
#1164=DIRECTION('',(-0.0117173027390528,0.999931350051853,0.));
#1165=DIRECTION('',(-0.999931350051853,-0.0117173027390528,0.));
#1166=DIRECTION('',(0.,0.,1.));
#1167=DIRECTION('',(0.,0.,1.));
#1168=DIRECTION('',(1.,-1.29518927081044E-16,0.));
#1169=DIRECTION('',(1.29518927081044E-16,1.,0.));
#1170=DIRECTION('',(0.,0.,1.));
#1171=DIRECTION('',(-1.,0.,0.));
#1172=DIRECTION('',(0.,0.,1.));
#1173=DIRECTION('',(0.,0.,1.));
#1174=DIRECTION('',(0.,-1.,0.));
#1175=DIRECTION('',(0.,0.,-1.));
#1176=DIRECTION('',(1.,1.29518927081044E-16,0.));
#1177=DIRECTION('',(-1.29518927081044E-16,1.,0.));
#1178=DIRECTION('',(0.,0.,1.));
#1179=DIRECTION('',(0.,0.,1.));
#1180=DIRECTION('',(0.,1.,0.));
#1181=DIRECTION('',(0.,0.,1.));
#1182=DIRECTION('',(0.,0.,1.));
#1183=DIRECTION('',(-0.0117173027390528,-0.999931350051853,0.));
#1184=DIRECTION('',(0.999931350051853,-0.0117173027390528,0.));
#1185=DIRECTION('',(0.,0.,1.));
#1186=DIRECTION('',(-1.,0.,0.));
#1187=DIRECTION('',(0.,0.,1.));
#1188=DIRECTION('',(1.,0.,0.));
#1189=DIRECTION('',(0.,0.,-1.));
#1190=DIRECTION('',(0.,0.,1.));
#1191=DIRECTION('',(0.,0.,1.));
#1192=DIRECTION('',(-1.36592399683213E-16,1.,0.));
#1193=DIRECTION('',(-1.,-1.36592399683213E-16,0.));
#1194=DIRECTION('',(0.,0.,1.));
#1195=DIRECTION('',(-1.,-3.41480999208034E-16,0.));
#1196=DIRECTION('',(3.41480999208034E-16,-1.,0.));
#1197=DIRECTION('',(0.,0.,1.));
#1198=DIRECTION('',(3.41480999208033E-16,-1.,0.));
#1199=DIRECTION('',(1.,3.41480999208033E-16,0.));
#1200=DIRECTION('',(0.,0.,-1.));
#1201=DIRECTION('',(-1.,0.,0.));
#1202=DIRECTION('',(0.,0.,-1.));
#1203=DIRECTION('',(0.,0.,-1.));
#1204=DIRECTION('',(0.,0.,1.));
#1205=DIRECTION('',(1.,0.,0.));
#1206=DIRECTION('',(0.,0.,1.));
#1207=DIRECTION('',(1.,0.,0.));
#1208=DIRECTION('',(-1.,0.,0.));
#1209=DIRECTION('',(0.,1.,0.));
#1210=DIRECTION('',(-1.,0.,0.));
#1211=DIRECTION('',(0.,-1.,0.));
#1212=DIRECTION('',(0.,-1.,0.));
#1213=DIRECTION('',(1.,0.,0.));
#1214=DIRECTION('',(0.,1.,0.));
#1215=DIRECTION('',(1.,0.,0.));
#1216=DIRECTION('',(-1.,2.7755575615629E-16,0.));
#1217=DIRECTION('',(-2.7755575615629E-16,-1.,0.));
#1218=DIRECTION('',(0.,0.,-1.));
#1219=DIRECTION('',(0.,0.,-1.));
#1220=DIRECTION('',(-1.,2.7755575615629E-16,0.));
#1221=DIRECTION('',(-2.7755575615629E-16,-1.,0.));
#1222=DIRECTION('',(0.,0.,-1.));
#1223=DIRECTION('',(0.,0.,-1.));
#1224=DIRECTION('',(2.7755575615629E-16,1.,0.));
#1225=DIRECTION('',(-1.,2.7755575615629E-16,0.));
#1226=DIRECTION('',(0.,1.,0.));
#1227=DIRECTION('',(0.,0.,1.));
#1228=DIRECTION('',(0.,0.,-1.));
#1229=DIRECTION('',(1.,0.,0.));
#1230=DIRECTION('',(0.,1.,0.));
#1231=DIRECTION('',(0.,0.,-1.));
#1232=DIRECTION('',(0.,-1.,0.));
#1233=DIRECTION('',(0.,0.,-1.));
#1234=DIRECTION('',(0.,0.,-1.));
#1235=DIRECTION('',(-1.,0.,0.));
#1236=DIRECTION('',(0.,-1.,0.));
#1237=DIRECTION('',(0.,0.,-1.));
#1238=DIRECTION('',(0.,1.,0.));
#1239=DIRECTION('',(-1.,0.,0.));
#1240=DIRECTION('',(0.,1.,0.));
#1241=DIRECTION('',(-1.,0.,0.));
#1242=DIRECTION('',(0.,0.,1.));
#1243=DIRECTION('',(1.,0.,0.));
#1244=DIRECTION('',(0.,0.,1.));
#1245=DIRECTION('',(1.,0.,0.));
#1246=DIRECTION('',(0.,0.,1.));
#1247=DIRECTION('',(1.,0.,0.));
#1248=DIRECTION('',(0.,0.,1.));
#1249=DIRECTION('',(1.,0.,0.));
#1250=DIRECTION('',(-1.,0.,0.));
#1251=DIRECTION('',(0.,0.,1.));
#1252=DIRECTION('',(0.,0.,1.));
#1253=DIRECTION('',(0.,0.,1.));
#1254=DIRECTION('',(0.,-1.,0.));
#1255=DIRECTION('',(0.,0.,-1.));
#1256=DIRECTION('',(0.,0.,1.));
#1257=DIRECTION('',(0.,-1.,0.));
#1258=DIRECTION('',(0.,0.,-1.));
#1259=DIRECTION('',(0.,0.,1.));
#1260=DIRECTION('',(-1.,-1.71754799601664E-16,0.));
#1261=DIRECTION('',(1.71754799601664E-16,-1.,0.));
#1262=DIRECTION('',(1.,0.,0.));
#1263=DIRECTION('',(0.,0.,-1.));
#1264=DIRECTION('',(0.,0.,1.));
#1265=DIRECTION('',(0.,0.,1.));
#1266=DIRECTION('',(0.,1.,0.));
#1267=DIRECTION('',(0.,0.,1.));
#1268=DIRECTION('',(0.,0.,1.));
#1269=DIRECTION('',(0.,1.,0.));
#1270=DIRECTION('',(0.,0.,1.));
#1271=DIRECTION('',(0.,0.,1.));
#1272=DIRECTION('',(1.,1.59148942750166E-16,0.));
#1273=DIRECTION('',(-1.59148942750166E-16,1.,0.));
#1274=CARTESIAN_POINT('',(0.,0.,0.));
#1275=CARTESIAN_POINT('',(0.,0.,0.00254));
#1276=CARTESIAN_POINT('',(0.0148205831310767,-0.0720087865196418,0.00254));
#1277=CARTESIAN_POINT('',(0.0148205831310767,-0.0774587865196418,0.00254));
#1278=CARTESIAN_POINT('',(0.0148205831310767,-0.0665587865196418,0.00254));
#1279=CARTESIAN_POINT('',(0.0120205831310767,-0.0774587865196418,0.00254));
#1280=CARTESIAN_POINT('',(0.0092205831310767,-0.0774587865196418,0.00254));
#1281=CARTESIAN_POINT('',(0.0092205831310767,-0.0720087865196418,0.00254));
#1282=CARTESIAN_POINT('',(0.0092205831310767,-0.0665587865196418,0.00254));
#1283=CARTESIAN_POINT('',(0.0120205831310767,-0.0665587865196418,0.00254));
#1284=CARTESIAN_POINT('',(-0.02119,0.0903122622482593,0.00254));
#1285=CARTESIAN_POINT('',(-0.02119,0.0953622622482593,0.00254));
#1286=CARTESIAN_POINT('',(-0.02119,0.0852622622482593,0.00254));
#1287=CARTESIAN_POINT('',(-0.01839,0.0953622622482593,0.00254));
#1288=CARTESIAN_POINT('',(-0.01559,0.0953622622482593,0.00254));
#1289=CARTESIAN_POINT('',(-0.01559,0.0903122622482593,0.00254));
#1290=CARTESIAN_POINT('',(-0.01559,0.0852622622482593,0.00254));
#1291=CARTESIAN_POINT('',(-0.01839,0.0852622622482593,0.00254));
#1292=CARTESIAN_POINT('',(0.0190878056275954,0.038355,0.00254));
#1293=CARTESIAN_POINT('',(0.0207378056275953,0.038355,0.00254));
#1294=CARTESIAN_POINT('',(0.0190878056275954,0.063755,0.00254));
#1295=CARTESIAN_POINT('',(0.0207378056275953,0.063755,0.00254));
#1296=CARTESIAN_POINT('',(-0.0190878056275954,0.063755,0.00254));
#1297=CARTESIAN_POINT('',(-0.0174378056275954,0.063755,0.00254));
#1298=CARTESIAN_POINT('',(-0.0190878056275954,0.038355,0.00254));
#1299=CARTESIAN_POINT('',(-0.0174378056275954,0.038355,0.00254));
#1300=CARTESIAN_POINT('',(-0.02373,0.118332425824144,0.00254));
#1301=CARTESIAN_POINT('',(-0.02373,0.118332425824144,0.00254));
#1302=CARTESIAN_POINT('',(-0.025,0.118332425824144,0.00254));
#1303=CARTESIAN_POINT('',(-0.02373,0.120762262248259,0.00254));
#1304=CARTESIAN_POINT('',(-0.02373,0.0826622622482593,0.00254));
#1305=CARTESIAN_POINT('',(-0.02373,0.0826622622482593,0.00254));
#1306=CARTESIAN_POINT('',(-0.025,0.0826622622482593,0.00254));
#1307=CARTESIAN_POINT('',(-4.63731787264739E-17,3.74700270810991E-16,0.00254));
#1308=CARTESIAN_POINT('',(0.025,0.0826622622482593,0.00254));
#1309=CARTESIAN_POINT('',(0.02373,0.0826622622482593,0.00254));
#1310=CARTESIAN_POINT('',(0.02373,0.0826622622482593,0.00254));
#1311=CARTESIAN_POINT('',(0.02373,0.120762262248259,0.00254));
#1312=CARTESIAN_POINT('',(0.02373,0.118332425824144,0.00254));
#1313=CARTESIAN_POINT('',(0.02373,0.118332425824144,0.00254));
#1314=CARTESIAN_POINT('',(0.025,0.118332425824144,0.00254));
#1315=CARTESIAN_POINT('',(0.025,0.120762262248259,0.00254));
#1316=CARTESIAN_POINT('',(0.025,0.120762262248259,0.00254));
#1317=CARTESIAN_POINT('',(1.05748743095546E-17,0.120762262248259,0.00254));
#1318=CARTESIAN_POINT('',(-0.025,0.120762262248259,0.00254));
#1319=CARTESIAN_POINT('',(-0.025,0.120762262248259,0.00254));
#1320=CARTESIAN_POINT('',(0.0723400712013245,-0.0105760372745991,0.00254));
#1321=CARTESIAN_POINT('',(0.0723400712013245,0.016093962725401,0.00254));
#1322=CARTESIAN_POINT('',(0.0723400712013245,-0.037246037274599,0.00254));
#1323=CARTESIAN_POINT('',(0.0623400712013245,-0.0373632183464641,0.00254));
#1324=CARTESIAN_POINT('',(0.0523400712013245,-0.0374803994183292,0.00254));
#1325=CARTESIAN_POINT('',(0.0523400712013245,-0.0106932183464641,0.00254));
#1326=CARTESIAN_POINT('',(0.0523400712013245,0.016093962725401,0.00254));
#1327=CARTESIAN_POINT('',(0.0623400712013245,0.016093962725401,0.00254));
#1328=CARTESIAN_POINT('',(-0.0623400712013245,-0.0373632183464641,0.00254));
#1329=CARTESIAN_POINT('',(-0.0723400712013245,-0.0372460372745991,0.00254));
#1330=CARTESIAN_POINT('',(-0.0523400712013287,-0.0374803994183292,0.00254));
#1331=CARTESIAN_POINT('',(-0.0723400712013245,-0.0105760372745991,0.00254));
#1332=CARTESIAN_POINT('',(-0.0723400712013245,0.016093962725401,0.00254));
#1333=CARTESIAN_POINT('',(-0.0623400712013245,0.016093962725401,0.00254));
#1334=CARTESIAN_POINT('',(-0.0523400712013245,0.016093962725401,0.00254));
#1335=CARTESIAN_POINT('',(-0.0523400712013245,-0.0106932183464641,0.00254));
#1336=CARTESIAN_POINT('',(-0.00290019380714605,-0.0374803994183292,0.00254));
#1337=CARTESIAN_POINT('',(0.0465396835870366,-0.0374803994183292,0.00254));
#1338=CARTESIAN_POINT('',(0.0465396835870366,-0.0387503994183292,0.00254));
#1339=CARTESIAN_POINT('',(0.0465396835870366,-0.0400203994183292,0.00254));
#1340=CARTESIAN_POINT('',(-0.00745767605522719,-0.0400203994183291,0.00254));
#1341=CARTESIAN_POINT('',(-0.061455035697491,-0.0400203994183291,0.00254));
#1342=CARTESIAN_POINT('',(-0.061455035697491,-0.0470053994183292,0.00254));
#1343=CARTESIAN_POINT('',(-0.061455035697491,-0.0539903994183291,0.00254));
#1344=CARTESIAN_POINT('',(-0.00745767605522719,-0.0539903994183292,0.00254));
#1345=CARTESIAN_POINT('',(0.0465396835870366,-0.0539903994183292,0.00254));
#1346=CARTESIAN_POINT('',(0.0465396835870366,-0.0552603994183292,0.00254));
#1347=CARTESIAN_POINT('',(0.0465396835870366,-0.0565303994183291,0.00254));
#1348=CARTESIAN_POINT('',(-0.0622392168709348,-0.0565303994183291,0.00254));
#1349=CARTESIAN_POINT('',(-0.0630233980443786,-0.0565303994183291,0.00254));
#1350=CARTESIAN_POINT('',(-0.0630233980443786,-0.0470053994183292,0.00254));
#1351=CARTESIAN_POINT('',(-0.0630233980443786,-0.0374803994183292,0.00254));
#1352=CARTESIAN_POINT('',(-0.00290019380714605,-0.0374803994183292,0.00254));
#1353=CARTESIAN_POINT('',(0.0254,0.0254,0.00254));
#1354=CARTESIAN_POINT('',(0.0254,0.02032,0.00254));
#1355=CARTESIAN_POINT('',(0.0254,0.03048,0.00254));
#1356=CARTESIAN_POINT('',(0.,0.02032,0.00254));
#1357=CARTESIAN_POINT('',(-0.0254,0.02032,0.00254));
#1358=CARTESIAN_POINT('',(-0.0254,0.0254,0.00254));
#1359=CARTESIAN_POINT('',(-0.0254,0.03048,0.00254));
#1360=CARTESIAN_POINT('',(0.,0.03048,0.00254));
#1361=CARTESIAN_POINT('',(0.,0.,0.));
#1362=CARTESIAN_POINT('',(0.0120205831310767,-0.0774587865196418,0.));
#1363=CARTESIAN_POINT('',(0.0092205831310767,-0.0774587865196418,0.));
#1364=CARTESIAN_POINT('',(0.0148205831310767,-0.0774587865196418,0.));
#1365=CARTESIAN_POINT('',(0.0148205831310767,-0.0720087865196418,0.));
#1366=CARTESIAN_POINT('',(0.0148205831310767,-0.0665587865196418,0.));
#1367=CARTESIAN_POINT('',(0.0120205831310767,-0.0665587865196418,0.));
#1368=CARTESIAN_POINT('',(0.0092205831310767,-0.0665587865196418,0.));
#1369=CARTESIAN_POINT('',(0.0092205831310767,-0.0720087865196418,0.));
#1370=CARTESIAN_POINT('',(-0.01839,0.0953622622482593,0.));
#1371=CARTESIAN_POINT('',(-0.01559,0.0953622622482593,0.));
#1372=CARTESIAN_POINT('',(-0.02119,0.0953622622482593,0.));
#1373=CARTESIAN_POINT('',(-0.02119,0.0903122622482593,0.));
#1374=CARTESIAN_POINT('',(-0.02119,0.0852622622482593,0.));
#1375=CARTESIAN_POINT('',(-0.01839,0.0852622622482593,0.));
#1376=CARTESIAN_POINT('',(-0.01559,0.0852622622482593,0.));
#1377=CARTESIAN_POINT('',(-0.01559,0.0903122622482593,0.));
#1378=CARTESIAN_POINT('',(0.0190878056275954,0.038355,0.));
#1379=CARTESIAN_POINT('',(0.0207378056275953,0.038355,0.));
#1380=CARTESIAN_POINT('',(0.0190878056275954,0.063755,0.));
#1381=CARTESIAN_POINT('',(0.0207378056275953,0.063755,0.));
#1382=CARTESIAN_POINT('',(-0.0190878056275954,0.063755,0.));
#1383=CARTESIAN_POINT('',(-0.0174378056275954,0.063755,0.));
#1384=CARTESIAN_POINT('',(-0.0190878056275954,0.038355,0.));
#1385=CARTESIAN_POINT('',(-0.0174378056275954,0.038355,0.));
#1386=CARTESIAN_POINT('',(2.44188460260446E-17,-1.2490009027033E-16,0.));
#1387=CARTESIAN_POINT('',(-0.025,0.0853124258241436,0.));
#1388=CARTESIAN_POINT('',(0.025,0.0853124258241434,0.));
#1389=CARTESIAN_POINT('',(-0.025,0.120762262248259,0.));
#1390=CARTESIAN_POINT('',(-0.025,0.120762262248259,0.));
#1391=CARTESIAN_POINT('',(1.05748743095546E-17,0.120762262248259,0.));
#1392=CARTESIAN_POINT('',(0.025,0.120762262248259,0.));
#1393=CARTESIAN_POINT('',(0.025,0.120762262248259,0.));
#1394=CARTESIAN_POINT('',(-6.93889390390723E-18,0.02032,0.));
#1395=CARTESIAN_POINT('',(-0.0254,0.02032,0.));
#1396=CARTESIAN_POINT('',(0.0254,0.02032,0.));
#1397=CARTESIAN_POINT('',(0.0254,0.,0.));
#1398=CARTESIAN_POINT('',(0.0254,0.03048,0.));
#1399=CARTESIAN_POINT('',(-4.16333634234434E-18,0.03048,0.));
#1400=CARTESIAN_POINT('',(-0.0254,0.03048,0.));
#1401=CARTESIAN_POINT('',(-0.0254,-8.67361737988404E-18,0.));
#1402=CARTESIAN_POINT('',(-0.0623400712013245,-0.0373632183464641,0.));
#1403=CARTESIAN_POINT('',(-0.0523400712013287,-0.0374803994183292,0.));
#1404=CARTESIAN_POINT('',(-0.0723400712013245,-0.0372460372745991,0.));
#1405=CARTESIAN_POINT('',(-0.0523400712013245,-0.0106932183464641,0.));
#1406=CARTESIAN_POINT('',(-0.0523400712013245,0.016093962725401,0.));
#1407=CARTESIAN_POINT('',(-0.0623400712013245,0.016093962725401,0.));
#1408=CARTESIAN_POINT('',(-0.0723400712013245,0.016093962725401,0.));
#1409=CARTESIAN_POINT('',(-0.0723400712013245,-0.0105760372745991,0.));
#1410=CARTESIAN_POINT('',(0.0623400712013245,-0.0373632183464641,0.));
#1411=CARTESIAN_POINT('',(0.0523400712013245,-0.0374803994183292,0.));
#1412=CARTESIAN_POINT('',(0.0723400712013245,-0.037246037274599,0.));
#1413=CARTESIAN_POINT('',(0.0723400712013245,-0.0105760372745991,0.));
#1414=CARTESIAN_POINT('',(0.0723400712013245,0.016093962725401,0.));
#1415=CARTESIAN_POINT('',(0.0623400712013245,0.016093962725401,0.));
#1416=CARTESIAN_POINT('',(0.0523400712013245,0.016093962725401,0.));
#1417=CARTESIAN_POINT('',(0.0523400712013245,-0.0106932183464641,0.));
#1418=CARTESIAN_POINT('',(2.44188460260446E-17,-1.2490009027033E-16,0.00254));
#1419=CARTESIAN_POINT('',(0.025,0.0853124258241436,0.00254));
#1420=CARTESIAN_POINT('',(0.025,0.0853124258241436,0.0254));
#1421=CARTESIAN_POINT('',(2.44188460260446E-17,-1.2490009027033E-16,0.0254));
#1422=CARTESIAN_POINT('',(-0.025,0.0853124258241436,0.0254));
#1423=CARTESIAN_POINT('',(-0.025,0.0853124258241436,0.00254));
#1424=CARTESIAN_POINT('',(-0.00745767605522719,-0.0539903994183292,0.02794));
#1425=CARTESIAN_POINT('',(-0.061455035697491,-0.0539903994183291,0.02794));
#1426=CARTESIAN_POINT('',(-0.061455035697491,-0.0539903994183291,0.02794));
#1427=CARTESIAN_POINT('',(-0.00745767605522719,-0.0539903994183292,0.02794));
#1428=CARTESIAN_POINT('',(0.0465396835870366,-0.0539903994183292,0.02794));
#1429=CARTESIAN_POINT('',(0.0465396835870366,-0.0539903994183292,0.02794));
#1430=CARTESIAN_POINT('',(-0.061455035697491,-0.0470053994183292,0.02794));
#1431=CARTESIAN_POINT('',(-0.061455035697491,-0.0400203994183291,0.02794));
#1432=CARTESIAN_POINT('',(-0.061455035697491,-0.0400203994183291,0.02794));
#1433=CARTESIAN_POINT('',(-0.061455035697491,-0.0470053994183292,0.02794));
#1434=CARTESIAN_POINT('',(-0.00745767605522719,-0.0400203994183291,0.02794));
#1435=CARTESIAN_POINT('',(0.0465396835870366,-0.0400203994183292,0.02794));
#1436=CARTESIAN_POINT('',(0.0465396835870366,-0.0400203994183292,0.02794));
#1437=CARTESIAN_POINT('',(-0.00745767605522719,-0.0400203994183291,0.02794));
#1438=CARTESIAN_POINT('',(0.0465396835870366,-0.0387503994183292,0.02794));
#1439=CARTESIAN_POINT('',(0.0465396835870366,-0.0374803994183292,0.02794));
#1440=CARTESIAN_POINT('',(0.0465396835870366,-0.0374803994183292,0.02794));
#1441=CARTESIAN_POINT('',(0.0465396835870366,-0.0387503994183292,0.02794));
#1442=CARTESIAN_POINT('',(-0.00290019380714605,-0.0374803994183292,0.02794));
#1443=CARTESIAN_POINT('',(-0.0630233980443786,-0.0374803994183292,0.02794));
#1444=CARTESIAN_POINT('',(-0.0630233980443786,-0.0374803994183292,0.02794));
#1445=CARTESIAN_POINT('',(-0.00290019380714605,-0.0374803994183292,0.02794));
#1446=CARTESIAN_POINT('',(-0.0630233980443786,-0.0470053994183292,0.02794));
#1447=CARTESIAN_POINT('',(-0.0630233980443786,-0.0565303994183291,0.02794));
#1448=CARTESIAN_POINT('',(-0.0630233980443786,-0.0565303994183291,0.02794));
#1449=CARTESIAN_POINT('',(-0.0630233980443786,-0.0470053994183292,0.02794));
#1450=CARTESIAN_POINT('',(-0.0622392168709348,-0.0565303994183291,0.02794));
#1451=CARTESIAN_POINT('',(0.0465396835870366,-0.0565303994183291,0.02794));
#1452=CARTESIAN_POINT('',(0.0465396835870366,-0.0565303994183291,0.02794));
#1453=CARTESIAN_POINT('',(-0.0622392168709348,-0.0565303994183291,0.02794));
#1454=CARTESIAN_POINT('',(0.0465396835870366,-0.0552603994183292,0.02794));
#1455=CARTESIAN_POINT('',(0.0465396835870366,-0.0552603994183292,0.02794));
#1456=CARTESIAN_POINT('',(2.77555756156289E-17,-0.00179378708792825,0.02794));
#1457=CARTESIAN_POINT('',(0.0623400712013245,-0.0373632183464641,-1.99999999999983E-6));
#1458=CARTESIAN_POINT('',(0.0523400712013245,-0.0374803994183292,-1.99999999999983E-6));
#1459=CARTESIAN_POINT('',(0.0723400712013245,-0.037246037274599,-1.99999999999983E-6));
#1460=CARTESIAN_POINT('',(0.0523400712013245,-0.0106932183464641,-1.99999999999983E-6));
#1461=CARTESIAN_POINT('',(0.0523400712013245,0.016093962725401,-1.99999999999983E-6));
#1462=CARTESIAN_POINT('',(0.0723400712013245,-0.0105760372745991,-1.99999999999983E-6));
#1463=CARTESIAN_POINT('',(0.0723400712013245,0.016093962725401,-1.99999999999983E-6));
#1464=CARTESIAN_POINT('',(0.0623400712013245,0.016093962725401,-1.99999999999983E-6));
#1465=CARTESIAN_POINT('',(-0.0523400712013245,-0.0106932183464641,-1.99999999999983E-6));
#1466=CARTESIAN_POINT('',(-0.0523400712013287,-0.0374803994183292,-1.99999999999983E-6));
#1467=CARTESIAN_POINT('',(-0.0523400712013245,0.016093962725401,-1.99999999999983E-6));
#1468=CARTESIAN_POINT('',(-0.0623400712013245,0.016093962725401,-1.99999999999983E-6));
#1469=CARTESIAN_POINT('',(-0.0723400712013245,0.016093962725401,-1.99999999999983E-6));
#1470=CARTESIAN_POINT('',(-0.0623400712013245,-0.0373632183464641,-1.99999999999983E-6));
#1471=CARTESIAN_POINT('',(-0.0723400712013245,-0.0372460372745991,-1.99999999999983E-6));
#1472=CARTESIAN_POINT('',(-0.0723400712013245,-0.0105760372745991,-1.99999999999983E-6));
#1473=CARTESIAN_POINT('',(0.0254,0.0254,-0.247956432589737));
#1474=CARTESIAN_POINT('',(0.0254,0.02032,-0.247956432589737));
#1475=CARTESIAN_POINT('',(0.0254,0.03048,-0.247956432589737));
#1476=CARTESIAN_POINT('',(0.,0.03048,-0.247956432589737));
#1477=CARTESIAN_POINT('',(-0.0254,0.03048,-0.247956432589737));
#1478=CARTESIAN_POINT('',(-0.0254,0.0254,-0.247956432589737));
#1479=CARTESIAN_POINT('',(-0.0254,0.02032,-0.247956432589737));
#1480=CARTESIAN_POINT('',(0.,0.02032,-0.247956432589737));
#1481=CARTESIAN_POINT('',(-4.63731787264739E-17,3.74700270810991E-16,0.0254));
#1482=CARTESIAN_POINT('',(0.025,0.0826622622482593,0.0254));
#1483=CARTESIAN_POINT('',(0.025,0.0826622622482593,0.0254));
#1484=CARTESIAN_POINT('',(-0.025,0.0826622622482593,0.0254));
#1485=CARTESIAN_POINT('',(-0.025,0.0826622622482593,0.0254));
#1486=CARTESIAN_POINT('',(-4.63731787264739E-17,3.74700270810991E-16,0.0254));
#1487=CARTESIAN_POINT('',(0.,0.,0.0254));
#1488=CARTESIAN_POINT('',(-0.02373,0.0826622622482593,0.0254));
#1489=CARTESIAN_POINT('',(-0.02373,0.0826622622482593,0.0254));
#1490=CARTESIAN_POINT('',(-0.02373,0.0839873440362015,0.0254));
#1491=CARTESIAN_POINT('',(-0.02373,0.118332425824144,0.0254));
#1492=CARTESIAN_POINT('',(-0.02373,0.118332425824144,0.0254));
#1493=CARTESIAN_POINT('',(-0.025,0.118332425824144,0.0254));
#1494=CARTESIAN_POINT('',(-0.025,0.118332425824144,0.0254));
#1495=CARTESIAN_POINT('',(0.025,0.118332425824144,0.0254));
#1496=CARTESIAN_POINT('',(0.025,0.118332425824144,0.0254));
#1497=CARTESIAN_POINT('',(0.02373,0.118332425824144,0.0254));
#1498=CARTESIAN_POINT('',(0.02373,0.118332425824144,0.0254));
#1499=CARTESIAN_POINT('',(0.02373,0.0839873440362015,0.0254));
#1500=CARTESIAN_POINT('',(0.02373,0.0826622622482593,0.0254));
#1501=CARTESIAN_POINT('',(0.02373,0.0826622622482593,0.0254));
#1502=CARTESIAN_POINT('',(-0.025,0.120762262248259,0.00254));
#1503=CARTESIAN_POINT('',(-0.025,0.118332425824144,0.00254));
#1504=CARTESIAN_POINT('',(-0.025,0.120762262248259,0.00254));
#1505=CARTESIAN_POINT('',(0.025,0.120762262248259,0.00254));
#1506=CARTESIAN_POINT('',(0.025,0.118332425824144,0.00254));
#1507=CARTESIAN_POINT('',(0.025,0.120762262248259,0.00254));
#1508=CARTESIAN_POINT('',(2.31099201575989E-17,0.120762262248259,0.00127));
#1509=CARTESIAN_POINT('',(-0.02373,0.0826622622482593,0.0254));
#1510=CARTESIAN_POINT('',(-0.02373,0.0826622622482593,0.0254));
#1511=CARTESIAN_POINT('',(-0.02373,0.0839873440362015,0.01397));
#1512=CARTESIAN_POINT('',(-0.02373,0.118332425824144,0.00254));
#1513=CARTESIAN_POINT('',(0.02373,0.0826622622482593,0.0254));
#1514=CARTESIAN_POINT('',(0.02373,0.0826622622482593,0.0254));
#1515=CARTESIAN_POINT('',(0.02373,0.0839873440362015,0.01397));
#1516=CARTESIAN_POINT('',(0.02373,0.118332425824144,0.00254));
#1517=CARTESIAN_POINT('',(0.024365,0.118332425824144,0.01397));
#1518=CARTESIAN_POINT('',(-0.024365,0.118332425824144,0.01397));
#1519=CARTESIAN_POINT('',(-0.0190878056275954,0.038355,-0.266168200289192));
#1520=CARTESIAN_POINT('',(-0.0190878056275954,0.063755,-0.266168200289192));
#1521=CARTESIAN_POINT('',(0.0190878056275954,0.063755,-0.266168200289192));
#1522=CARTESIAN_POINT('',(0.0190878056275954,0.038355,-0.266168200289192));
#1523=CARTESIAN_POINT('',(-0.02119,0.0903122622482593,-1.99999999999983E-6));
#1524=CARTESIAN_POINT('',(-0.02119,0.0953622622482593,-1.99999999999983E-6));
#1525=CARTESIAN_POINT('',(-0.02119,0.0852622622482593,-1.99999999999983E-6));
#1526=CARTESIAN_POINT('',(-0.01839,0.0953622622482593,-1.99999999999983E-6));
#1527=CARTESIAN_POINT('',(-0.01559,0.0953622622482593,-1.99999999999983E-6));
#1528=CARTESIAN_POINT('',(-0.01839,0.0852622622482593,-1.99999999999983E-6));
#1529=CARTESIAN_POINT('',(-0.01559,0.0852622622482593,-1.99999999999983E-6));
#1530=CARTESIAN_POINT('',(-0.01559,0.0903122622482593,-1.99999999999983E-6));
#1531=CARTESIAN_POINT('',(0.0148205831310767,-0.0720087865196418,-1.99999999999983E-6));
#1532=CARTESIAN_POINT('',(0.0148205831310767,-0.0774587865196418,-1.99999999999983E-6));
#1533=CARTESIAN_POINT('',(0.0148205831310767,-0.0665587865196418,-1.99999999999983E-6));
#1534=CARTESIAN_POINT('',(0.0120205831310767,-0.0774587865196418,-1.99999999999983E-6));
#1535=CARTESIAN_POINT('',(0.0092205831310767,-0.0774587865196418,-1.99999999999983E-6));
#1536=CARTESIAN_POINT('',(0.0120205831310767,-0.0665587865196418,-1.99999999999983E-6));
#1537=CARTESIAN_POINT('',(0.0092205831310767,-0.0665587865196418,-1.99999999999983E-6));
#1538=CARTESIAN_POINT('',(0.0092205831310767,-0.0720087865196418,-1.99999999999983E-6));
#1539=MECHANICAL_DESIGN_GEOMETRIC_PRESENTATION_REPRESENTATION('',(#966),
#1540);
#1540=(
GEOMETRIC_REPRESENTATION_CONTEXT(3)
GLOBAL_UNCERTAINTY_ASSIGNED_CONTEXT((#1541))
GLOBAL_UNIT_ASSIGNED_CONTEXT((#1544,#1543,#1542))
REPRESENTATION_CONTEXT('Chassis','TOP_LEVEL_ASSEMBLY_PART')
);
#1541=UNCERTAINTY_MEASURE_WITH_UNIT(LENGTH_MEASURE(1.E-8),#1544,
'DISTANCE_ACCURACY_VALUE','Maximum Tolerance applied to model');
#1542=(
NAMED_UNIT(*)
SI_UNIT($,.STERADIAN.)
SOLID_ANGLE_UNIT()
);
#1543=(
NAMED_UNIT(*)
PLANE_ANGLE_UNIT()
SI_UNIT($,.RADIAN.)
);
#1544=(
LENGTH_UNIT()
NAMED_UNIT(*)
SI_UNIT($,.METRE.)
);
#1545=PRODUCT_DEFINITION_SHAPE('','',#1546);
#1546=PRODUCT_DEFINITION('','',#1548,#1547);
#1547=PRODUCT_DEFINITION_CONTEXT('',#1554,'design');
#1548=PRODUCT_DEFINITION_FORMATION_WITH_SPECIFIED_SOURCE('','',#1550,
 .NOT_KNOWN.);
#1549=PRODUCT_RELATED_PRODUCT_CATEGORY('','',(#1550));
#1550=PRODUCT('Chassis','Chassis','Chassis',(#1552));
#1551=PRODUCT_CATEGORY('','');
#1552=PRODUCT_CONTEXT('',#1554,'mechanical');
#1553=APPLICATION_PROTOCOL_DEFINITION('international standard',
'ap242_managed_model_based_3d_engineering',2020,#1554);
#1554=APPLICATION_CONTEXT('managed model based 3d engineering');
ENDSEC;
END-ISO-10303-21;
